SplineFontDB: 1.0
FontName: ScidbSymbolS1Bold
FullName: Scidb Symbol S1
FamilyName: Scidb Symbol S1
Weight: Bold
Copyright: 
Version: 1.0
ItalicAngle: 0
UnderlinePosition: 0
UnderlineWidth: 0
Ascent: 3276
Descent: 820
Order2: 1
XUID: [1021 973 2061925148 9434136]
FSType: 0
OS2Version: 0
OS2_WeightWidthSlopeOnly: 0
OS2_UseTypoMetrics: 0
CreationTime: 1236613799
ModificationTime: 1250956766
PfmFamily: 17
TTFWeight: 700
TTFWidth: 5
LineGap: -231
VLineGap: 0
Panose: 2 11 8 3 5 3 2 2 2 4
OS2TypoAscent: 3431
OS2TypoAOffset: 1
OS2TypoDescent: -896
OS2TypoDOffset: 1
OS2TypoLinegap: 0
OS2WinAscent: 0
OS2WinAOffset: 1
OS2WinDescent: 0
OS2WinDOffset: 1
HheadAscent: 0
HheadAOffset: 1
HheadDescent: 0
HheadDOffset: 1
OS2SubXSize: 0
OS2SubYSize: 0
OS2SubXOff: 0
OS2SubYOff: 0
OS2SupXSize: 0
OS2SupYSize: 0
OS2SupXOff: 0
OS2SupYOff: 0
OS2StrikeYSize: 0
OS2StrikeYPos: 0
OS2Vendor: 'PfEd'
ScriptLang: 1
 1 latn 1 dflt 
TableOrder: GSUB 1
	'liga'
TtfTable: prep 4
\,ZLZ
EndTtf
TtfTable: fpgm 354
\,ZL[9=Os-:fst'!KL<m!WRk`!(7j<!!iQ,?X>=o!!+Vn+@U!4YQ8,`\,ZR]\,ZOZ+YC2(""YQa
YQH1@;HP/H+Gq;!8S!]$7NcAQA?Z1_7NcAQA5ZMSAVsVD+KtiE=D8n^!*!&DYWu>1BcsV[<*1<J
5\4)$3\@iA"=tZbYQQ7A;HP0$=Wg0VC11YW"=6M[C11XN=<i]+0E!K4!!OoH+Ktqp:fpRsY^f+\
YWtTZ)^-@I7BjR(=KoS/)^/?e/[tcb/0H'(Bgf0+?m$R\I;'NdYQ8,`\,Zab\,Z^_/[tcd/5%+i
""$rKY^d[s5Zru%+Ktqp;ck7fYeZ-R)i>kC+Ktqp;ck7f\,cSeMAqEt=WjpN-<""k+h.P<MM`@1
,?Z/!!!=QH=KhlR7CWAK:fnqc\,h+)+WIWf,t0%%,9^2/+^%2b\,Zgd92eq]6lR9m=Y0UR
EndTtf
TtfTable: cvt  4
!/Lt+
EndTtf
TtfTable: maxp 32
!!*'"!2fnm!$M=B!!!!"!!!!1z!!!!Oz
EndTtf
LangName: 1033 "" "" "" "Scidb Symbol S1" 
Encoding: UnicodeBmp
UnicodeInterp: none
NameList: Adobe Glyph List
DisplaySize: -24
AntiAlias: 1
FitToEm: 1
WinInfo: 9792 16 4
BeginChars: 65536 165
StartChar: .notdef
Encoding: 0 -1 0
AltUni: 0
Width: 1773
GlyphClass: 2
Flags: W
Fore
136 0 m 1,0,-1
 136 2730 l 1,1,-1
 1501 2730 l 1,2,-1
 1501 0 l 1,3,-1
 136 0 l 1,0,-1
272 136 m 1,4,-1
 1365 136 l 1,5,-1
 1365 2594 l 1,6,-1
 272 2594 l 1,7,-1
 272 136 l 1,4,-1
EndSplineSet
EndChar
StartChar: exclam
Encoding: 33 33 2
Width: 1360
GlyphClass: 2
Flags: W
Fore
368 0 m 1,0,-1
 368 575 l 1,1,-1
 975 575 l 1,2,-1
 975 0 l 1,3,-1
 368 0 l 1,0,-1
522 811 m 1,4,-1
 352 2172 l 1,5,-1
 352 2943 l 1,6,-1
 992 2943 l 1,7,-1
 992 2172 l 1,8,-1
 830 811 l 1,9,-1
 522 811 l 1,4,-1
EndSplineSet
EndChar
StartChar: quotedbl
Encoding: 34 34 3
Width: 1946
GlyphClass: 2
Flags: W
Fore
416 1830 m 1,0,-1
 416 2943 l 1,1,-1
 800 2943 l 1,2,-1
 800 1830 l 1,3,-1
 416 1830 l 1,0,-1
1120 2943 m 1,4,-1
 1536 2943 l 1,5,-1
 1536 1830 l 1,6,-1
 1120 1830 l 1,7,-1
 1120 2943 l 1,4,-1
EndSplineSet
EndChar
StartChar: numbersign
Encoding: 35 35 4
Width: 2281
GlyphClass: 2
Flags: W
Fore
64 831 m 1,0,-1
 109 1183 l 1,1,-1
 512 1183 l 1,2,-1
 586 1695 l 1,3,-1
 183 1695 l 1,4,-1
 233 2047 l 1,5,-1
 631 2047 l 1,6,-1
 747 2861 l 1,7,-1
 1130 2861 l 1,8,-1
 1018 2047 l 1,9,-1
 1421 2047 l 1,10,-1
 1533 2861 l 1,11,-1
 1919 2861 l 1,12,-1
 1804 2047 l 1,13,-1
 2208 2047 l 1,14,-1
 2159 1695 l 1,15,-1
 1759 1695 l 1,16,-1
 1685 1183 l 1,17,-1
 2088 1183 l 1,18,-1
 2039 831 l 1,19,-1
 1635 831 l 1,20,-1
 1525 0 l 1,21,-1
 1130 0 l 1,22,-1
 1252 831 l 1,23,-1
 849 831 l 1,24,-1
 738 0 l 1,25,-1
 351 0 l 1,26,-1
 463 831 l 1,27,-1
 64 831 l 1,0,-1
969 1695 m 1,28,-1
 899 1183 l 1,29,-1
 1299 1183 l 1,30,-1
 1372 1695 l 1,31,-1
 969 1695 l 1,28,-1
EndSplineSet
EndChar
StartChar: dollar
Encoding: 36 36 5
Width: 2281
GlyphClass: 2
Flags: W
Fore
2099 2055 m 1,0,-1
 1574 2055 l 1,1,2
 1558 2322 1558 2322 1465 2408 c 0,3,4
 1373 2494 1373 2494 1216 2494 c 1,5,-1
 1216 1724 l 1,6,7
 1479 1640 1479 1640 1656.5 1557 c 128,-1,8
 1834 1474 1834 1474 1925 1393 c 1,9,10
 2144 1178 2144 1178 2144 813 c 0,11,12
 2144 605 2144 605 2052 410 c 0,13,14
 1959 215 1959 215 1750 82 c 1,15,16
 1541 -53 1541 -53 1216 -72 c 1,17,-1
 1216 -471 l 1,18,-1
 1056 -471 l 1,19,-1
 1056 -74 l 1,20,21
 891 -60 891 -60 757 -26 c 128,-1,22
 623 8 623 8 521 61 c 1,23,24
 419 116 419 116 344 194 c 128,-1,25
 269 272 269 272 222 371 c 0,26,27
 127 571 127 571 127 879 c 1,28,-1
 655 879 l 1,29,30
 664 798 664 798 677 733 c 128,-1,31
 690 668 690 668 705 620 c 0,32,33
 721 571 721 571 749 531 c 128,-1,34
 777 491 777 491 817 460 c 0,35,36
 858 428 858 428 917.5 404.5 c 128,-1,37
 977 381 977 381 1056 367 c 1,38,-1
 1056 1223 l 1,39,40
 931 1255 931 1255 821.5 1292.5 c 128,-1,41
 712 1330 712 1330 620 1373 c 0,42,43
 434 1461 434 1461 314 1627 c 0,44,45
 192 1794 192 1794 192 2055 c 0,46,47
 192 2224 192 2224 245 2378 c 0,48,49
 272 2454 272 2454 312.5 2522.5 c 128,-1,50
 353 2591 353 2591 407 2651 c 0,51,52
 516 2770 516 2770 678 2839 c 0,53,54
 840 2907 840 2907 1056 2911 c 1,55,-1
 1056 3173 l 1,56,-1
 1216 3173 l 1,57,-1
 1216 2911 l 1,58,59
 1323 2900 1323 2900 1421.5 2878 c 128,-1,60
 1520 2856 1520 2856 1610 2823 c 0,61,62
 1792 2757 1792 2757 1934 2573 c 0,63,64
 2005 2480 2005 2480 2047 2350.5 c 128,-1,65
 2089 2221 2089 2221 2099 2055 c 1,0,-1
1056 1767 m 1,66,-1
 1056 2494 l 1,67,68
 881 2487 881 2487 793 2386 c 0,69,70
 704 2285 704 2285 704 2168 c 0,71,72
 704 1831 704 1831 1056 1767 c 1,66,-1
1216 1150 m 1,73,-1
 1216 367 l 1,74,75
 1364 375 1364 375 1482 464 c 0,76,77
 1600 554 1600 554 1600 768 c 0,78,79
 1600 1063 1600 1063 1216 1150 c 1,73,-1
EndSplineSet
EndChar
StartChar: percent
Encoding: 37 37 6
Width: 3641
GlyphClass: 2
Flags: W
Fore
544 2111 m 1,0,1
 555 1971 555 1971 654 1880 c 1,2,3
 753 1791 753 1791 867 1791 c 0,4,5
 979 1791 979 1791 1075 1883 c 0,6,7
 1123 1928 1123 1928 1150.5 1984.5 c 128,-1,8
 1178 2041 1178 2041 1184 2107 c 1,9,10
 1184 2283 1184 2283 1090 2388 c 0,11,12
 996 2494 996 2494 867 2494 c 0,13,14
 797 2494 797 2494 722 2454 c 1,15,16
 648 2412 648 2412 596 2324 c 0,17,18
 571 2281 571 2281 557.5 2227.5 c 128,-1,19
 544 2174 544 2174 544 2111 c 1,0,1
2464 657 m 1,20,21
 2473 520 2473 520 2570 435 c 0,22,23
 2618 392 2618 392 2674 371.5 c 128,-1,24
 2730 351 2730 351 2791 351 c 0,25,26
 2850 351 2850 351 2903 372.5 c 128,-1,27
 2956 394 2956 394 3003 435 c 1,28,29
 3098 522 3098 522 3104 648 c 1,30,31
 3104 759 3104 759 3062 843 c 0,32,33
 3041 885 3041 885 3011.5 917 c 128,-1,34
 2982 949 2982 949 2945 972 c 0,35,36
 2909 994 2909 994 2868 1007 c 128,-1,37
 2827 1020 2827 1020 2783 1023 c 1,38,39
 2669 1023 2669 1023 2567 929 c 0,40,41
 2517 883 2517 883 2490.5 814.5 c 128,-1,42
 2464 746 2464 746 2464 657 c 1,20,21
851 -97 m 1,43,-1
 2477 2911 l 1,44,-1
 2775 2911 l 1,45,-1
 1145 -97 l 1,46,-1
 851 -97 l 1,43,-1
128 2218 m 1,47,48
 140 2423 140 2423 250 2580 c 1,49,50
 360 2740 360 2740 530 2825 c 0,51,52
 701 2911 701 2911 880 2911 c 1,53,54
 976 2902 976 2902 1065.5 2872.5 c 128,-1,55
 1155 2843 1155 2843 1237 2793 c 0,56,57
 1402 2691 1402 2691 1501 2517 c 128,-1,58
 1600 2343 1600 2343 1600 2123 c 1,59,60
 1585 1910 1585 1910 1476 1747 c 0,61,62
 1422 1665 1422 1665 1352.5 1601.5 c 128,-1,63
 1283 1538 1283 1538 1199 1495 c 0,64,65
 1115 1451 1115 1451 1027 1429 c 128,-1,66
 939 1407 939 1407 847 1407 c 1,67,68
 758 1409 758 1409 672 1433.5 c 128,-1,69
 586 1458 586 1458 503 1504 c 0,70,71
 421 1551 421 1551 353 1620.5 c 128,-1,72
 285 1690 285 1690 233 1780 c 0,73,74
 128 1961 128 1961 128 2218 c 1,47,48
2048 718 m 1,75,76
 2050 817 2050 817 2079 906 c 128,-1,77
 2108 995 2108 995 2163 1074 c 0,78,79
 2275 1231 2275 1231 2447 1319 c 0,80,81
 2533 1362 2533 1362 2619.5 1384.5 c 128,-1,82
 2706 1407 2706 1407 2793 1407 c 1,83,84
 2989 1402 2989 1402 3157 1303 c 0,85,86
 3324 1203 3324 1203 3422 1026 c 0,87,88
 3520 848 3520 848 3520 621 c 1,89,90
 3507 415 3507 415 3395 258 c 0,91,92
 3339 181 3339 181 3268.5 120.5 c 128,-1,93
 3198 60 3198 60 3114 18 c 1,94,95
 2943 -64 2943 -64 2761 -64 c 1,96,97
 2671 -62 2671 -62 2585 -36.5 c 128,-1,98
 2499 -11 2499 -11 2418 34 c 1,99,100
 2254 129 2254 129 2151 306 c 0,101,102
 2100 395 2100 395 2074 498 c 128,-1,103
 2048 601 2048 601 2048 718 c 1,75,76
EndSplineSet
EndChar
StartChar: ampersand
Encoding: 38 38 7
Width: 72
GlyphClass: 2
Flags: W
Fore
39 69 m 0,0,1
 53 69 53 69 63.5 59.5 c 128,-1,2
 74 50 74 50 74 36 c 128,-1,3
 74 22 74 22 63.5 12 c 128,-1,4
 53 2 53 2 39 2 c 128,-1,5
 25 2 25 2 15 12 c 128,-1,6
 5 22 5 22 5 36 c 128,-1,7
 5 50 5 50 15 59.5 c 128,-1,8
 25 69 25 69 39 69 c 0,0,1
EndSplineSet
EndChar
StartChar: quotesingle
Encoding: 39 39 8
Width: 1135
GlyphClass: 2
Flags: W
Fore
288 2431 m 1,0,-1
 288 2943 l 1,1,-1
 864 2943 l 1,2,-1
 864 2483 l 2,3,4
 864 2208 864 2208 710 2038 c 0,5,6
 633 1953 633 1953 531 1898.5 c 128,-1,7
 429 1844 429 1844 304 1821 c 1,8,-1
 304 2032 l 1,9,10
 383 2059 383 2059 440 2094.5 c 128,-1,11
 497 2130 497 2130 532 2173 c 0,12,13
 603 2257 603 2257 606 2431 c 1,14,-1
 288 2431 l 1,0,-1
EndSplineSet
EndChar
StartChar: parenleft
Encoding: 40 40 9
Width: 1360
GlyphClass: 2
Flags: W
Fore
128 1094 m 1,0,1
 128 1599 128 1599 334 2104 c 0,2,3
 437 2356 437 2356 571 2581.5 c 128,-1,4
 705 2807 705 2807 868 3006 c 1,5,-1
 1301 3006 l 1,6,7
 1172 2804 1172 2804 1069.5 2580.5 c 128,-1,8
 967 2357 967 2357 892 2113 c 0,9,10
 742 1624 742 1624 736 1121 c 1,11,12
 736 941 736 941 748.5 771.5 c 128,-1,13
 761 602 761 602 786 444 c 0,14,15
 837 129 837 129 962 -194 c 0,16,17
 1024 -356 1024 -356 1109.5 -523.5 c 128,-1,18
 1195 -691 1195 -691 1301 -864 c 1,19,-1
 868 -864 l 1,20,21
 768 -718 768 -718 693 -605.5 c 128,-1,22
 618 -493 618 -493 568 -415 c 0,23,24
 519 -337 519 -337 468.5 -242 c 128,-1,25
 418 -147 418 -147 368 -36 c 0,26,27
 318 74 318 74 276.5 199.5 c 128,-1,28
 235 325 235 325 203 466 c 128,-1,29
 171 607 171 607 152 764 c 128,-1,30
 133 921 133 921 128 1094 c 1,0,1
EndSplineSet
EndChar
StartChar: parenright
Encoding: 41 41 10
Width: 1360
GlyphClass: 2
Flags: W
Fore
83 -864 m 1,0,1
 221 -635 221 -635 321.5 -400.5 c 128,-1,2
 422 -166 422 -166 483 72 c 0,3,4
 546 311 546 311 577 564.5 c 128,-1,5
 608 818 608 818 608 1085 c 0,6,7
 608 1153 608 1153 607 1204 c 128,-1,8
 606 1255 606 1255 604 1289 c 0,9,10
 598 1440 598 1440 578 1590 c 128,-1,11
 558 1740 558 1740 525 1889 c 128,-1,12
 492 2038 492 2038 446.5 2184 c 128,-1,13
 401 2330 401 2330 344 2471 c 128,-1,14
 287 2612 287 2612 221.5 2746.5 c 128,-1,15
 156 2881 156 2881 83 3006 c 1,16,-1
 503 3006 l 1,17,18
 557 2931 557 2931 606.5 2859 c 128,-1,19
 656 2787 656 2787 700 2721 c 0,20,21
 745 2656 745 2656 796 2565.5 c 128,-1,22
 847 2475 847 2475 904 2362 c 0,23,24
 962 2248 962 2248 1013.5 2120 c 128,-1,25
 1065 1992 1065 1992 1108 1850 c 0,26,27
 1152 1707 1152 1707 1178.5 1562 c 128,-1,28
 1205 1417 1205 1417 1212 1270 c 0,29,30
 1214 1239 1214 1239 1215 1192.5 c 128,-1,31
 1216 1146 1216 1146 1216 1085 c 0,32,33
 1216 972 1216 972 1207.5 859 c 128,-1,34
 1199 746 1199 746 1182 634 c 0,35,36
 1165 523 1165 523 1136 409.5 c 128,-1,37
 1107 296 1107 296 1068 179 c 0,38,39
 1029 61 1029 61 973.5 -63.5 c 128,-1,40
 918 -188 918 -188 846 -320 c 0,41,42
 775 -452 775 -452 687 -588 c 128,-1,43
 599 -724 599 -724 495 -864 c 1,44,-1
 83 -864 l 1,0,1
EndSplineSet
EndChar
StartChar: asterisk
Encoding: 42 42 11
Width: 1593
GlyphClass: 2
Flags: W
Fore
275 1767 m 1,0,-1
 554 2166 l 1,1,-1
 111 2297 l 1,2,-1
 212 2592 l 1,3,-1
 640 2456 l 1,4,-1
 640 2943 l 1,5,-1
 960 2943 l 1,6,-1
 960 2456 l 1,7,-1
 1388 2592 l 1,8,-1
 1493 2297 l 1,9,-1
 1050 2166 l 1,10,-1
 1328 1767 l 1,11,-1
 1079 1584 l 1,12,-1
 803 1961 l 1,13,-1
 531 1584 l 1,14,-1
 275 1767 l 1,0,-1
EndSplineSet
EndChar
StartChar: plus
Encoding: 43 43 12
Width: 2392
GlyphClass: 2
Flags: W
Fore
992 1214 m 1,0,-1
 992 2072 l 1,1,-1
 1344 2072 l 1,2,-1
 1344 1214 l 1,3,-1
 2201 1214 l 1,4,-1
 2201 863 l 1,5,-1
 1344 863 l 1,6,-1
 1344 0 l 1,7,-1
 992 0 l 1,8,-1
 992 863 l 1,9,-1
 135 863 l 1,10,-1
 135 1214 l 1,11,-1
 992 1214 l 1,0,-1
EndSplineSet
EndChar
StartChar: comma
Encoding: 44 44 13
Width: 1135
GlyphClass: 2
Flags: W
Fore
256 0 m 1,0,-1
 256 607 l 1,1,-1
 864 607 l 1,2,-1
 864 79 l 2,3,4
 864 -72 864 -72 831.5 -197 c 128,-1,5
 799 -322 799 -322 734 -418 c 0,6,7
 605 -612 605 -612 256 -688 c 1,8,-1
 256 -471 l 1,9,10
 578 -379 578 -379 594 0 c 1,11,-1
 256 0 l 1,0,-1
EndSplineSet
EndChar
StartChar: hyphen
Encoding: 45 45 14
Width: 2392
GlyphClass: 2
Flags: W
Fore
136 1213 m 1,0,-1
 2204 1213 l 1,1,-1
 2204 863 l 1,2,-1
 136 863 l 1,3,-1
 136 1213 l 1,0,-1
EndSplineSet
EndChar
StartChar: period
Encoding: 46 46 15
Width: 1135
GlyphClass: 2
Flags: W
Fore
256 0 m 1,0,-1
 256 607 l 1,1,-1
 864 607 l 1,2,-1
 864 0 l 1,3,-1
 256 0 l 1,0,-1
EndSplineSet
EndChar
StartChar: slash
Encoding: 47 47 16
Width: 1135
GlyphClass: 2
Flags: W
Fore
-126 -96 m 1,0,-1
 797 3006 l 1,1,-1
 1280 3006 l 1,2,-1
 350 -96 l 1,3,-1
 -126 -96 l 1,0,-1
EndSplineSet
EndChar
StartChar: zero
Encoding: 48 48 17
Width: 2281
GlyphClass: 2
Flags: W
Fore
132 1216 m 1,0,1
 131 1250 131 1250 129.5 1300.5 c 128,-1,2
 128 1351 128 1351 128 1416 c 0,3,4
 128 1584 128 1584 140 1735 c 128,-1,5
 152 1886 152 1886 175 2020 c 0,6,7
 199 2153 199 2153 239.5 2270 c 128,-1,8
 280 2387 280 2387 335 2487 c 0,9,10
 447 2687 447 2687 643 2798 c 0,11,12
 741 2854 741 2854 861.5 2882.5 c 128,-1,13
 982 2911 982 2911 1125 2911 c 0,14,15
 1440 2911 1440 2911 1644 2788 c 0,16,17
 1849 2664 1849 2664 1954 2463 c 0,18,19
 2007 2361 2007 2361 2044 2251 c 128,-1,20
 2081 2141 2081 2141 2100 2023 c 0,21,22
 2120 1904 2120 1904 2131.5 1773.5 c 128,-1,23
 2143 1643 2143 1643 2144 1502 c 1,24,-1
 2144 1368 l 2,25,26
 2144 1021 2144 1021 2086 751.5 c 128,-1,27
 2028 482 2028 482 1912 292 c 0,28,29
 1681 -90 1681 -90 1120 -96 c 1,30,31
 792 -96 792 -96 590 49 c 1,32,33
 389 196 389 196 297 408 c 0,34,35
 251 514 251 514 220 630 c 128,-1,36
 189 746 189 746 174 870 c 0,37,38
 159 995 159 995 148 1082 c 128,-1,39
 137 1169 137 1169 132 1216 c 1,0,1
704 1407 m 0,40,41
 704 1210 704 1210 713.5 1054.5 c 128,-1,42
 723 899 723 899 741 786 c 0,43,44
 779 562 779 562 872 457 c 0,45,46
 966 351 966 351 1138 351 c 0,47,48
 1262 351 1262 351 1346 410 c 0,49,50
 1388 439 1388 439 1421 485 c 128,-1,51
 1454 531 1454 531 1478 593 c 0,52,53
 1502 654 1502 654 1519.5 736 c 128,-1,54
 1537 818 1537 818 1547 919 c 0,55,56
 1558 1019 1558 1019 1563 1141.5 c 128,-1,57
 1568 1264 1568 1264 1568 1407 c 0,58,59
 1568 1552 1568 1552 1563 1675.5 c 128,-1,60
 1558 1799 1558 1799 1548 1900 c 0,61,62
 1527 2102 1527 2102 1479 2225 c 0,63,64
 1431 2347 1431 2347 1349 2405 c 0,65,66
 1308 2433 1308 2433 1255 2448 c 128,-1,67
 1202 2463 1202 2463 1138 2463 c 0,68,69
 966 2463 966 2463 872 2360 c 0,70,71
 779 2257 779 2257 742 2032 c 0,72,73
 723 1919 723 1919 713.5 1762.5 c 128,-1,74
 704 1606 704 1606 704 1407 c 0,40,41
EndSplineSet
EndChar
StartChar: one
Encoding: 49 49 18
Width: 2281
GlyphClass: 2
Flags: W
Fore
960 0 m 1,0,-1
 960 2014 l 1,1,-1
 278 2014 l 1,2,-1
 278 2399 l 1,3,4
 1015 2399 1015 2399 1066 2911 c 1,5,-1
 1536 2911 l 1,6,-1
 1536 0 l 1,7,-1
 960 0 l 1,0,-1
EndSplineSet
EndChar
StartChar: two
Encoding: 50 50 19
Width: 2281
GlyphClass: 2
Flags: W
Fore
101 0 m 1,0,1
 103 144 103 144 127.5 270 c 128,-1,2
 152 396 152 396 198 503 c 0,3,4
 290 715 290 715 428 856 c 0,5,6
 497 927 497 927 584 1001.5 c 128,-1,7
 671 1076 671 1076 774 1153 c 0,8,9
 846 1207 846 1207 921 1263 c 128,-1,10
 996 1319 996 1319 1072 1377 c 0,11,12
 1149 1434 1149 1434 1210 1486.5 c 128,-1,13
 1271 1539 1271 1539 1316 1584 c 128,-1,14
 1361 1629 1361 1629 1396.5 1678.5 c 128,-1,15
 1432 1728 1432 1728 1455 1781 c 0,16,17
 1479 1833 1479 1833 1491.5 1893 c 128,-1,18
 1504 1953 1504 1953 1504 2020 c 0,19,20
 1504 2089 1504 2089 1480.5 2158 c 128,-1,21
 1457 2227 1457 2227 1410 2295 c 0,22,23
 1315 2431 1315 2431 1098 2431 c 0,24,25
 943 2431 943 2431 855 2365 c 0,26,27
 768 2301 768 2301 734 2207 c 0,28,29
 718 2160 718 2160 708 2113 c 128,-1,30
 698 2066 698 2066 696 2021 c 0,31,32
 694 1974 694 1974 692 1938 c 128,-1,33
 690 1902 690 1902 689 1876 c 1,34,-1
 134 1876 l 1,35,36
 134 2165 134 2165 232 2397 c 0,37,38
 282 2513 282 2513 359 2605.5 c 128,-1,39
 436 2698 436 2698 539 2768 c 1,40,41
 643 2836 643 2836 773.5 2872.5 c 128,-1,42
 904 2909 904 2909 1060 2911 c 1,43,44
 1346 2911 1346 2911 1574 2809 c 128,-1,45
 1802 2707 1802 2707 1938 2496 c 0,46,47
 2074 2284 2074 2284 2080 1980 c 1,48,49
 2080 1681 2080 1681 1930 1463 c 0,50,51
 1855 1353 1855 1353 1754.5 1252.5 c 128,-1,52
 1654 1152 1654 1152 1527 1062 c 1,53,54
 1274 879 1274 879 1078 741 c 1,55,56
 881 600 881 600 827 478 c 1,57,-1
 2088 478 l 1,58,-1
 2088 0 l 1,59,-1
 101 0 l 1,0,1
EndSplineSet
EndChar
StartChar: three
Encoding: 51 51 20
Width: 2281
GlyphClass: 2
Flags: W
Fore
110 902 m 1,0,-1
 657 902 l 1,1,2
 662 626 662 626 771.5 488.5 c 128,-1,3
 881 351 881 351 1094 351 c 0,4,5
 1259 351 1259 351 1375 469 c 0,6,7
 1434 529 1434 529 1466 609.5 c 128,-1,8
 1498 690 1498 690 1504 791 c 1,9,10
 1504 1056 1504 1056 1360 1167 c 0,11,12
 1288 1222 1288 1222 1174.5 1250.5 c 128,-1,13
 1061 1279 1061 1279 908 1279 c 2,14,-1
 868 1279 l 1,15,-1
 868 1663 l 1,16,17
 1008 1663 1008 1663 1112.5 1681 c 128,-1,18
 1217 1699 1217 1699 1284 1735 c 0,19,20
 1352 1772 1352 1772 1391 1832 c 128,-1,21
 1430 1892 1430 1892 1440 1976 c 1,22,23
 1440 2207 1440 2207 1347 2322 c 0,24,25
 1301 2379 1301 2379 1236 2408 c 128,-1,26
 1171 2437 1171 2437 1090 2437 c 2,27,-1
 1082 2437 l 2,28,29
 691 2437 691 2437 691 1951 c 1,30,-1
 159 1951 l 1,31,32
 159 2072 159 2072 183 2188 c 128,-1,33
 207 2304 207 2304 253 2413 c 0,34,35
 348 2632 348 2632 560 2771 c 0,36,37
 774 2911 774 2911 1102 2911 c 1,38,39
 1251 2909 1251 2909 1377.5 2880 c 128,-1,40
 1504 2851 1504 2851 1606 2796 c 0,41,42
 1812 2685 1812 2685 1914 2501 c 0,43,44
 2016 2318 2016 2318 2016 2098 c 0,45,46
 2016 2075 2016 2075 2014.5 2042 c 128,-1,47
 2013 2009 2013 2009 2010 1968 c 1,48,49
 1983 1820 1983 1820 1896.5 1710 c 128,-1,50
 1810 1600 1810 1600 1666 1529 c 1,51,-1
 1666 1522 l 1,52,53
 2112 1377 2112 1377 2112 800 c 1,54,55
 2107 578 2107 578 1993 373 c 0,56,57
 1936 270 1936 270 1848.5 185 c 128,-1,58
 1761 100 1761 100 1644 34 c 0,59,60
 1409 -96 1409 -96 1064 -96 c 1,61,62
 891 -88 891 -88 750.5 -48.5 c 128,-1,63
 610 -9 610 -9 503 61 c 0,64,65
 397 132 397 132 321 222.5 c 128,-1,66
 245 313 245 313 200 421 c 0,67,68
 110 640 110 640 110 902 c 1,0,-1
EndSplineSet
EndChar
StartChar: four
Encoding: 52 52 21
Width: 2281
GlyphClass: 2
Flags: W
Fore
110 1142 m 1,0,-1
 1179 2911 l 1,1,-1
 1824 2911 l 1,2,-1
 1824 1055 l 1,3,-1
 2152 1055 l 1,4,-1
 2152 639 l 1,5,-1
 1824 639 l 1,6,-1
 1824 0 l 1,7,-1
 1248 0 l 1,8,-1
 1248 639 l 1,9,-1
 110 639 l 1,10,-1
 110 1142 l 1,0,-1
535 1055 m 1,11,-1
 1248 1055 l 1,12,-1
 1248 2341 l 1,13,-1
 1257 2342 l 1,14,-1
 535 1055 l 1,11,-1
EndSplineSet
EndChar
StartChar: five
Encoding: 53 53 22
Width: 2281
GlyphClass: 2
Flags: W
Fore
110 740 m 1,0,-1
 694 740 l 1,1,2
 700 652 700 652 727.5 582.5 c 128,-1,3
 755 513 755 513 801 464 c 0,4,5
 895 362 895 362 1050 351 c 1,6,7
 1219 351 1219 351 1327 428 c 0,8,9
 1381 467 1381 467 1421 519 c 128,-1,10
 1461 571 1461 571 1486 634 c 128,-1,11
 1511 697 1511 697 1523.5 767.5 c 128,-1,12
 1536 838 1536 838 1536 915 c 0,13,14
 1536 1081 1536 1081 1477 1198 c 0,15,16
 1418 1316 1418 1316 1331 1375 c 0,17,18
 1288 1404 1288 1404 1243 1420 c 128,-1,19
 1198 1436 1198 1436 1154 1439 c 1,20,21
 833 1439 833 1439 718 1230 c 1,22,-1
 200 1251 l 1,23,-1
 400 2847 l 1,24,-1
 2004 2847 l 1,25,-1
 2004 2367 l 1,26,-1
 812 2367 l 1,27,-1
 710 1708 l 1,28,29
 936 1855 936 1855 1232 1855 c 0,30,31
 1319 1855 1319 1855 1412 1834 c 128,-1,32
 1505 1813 1505 1813 1602 1773 c 0,33,34
 1700 1732 1700 1732 1784.5 1668 c 128,-1,35
 1869 1604 1869 1604 1941 1518 c 128,-1,36
 2013 1432 2013 1432 2055.5 1326.5 c 128,-1,37
 2098 1221 2098 1221 2108 1098 c 0,38,39
 2110 1074 2110 1074 2111 1040.5 c 128,-1,40
 2112 1007 2112 1007 2112 965 c 0,41,42
 2112 603 2112 603 1970 364 c 0,43,44
 1900 244 1900 244 1805 156 c 128,-1,45
 1710 68 1710 68 1593 14 c 0,46,47
 1357 -96 1357 -96 1074 -96 c 0,48,49
 818 -96 818 -96 601 4 c 1,50,51
 385 106 385 106 254 296 c 0,52,53
 122 486 122 486 110 740 c 1,0,-1
EndSplineSet
EndChar
StartChar: six
Encoding: 54 54 23
Width: 2281
GlyphClass: 2
Flags: W
Fore
152 1763 m 0,0,1
 175 2031 175 2031 248.5 2240 c 128,-1,2
 322 2449 322 2449 445 2596 c 0,3,4
 693 2894 693 2894 1197 2911 c 1,5,6
 1266 2911 1266 2911 1343 2901 c 128,-1,7
 1420 2891 1420 2891 1502 2873 c 0,8,9
 1585 2853 1585 2853 1652.5 2824 c 128,-1,10
 1720 2795 1720 2795 1770 2757 c 1,11,12
 1842 2706 1842 2706 1897 2646.5 c 128,-1,13
 1952 2587 1952 2587 1988 2519 c 0,14,15
 2024 2449 2024 2449 2049 2365.5 c 128,-1,16
 2074 2282 2074 2282 2086 2184 c 1,17,-1
 1510 2184 l 1,18,19
 1498 2316 1498 2316 1410 2388 c 1,20,21
 1321 2463 1321 2463 1164 2463 c 1,22,23
 1059 2460 1059 2460 977 2413.5 c 128,-1,24
 895 2367 895 2367 838 2277 c 0,25,26
 781 2188 781 2188 744 2037 c 128,-1,27
 707 1886 707 1886 692 1674 c 1,28,-1
 700 1665 l 1,29,30
 750 1726 750 1726 806.5 1768 c 128,-1,31
 863 1810 863 1810 926 1833 c 128,-1,32
 989 1856 989 1856 1063.5 1870 c 128,-1,33
 1138 1884 1138 1884 1223 1887 c 1,34,35
 1357 1887 1357 1887 1477 1855 c 128,-1,36
 1597 1823 1597 1823 1701 1760 c 0,37,38
 1806 1697 1806 1697 1887.5 1611 c 128,-1,39
 1969 1525 1969 1525 2027 1418 c 0,40,41
 2144 1203 2144 1203 2144 954 c 0,42,43
 2144 765 2144 765 2090 582 c 0,44,45
 2063 489 2063 489 2020.5 404 c 128,-1,46
 1978 319 1978 319 1919 242 c 0,47,48
 1861 165 1861 165 1784.5 103 c 128,-1,49
 1708 41 1708 41 1613 -3 c 1,50,51
 1424 -96 1424 -96 1170 -96 c 0,52,53
 892 -96 892 -96 693 13 c 0,54,55
 493 122 493 122 370 321 c 128,-1,56
 247 520 247 520 189 784 c 0,57,58
 161 917 161 917 145.5 1063.5 c 128,-1,59
 130 1210 130 1210 128 1371 c 1,60,61
 130 1395 130 1395 131.5 1420 c 128,-1,62
 133 1445 133 1445 134 1468 c 0,63,64
 136 1493 136 1493 137 1518.5 c 128,-1,65
 138 1544 138 1544 140 1568 c 128,-1,66
 142 1592 142 1592 143.5 1617 c 128,-1,67
 145 1642 145 1642 146 1665 c 0,68,69
 148 1690 148 1690 149.5 1714.5 c 128,-1,70
 151 1739 151 1739 152 1763 c 0,0,1
709 840 m 0,71,72
 732 605 732 605 860 478 c 0,73,74
 990 351 990 351 1164 351 c 0,75,76
 1348 351 1348 351 1452 502 c 0,77,78
 1556 652 1556 652 1568 911 c 1,79,80
 1568 1188 1568 1188 1446 1330 c 0,81,82
 1324 1470 1324 1470 1140 1470 c 0,83,84
 999 1470 999 1470 900 1396 c 1,85,86
 801 1320 801 1320 753 1198 c 0,87,88
 729 1136 729 1136 716.5 1068.5 c 128,-1,89
 704 1001 704 1001 704 929 c 0,90,91
 704 900 704 900 705.5 878 c 128,-1,92
 707 856 707 856 709 840 c 0,71,72
EndSplineSet
EndChar
StartChar: seven
Encoding: 55 55 24
Width: 2281
GlyphClass: 2
Flags: W
Fore
502 0 m 1,0,1
 526 286 526 286 589 562 c 0,2,3
 652 840 652 840 772 1135 c 0,4,5
 893 1430 893 1430 1082 1730 c 0,6,7
 1177 1880 1177 1880 1290 2031.5 c 128,-1,8
 1403 2183 1403 2183 1534 2335 c 1,9,-1
 96 2335 l 1,10,-1
 105 2847 l 1,11,-1
 2144 2847 l 1,12,-1
 2144 2401 l 1,13,14
 2024 2267 2024 2267 1918.5 2131 c 128,-1,15
 1813 1995 1813 1995 1721 1857 c 0,16,17
 1630 1719 1630 1719 1549.5 1573 c 128,-1,18
 1469 1427 1469 1427 1401 1275 c 0,19,20
 1334 1124 1334 1124 1280 968 c 128,-1,21
 1226 812 1226 812 1187 652 c 0,22,23
 1148 494 1148 494 1124 330 c 128,-1,24
 1100 166 1100 166 1091 0 c 1,25,-1
 502 0 l 1,0,1
EndSplineSet
EndChar
StartChar: eight
Encoding: 56 56 25
Width: 2281
GlyphClass: 2
Flags: W
Fore
144 668 m 1,0,1
 144 691 144 691 140 727.5 c 128,-1,2
 136 764 136 764 128 813 c 1,3,4
 140 1341 140 1341 576 1545 c 1,5,6
 384 1644 384 1644 308 1785 c 0,7,8
 270 1855 270 1855 248.5 1935.5 c 128,-1,9
 227 2016 227 2016 224 2106 c 1,10,11
 232 2142 232 2142 232 2207 c 1,12,13
 241 2299 241 2299 274.5 2386.5 c 128,-1,14
 308 2474 308 2474 365 2555 c 0,15,16
 422 2635 422 2635 502 2700.5 c 128,-1,17
 582 2766 582 2766 684 2814 c 0,18,19
 786 2861 786 2861 906 2886 c 128,-1,20
 1026 2911 1026 2911 1162 2911 c 1,21,22
 1584 2898 1584 2898 1815 2675 c 0,23,24
 2048 2450 2048 2450 2048 2120 c 1,25,26
 2046 2032 2046 2032 2023.5 1951.5 c 128,-1,27
 2001 1871 2001 1871 1961 1799 c 128,-1,28
 1921 1727 1921 1727 1860 1669 c 128,-1,29
 1799 1611 1799 1611 1717 1569 c 1,30,31
 1937 1472 1937 1472 2040 1293 c 0,32,33
 2092 1203 2092 1203 2118 1100 c 128,-1,34
 2144 997 2144 997 2144 883 c 0,35,36
 2144 768 2144 768 2136 713 c 0,37,38
 2088 365 2088 365 1844 138 c 1,39,40
 1600 -85 1600 -85 1161 -96 c 1,41,42
 1009 -96 1009 -96 877 -70 c 128,-1,43
 745 -44 745 -44 635 7 c 0,44,45
 524 58 524 58 438 128.5 c 128,-1,46
 352 199 352 199 291 285 c 0,47,48
 168 462 168 462 144 668 c 1,0,1
1098 1726 m 1,49,50
 1305 1726 1305 1726 1404 1828 c 0,51,52
 1504 1929 1504 1929 1504 2082 c 0,53,54
 1504 2242 1504 2242 1402 2352 c 0,55,56
 1300 2463 1300 2463 1136 2463 c 1,57,58
 986 2456 986 2456 883 2374 c 0,59,60
 780 2293 780 2293 768 2145 c 1,61,62
 768 1972 768 1972 852 1859 c 0,63,64
 894 1802 894 1802 955.5 1768.5 c 128,-1,65
 1017 1735 1017 1735 1098 1726 c 1,49,50
736 831 m 0,66,67
 736 618 736 618 835 496 c 0,68,69
 935 372 935 372 1081 351 c 1,70,71
 1291 351 1291 351 1430 469 c 1,72,73
 1568 590 1568 590 1568 831 c 0,74,75
 1568 963 1568 963 1514 1074 c 0,76,77
 1487 1129 1487 1129 1448 1172.5 c 128,-1,78
 1409 1216 1409 1216 1358 1248 c 0,79,80
 1257 1311 1257 1311 1129 1311 c 1,81,82
 1045 1308 1045 1308 974.5 1275 c 128,-1,83
 904 1242 904 1242 848 1182 c 1,84,85
 736 1057 736 1057 736 831 c 0,66,67
EndSplineSet
EndChar
StartChar: nine
Encoding: 57 57 26
Width: 2281
GlyphClass: 2
Flags: W
Fore
185 659 m 1,0,-1
 757 659 l 1,1,2
 771 579 771 579 799 519.5 c 128,-1,3
 827 460 827 460 868 424 c 0,4,5
 952 351 952 351 1105 351 c 0,6,7
 1225 351 1225 351 1328 441 c 1,8,9
 1433 530 1433 530 1498 720 c 0,10,11
 1563 911 1563 911 1563 1189 c 1,12,-1
 1555 1198 l 1,13,14
 1478 1086 1478 1086 1341 1025.5 c 128,-1,15
 1204 965 1204 965 1008 958 c 1,16,17
 780 958 780 958 579 1064 c 0,18,19
 479 1116 479 1116 397 1196 c 128,-1,20
 315 1276 315 1276 253 1384 c 0,21,22
 191 1491 191 1491 159.5 1622.5 c 128,-1,23
 128 1754 128 1754 128 1909 c 0,24,25
 128 2207 128 2207 244 2433 c 0,26,27
 302 2545 302 2545 385 2632 c 128,-1,28
 468 2719 468 2719 574 2780 c 0,29,30
 790 2904 790 2904 1073 2911 c 1,31,32
 1190 2911 1190 2911 1294 2893 c 128,-1,33
 1398 2875 1398 2875 1489 2841 c 0,34,35
 1581 2806 1581 2806 1660.5 2752.5 c 128,-1,36
 1740 2699 1740 2699 1806 2627 c 1,37,38
 1874 2555 1874 2555 1927.5 2463.5 c 128,-1,39
 1981 2372 1981 2372 2020 2261 c 0,40,41
 2100 2038 2100 2038 2121 1738 c 1,42,43
 2121 1717 2121 1717 2122 1680.5 c 128,-1,44
 2123 1644 2123 1644 2123 1595 c 0,45,46
 2124 1544 2124 1544 2124.5 1505.5 c 128,-1,47
 2125 1467 2125 1467 2125 1441 c 0,48,49
 2125 1295 2125 1295 2114 1156 c 128,-1,50
 2103 1017 2103 1017 2080 888 c 0,51,52
 2058 757 2058 757 2018.5 637 c 128,-1,53
 1979 517 1979 517 1923 408 c 0,54,55
 1810 188 1810 188 1607 52 c 0,56,57
 1506 -15 1506 -15 1378.5 -52.5 c 128,-1,58
 1251 -90 1251 -90 1099 -96 c 1,59,60
 840 -96 840 -96 637 5 c 0,61,62
 433 107 433 107 318 281 c 0,63,64
 261 367 261 367 227 462 c 128,-1,65
 193 557 193 557 185 659 c 1,0,-1
1099 2463 m 1,66,67
 897 2451 897 2451 801 2310 c 0,68,69
 753 2239 753 2239 728.5 2151.5 c 128,-1,70
 704 2064 704 2064 704 1961 c 0,71,72
 704 1720 704 1720 802 1563 c 1,73,74
 902 1407 902 1407 1127 1407 c 1,75,76
 1546 1431 1546 1431 1546 1969 c 1,77,78
 1544 2037 1544 2037 1530 2099 c 128,-1,79
 1516 2161 1516 2161 1491 2217 c 0,80,81
 1466 2272 1466 2272 1429 2317.5 c 128,-1,82
 1392 2363 1392 2363 1342 2396 c 0,83,84
 1293 2429 1293 2429 1232 2446 c 128,-1,85
 1171 2463 1171 2463 1099 2463 c 1,66,67
EndSplineSet
EndChar
StartChar: colon
Encoding: 58 58 27
Width: 1360
GlyphClass: 2
Flags: W
Fore
384 0 m 1,0,-1
 384 607 l 1,1,-1
 992 607 l 1,2,-1
 992 0 l 1,3,-1
 384 0 l 1,0,-1
384 1502 m 1,4,-1
 384 2111 l 1,5,-1
 992 2111 l 1,6,-1
 992 1502 l 1,7,-1
 384 1502 l 1,4,-1
EndSplineSet
EndChar
StartChar: semicolon
Encoding: 59 59 28
Width: 1360
GlyphClass: 2
Flags: W
Fore
384 0 m 1,0,-1
 384 607 l 1,1,-1
 992 607 l 1,2,-1
 992 70 l 2,3,4
 992 -169 992 -169 928 -321 c 0,5,6
 897 -396 897 -396 847.5 -455 c 128,-1,7
 798 -514 798 -514 732 -556 c 128,-1,8
 666 -598 666 -598 579 -631.5 c 128,-1,9
 492 -665 492 -665 384 -688 c 1,10,-1
 384 -471 l 1,11,12
 463 -445 463 -445 524 -406 c 128,-1,13
 585 -367 585 -367 627 -316 c 0,14,15
 670 -264 670 -264 694.5 -185 c 128,-1,16
 719 -106 719 -106 724 0 c 1,17,-1
 384 0 l 1,0,-1
384 1502 m 1,18,-1
 384 2111 l 1,19,-1
 992 2111 l 1,20,-1
 992 1502 l 1,21,-1
 384 1502 l 1,18,-1
EndSplineSet
EndChar
StartChar: less
Encoding: 60 60 29
Width: 2392
GlyphClass: 2
Flags: W
Fore
2222 331 m 1,0,-1
 2218 -38 l 1,1,-1
 171 868 l 1,2,-1
 170 1195 l 1,3,-1
 2218 2110 l 1,4,-1
 2218 1732 l 1,5,-1
 645 1031 l 1,6,-1
 2222 331 l 1,0,-1
EndSplineSet
EndChar
StartChar: equal
Encoding: 61 61 30
Width: 2392
GlyphClass: 2
Flags: W
Fore
171 761 m 1,0,-1
 2218 761 l 1,1,-1
 2218 418 l 1,2,-1
 171 418 l 1,3,-1
 171 761 l 1,0,-1
171 1663 m 1,4,-1
 2218 1663 l 1,5,-1
 2218 1327 l 1,6,-1
 171 1327 l 1,7,-1
 171 1663 l 1,4,-1
EndSplineSet
EndChar
StartChar: greater
Encoding: 62 62 31
Width: 2392
GlyphClass: 2
Flags: W
Fore
170 331 m 1,0,-1
 1747 1031 l 1,1,-1
 174 1732 l 1,2,-1
 174 2110 l 1,3,-1
 2222 1195 l 1,4,-1
 2221 868 l 1,5,-1
 174 -38 l 1,6,-1
 170 331 l 1,0,-1
EndSplineSet
EndChar
StartChar: question
Encoding: 63 63 32
Width: 2503
GlyphClass: 2
Flags: W
Fore
960 0 m 1,0,-1
 960 575 l 1,1,-1
 1568 575 l 1,2,-1
 1568 0 l 1,3,-1
 960 0 l 1,0,-1
976 852 m 1,4,5
 976 1019 976 1019 995 1139.5 c 128,-1,6
 1014 1260 1014 1260 1051 1332 c 0,7,8
 1089 1404 1089 1404 1146 1472.5 c 128,-1,9
 1203 1541 1203 1541 1278 1606 c 1,10,11
 1330 1649 1330 1649 1378.5 1689.5 c 128,-1,12
 1427 1730 1427 1730 1470 1767 c 0,13,14
 1514 1804 1514 1804 1549.5 1845 c 128,-1,15
 1585 1886 1585 1886 1611 1930 c 0,16,17
 1664 2017 1664 2017 1664 2147 c 0,18,19
 1664 2315 1664 2315 1557 2421 c 0,20,21
 1504 2473 1504 2473 1435 2499.5 c 128,-1,22
 1366 2526 1366 2526 1282 2526 c 0,23,24
 1173 2526 1173 2526 1091.5 2498.5 c 128,-1,25
 1010 2471 1010 2471 959 2415 c 0,26,27
 855 2304 855 2304 823 2047 c 1,28,-1
 249 2047 l 1,29,30
 249 2343 249 2343 380 2555 c 0,31,32
 511 2764 511 2764 733 2870 c 0,33,34
 954 2975 954 2975 1220 2975 c 0,35,36
 1714 2975 1714 2975 1993 2738 c 128,-1,37
 2272 2501 2272 2501 2272 2037 c 1,38,39
 2267 1972 2267 1972 2250 1913 c 128,-1,40
 2233 1854 2233 1854 2206 1801 c 0,41,42
 2179 1747 2179 1747 2145 1698 c 128,-1,43
 2111 1649 2111 1649 2070 1606 c 0,44,45
 2030 1562 2030 1562 1986 1522.5 c 128,-1,46
 1942 1483 1942 1483 1895 1447 c 0,47,48
 1849 1411 1849 1411 1811 1381 c 128,-1,49
 1773 1351 1773 1351 1744 1330 c 0,50,51
 1623 1241 1623 1241 1575 1142 c 0,52,53
 1552 1093 1552 1093 1539 1020 c 128,-1,54
 1526 947 1526 947 1526 852 c 1,55,-1
 976 852 l 1,4,5
EndSplineSet
EndChar
StartChar: at
Encoding: 64 64 33
Width: 3183
GlyphClass: 2
Flags: W
Fore
2016 1976 m 1,0,1
 1995 1987 1995 1987 1976 1993 c 0,2,3
 1911 2015 1911 2015 1857 2048.5 c 128,-1,4
 1803 2082 1803 2082 1764.5 2124 c 128,-1,5
 1726 2166 1726 2166 1704.5 2214.5 c 128,-1,6
 1683 2263 1683 2263 1683 2316 c 0,7,8
 1683 2375 1683 2375 1710 2428.5 c 128,-1,9
 1737 2482 1737 2482 1787 2526 c 1,10,11
 1821 2548 1821 2548 1839.5 2576 c 128,-1,12
 1858 2604 1858 2604 1858 2635 c 0,13,14
 1858 2674 1858 2674 1831.5 2708 c 128,-1,15
 1805 2742 1805 2742 1759.5 2767.5 c 128,-1,16
 1714 2793 1714 2793 1652.5 2807.5 c 128,-1,17
 1591 2822 1591 2822 1522 2822 c 0,18,19
 1452 2822 1452 2822 1391 2807.5 c 128,-1,20
 1330 2793 1330 2793 1284 2767.5 c 128,-1,21
 1238 2742 1238 2742 1211.5 2708 c 128,-1,22
 1185 2674 1185 2674 1185 2635 c 0,23,24
 1185 2604 1185 2604 1203.5 2576 c 128,-1,25
 1222 2548 1222 2548 1256 2526 c 1,26,27
 1307 2482 1307 2482 1333.5 2428.5 c 128,-1,28
 1360 2375 1360 2375 1360 2316 c 0,29,30
 1360 2263 1360 2263 1338.5 2214.5 c 128,-1,31
 1317 2166 1317 2166 1278.5 2124 c 128,-1,32
 1240 2082 1240 2082 1186 2048.5 c 128,-1,33
 1132 2015 1132 2015 1067 1993 c 0,34,35
 909 1937 909 1937 777.5 1846.5 c 128,-1,36
 646 1756 646 1756 551 1640 c 128,-1,37
 456 1524 456 1524 403.5 1386.5 c 128,-1,38
 351 1249 351 1249 351 1099 c 0,39,40
 351 992 351 992 380 892.5 c 128,-1,41
 409 793 409 793 459 702 c 1,42,-1
 1522 702 l 1,43,-1
 2584 702 l 1,44,45
 2635 793 2635 793 2663.5 892.5 c 128,-1,46
 2692 992 2692 992 2692 1099 c 0,47,48
 2692 1210 2692 1210 2662.5 1314.5 c 128,-1,49
 2633 1419 2633 1419 2578.5 1514 c 128,-1,50
 2524 1609 2524 1609 2445.5 1692 c 128,-1,51
 2367 1775 2367 1775 2269 1842 c 1,52,-1
 1792 1172 l 2,53,54
 1776 1149 1776 1149 1752.5 1134.5 c 128,-1,55
 1729 1120 1729 1120 1703 1115.5 c 128,-1,56
 1677 1111 1677 1111 1650 1116.5 c 128,-1,57
 1623 1122 1623 1122 1599 1138 c 1,58,-1
 1599 1139 l 1,59,60
 1576 1155 1576 1155 1561.5 1178.5 c 128,-1,61
 1547 1202 1547 1202 1542.5 1228 c 128,-1,62
 1538 1254 1538 1254 1544 1281 c 128,-1,63
 1550 1308 1550 1308 1566 1331 c 2,64,-1
 2016 1976 l 1,0,1
1522 495 m 1,65,-1
 356 495 l 1,66,67
 320 543 320 543 288.5 591.5 c 128,-1,68
 257 640 257 640 233 695 c 0,69,70
 190 793 190 793 166.5 897 c 128,-1,71
 143 1001 143 1001 143 1109 c 0,72,73
 143 1301 143 1301 214.5 1476 c 128,-1,74
 286 1651 286 1651 413.5 1794.5 c 128,-1,75
 541 1938 541 1938 717 2044.5 c 128,-1,76
 893 2151 893 2151 1102 2206 c 1,77,78
 1129 2227 1129 2227 1144 2253 c 128,-1,79
 1159 2279 1159 2279 1159 2308 c 128,-1,80
 1159 2337 1159 2337 1144 2363.5 c 128,-1,81
 1129 2390 1129 2390 1103 2413 c 0,82,83
 1048 2460 1048 2460 1015.5 2519 c 128,-1,84
 983 2578 983 2578 983 2644 c 0,85,86
 983 2719 983 2719 1025.5 2785.5 c 128,-1,87
 1068 2852 1068 2852 1141 2901.5 c 128,-1,88
 1214 2951 1214 2951 1312 2979.5 c 128,-1,89
 1410 3008 1410 3008 1522 3008 c 0,90,91
 1633 3008 1633 3008 1731 2979.5 c 128,-1,92
 1829 2951 1829 2951 1902.5 2901.5 c 128,-1,93
 1976 2852 1976 2852 2018 2785.5 c 128,-1,94
 2060 2719 2060 2719 2060 2644 c 0,95,96
 2060 2578 2060 2578 2028 2519 c 128,-1,97
 1996 2460 1996 2460 1940 2413 c 0,98,99
 1914 2390 1914 2390 1899 2363.5 c 128,-1,100
 1884 2337 1884 2337 1884 2308 c 128,-1,101
 1884 2279 1884 2279 1899 2253 c 128,-1,102
 1914 2227 1914 2227 1942 2206 c 1,103,104
 2150 2151 2150 2151 2326 2044.5 c 128,-1,105
 2502 1938 2502 1938 2629.5 1794.5 c 128,-1,106
 2757 1651 2757 1651 2829 1476 c 128,-1,107
 2901 1301 2901 1301 2901 1109 c 0,108,109
 2901 1001 2901 1001 2877.5 897 c 128,-1,110
 2854 793 2854 793 2810 695 c 0,111,112
 2786 640 2786 640 2754.5 591.5 c 128,-1,113
 2723 543 2723 543 2687 495 c 1,114,-1
 1522 495 l 1,65,-1
292 342 m 1,115,-1
 2751 342 l 1,116,-1
 2751 0 l 1,117,-1
 292 0 l 1,118,-1
 292 342 l 1,115,-1
EndSplineSet
EndChar
StartChar: C
Encoding: 67 67 34
Width: 3736
GlyphClass: 2
Flags: W
Fore
1045 1875 m 1,0,1
 1070 1864 1070 1864 1096.5 1857 c 128,-1,2
 1123 1850 1123 1850 1151 1850 c 0,3,4
 1201 1850 1201 1850 1244 1872 c 128,-1,5
 1287 1894 1287 1894 1318 1930 c 1,6,-1
 1095 2215 l 1,7,-1
 1045 1875 l 1,0,1
2750 2027 m 1,8,-1
 3296 2485 l 1,9,10
 3345 2530 3345 2530 3384 2549.5 c 128,-1,11
 3423 2569 3423 2569 3442 2556 c 0,12,13
 3460 2544 3460 2544 3457.5 2504.5 c 128,-1,14
 3455 2465 3455 2465 3439 2407 c 1,15,-1
 2753 495 l 1,16,-1
 853 495 l 1,17,-1
 167 2405 l 1,18,19
 148 2465 148 2465 145 2504.5 c 128,-1,20
 142 2544 142 2544 159 2556 c 0,21,22
 178 2569 178 2569 217 2550 c 128,-1,23
 256 2531 256 2531 307 2486 c 1,24,-1
 860 2023 l 1,25,-1
 929 2532 l 1,26,27
 932 2576 932 2576 944 2605.5 c 128,-1,28
 956 2635 956 2635 977 2641 c 0,29,30
 998 2646 998 2646 1024.5 2628 c 128,-1,31
 1051 2610 1051 2610 1078 2571 c 1,32,-1
 1420 2137 l 1,33,-1
 1732 2807 l 1,34,35
 1749 2842 1749 2842 1767 2861.5 c 128,-1,36
 1785 2881 1785 2881 1804 2881 c 0,37,38
 1824 2881 1824 2881 1842 2861 c 128,-1,39
 1860 2841 1860 2841 1877 2803 c 1,40,-1
 2191 2141 l 1,41,-1
 2528 2571 l 1,42,43
 2556 2610 2556 2610 2582 2628 c 128,-1,44
 2608 2646 2608 2646 2629 2641 c 0,45,46
 2650 2635 2650 2635 2662.5 2605.5 c 128,-1,47
 2675 2576 2675 2576 2678 2532 c 1,48,-1
 2750 2027 l 1,8,-1
2291 1937 m 1,49,50
 2321 1897 2321 1897 2365.5 1873.5 c 128,-1,51
 2410 1850 2410 1850 2462 1850 c 0,52,53
 2488 1850 2488 1850 2512.5 1856 c 128,-1,54
 2537 1862 2537 1862 2560 1873 c 1,55,-1
 2511 2215 l 1,56,-1
 2291 1937 l 1,49,50
1798 1652 m 0,57,58
 1831 1652 1831 1652 1861 1624.5 c 128,-1,59
 1891 1597 1891 1597 1913 1550.5 c 128,-1,60
 1935 1504 1935 1504 1948 1442 c 128,-1,61
 1961 1380 1961 1380 1961 1309 c 128,-1,62
 1961 1238 1961 1238 1948 1175.5 c 128,-1,63
 1935 1113 1935 1113 1913 1066.5 c 128,-1,64
 1891 1020 1891 1020 1861 993 c 128,-1,65
 1831 966 1831 966 1798 966 c 0,66,67
 1764 966 1764 966 1734.5 993 c 128,-1,68
 1705 1020 1705 1020 1682.5 1066.5 c 128,-1,69
 1660 1113 1660 1113 1647 1175.5 c 128,-1,70
 1634 1238 1634 1238 1634 1309 c 128,-1,71
 1634 1380 1634 1380 1647 1442 c 128,-1,72
 1660 1504 1660 1504 1682.5 1550.5 c 128,-1,73
 1705 1597 1705 1597 1734.5 1624.5 c 128,-1,74
 1764 1652 1764 1652 1798 1652 c 0,57,58
884 1742 m 1,75,-1
 511 2046 l 1,76,-1
 1000 702 l 1,77,-1
 2606 702 l 1,78,-1
 3096 2046 l 1,79,-1
 2725 1742 l 1,80,81
 2668 1700 2668 1700 2601.5 1675.5 c 128,-1,82
 2535 1651 2535 1651 2462 1651 c 0,83,84
 2401 1651 2401 1651 2345.5 1668 c 128,-1,85
 2290 1685 2290 1685 2242.5 1715.5 c 128,-1,86
 2195 1746 2195 1746 2155.5 1788.5 c 128,-1,87
 2116 1831 2116 1831 2089 1882 c 1,88,-1
 1803 2481 l 1,89,-1
 1521 1883 l 1,90,91
 1495 1831 1495 1831 1456.5 1788.5 c 128,-1,92
 1418 1746 1418 1746 1370 1715.5 c 128,-1,93
 1322 1685 1322 1685 1266.5 1668 c 128,-1,94
 1211 1651 1211 1651 1151 1651 c 0,95,96
 1078 1651 1078 1651 1011 1675.5 c 128,-1,97
 944 1700 944 1700 884 1742 c 1,75,-1
854 342 m 1,98,-1
 2759 342 l 1,99,-1
 2759 0 l 1,100,-1
 854 0 l 1,101,-1
 854 342 l 1,98,-1
EndSplineSet
EndChar
StartChar: E
Encoding: 69 69 35
Width: 3641
GlyphClass: 2
Flags: W
Fore
3326 1651 m 1,0,-1
 2708 495 l 1,1,-1
 803 495 l 1,2,-1
 185 1652 l 1,3,4
 162 1713 162 1713 149 1778 c 128,-1,5
 136 1843 136 1843 136 1911 c 0,6,7
 136 1989 136 1989 153.5 2062.5 c 128,-1,8
 171 2136 171 2136 204 2204 c 128,-1,9
 237 2272 237 2272 284 2332 c 128,-1,10
 331 2392 331 2392 390 2443 c 128,-1,11
 449 2494 449 2494 518 2535 c 128,-1,12
 587 2576 587 2576 665 2605 c 128,-1,13
 743 2634 743 2634 828 2649 c 128,-1,14
 913 2664 913 2664 1002 2664 c 0,15,16
 1028 2664 1028 2664 1054 2662.5 c 128,-1,17
 1080 2661 1080 2661 1106 2657 c 1,18,19
 1248 2732 1248 2732 1412.5 2773.5 c 128,-1,20
 1577 2815 1577 2815 1756 2815 c 0,21,22
 1933 2815 1933 2815 2098 2773.5 c 128,-1,23
 2263 2732 2263 2732 2406 2657 c 1,24,25
 2431 2661 2431 2661 2457 2662.5 c 128,-1,26
 2483 2664 2483 2664 2509 2664 c 0,27,28
 2599 2664 2599 2664 2683.5 2649 c 128,-1,29
 2768 2634 2768 2634 2845.5 2605 c 128,-1,30
 2923 2576 2923 2576 2992.5 2535 c 128,-1,31
 3062 2494 3062 2494 3121 2443 c 128,-1,32
 3180 2392 3180 2392 3227 2332 c 128,-1,33
 3274 2272 3274 2272 3307 2204 c 128,-1,34
 3340 2136 3340 2136 3357.5 2062.5 c 128,-1,35
 3375 1989 3375 1989 3375 1911 c 0,36,37
 3375 1843 3375 1843 3361.5 1778 c 128,-1,38
 3348 1713 3348 1713 3326 1651 c 1,0,-1
1756 2286 m 1,39,40
 1813 2370 1813 2370 1894 2440 c 128,-1,41
 1975 2510 1975 2510 2075 2560 c 1,42,43
 2003 2584 2003 2584 1922 2596 c 128,-1,44
 1841 2608 1841 2608 1756 2608 c 0,45,46
 1673 2608 1673 2608 1593.5 2596.5 c 128,-1,47
 1514 2585 1514 2585 1441 2562 c 1,48,49
 1538 2511 1538 2511 1617.5 2440.5 c 128,-1,50
 1697 2370 1697 2370 1756 2286 c 1,39,40
3098 1704 m 1,51,52
 3115 1749 3115 1749 3126.5 1802 c 128,-1,53
 3138 1855 3138 1855 3138 1911 c 0,54,55
 3138 2024 3138 2024 3088.5 2124 c 128,-1,56
 3039 2224 3039 2224 2953.5 2298 c 128,-1,57
 2868 2372 2868 2372 2753.5 2415 c 128,-1,58
 2639 2458 2639 2458 2509 2458 c 128,-1,59
 2379 2458 2379 2458 2264.5 2415 c 128,-1,60
 2150 2372 2150 2372 2064.5 2298 c 128,-1,61
 1979 2224 1979 2224 1929.5 2124 c 128,-1,62
 1880 2024 1880 2024 1880 1911 c 128,-1,63
 1880 1798 1880 1798 1929.5 1698.5 c 128,-1,64
 1979 1599 1979 1599 2064 1524.5 c 128,-1,65
 2149 1450 2149 1450 2263 1407 c 128,-1,66
 2377 1364 2377 1364 2506 1365 c 0,67,68
 2530 1365 2530 1365 2551 1357 c 128,-1,69
 2572 1349 2572 1349 2588 1335 c 128,-1,70
 2604 1321 2604 1321 2613 1302.5 c 128,-1,71
 2622 1284 2622 1284 2622 1262 c 1,72,-1
 2622 1262 l 1,73,74
 2622 1241 2622 1241 2613 1222 c 128,-1,75
 2604 1203 2604 1203 2588 1189 c 128,-1,76
 2572 1175 2572 1175 2551 1166.5 c 128,-1,77
 2530 1158 2530 1158 2506 1158 c 0,78,79
 2387 1158 2387 1158 2276.5 1185.5 c 128,-1,80
 2166 1213 2166 1213 2069 1262.5 c 128,-1,81
 1972 1312 1972 1312 1892.5 1382 c 128,-1,82
 1813 1452 1813 1452 1756 1537 c 1,83,84
 1698 1452 1698 1452 1618 1382 c 128,-1,85
 1538 1312 1538 1312 1441.5 1262.5 c 128,-1,86
 1345 1213 1345 1213 1234.5 1185.5 c 128,-1,87
 1124 1158 1124 1158 1005 1158 c 0,88,89
 982 1158 982 1158 961 1166.5 c 128,-1,90
 940 1175 940 1175 924 1189 c 128,-1,91
 908 1203 908 1203 898.5 1222 c 128,-1,92
 889 1241 889 1241 889 1262 c 1,93,-1
 889 1262 l 1,94,95
 889 1284 889 1284 898.5 1302.5 c 128,-1,96
 908 1321 908 1321 924 1335 c 128,-1,97
 940 1349 940 1349 961 1357 c 128,-1,98
 982 1365 982 1365 1005 1365 c 0,99,100
 1134 1364 1134 1364 1248 1407 c 128,-1,101
 1362 1450 1362 1450 1447 1524.5 c 128,-1,102
 1532 1599 1532 1599 1581.5 1698.5 c 128,-1,103
 1631 1798 1631 1798 1631 1911 c 128,-1,104
 1631 2024 1631 2024 1581.5 2124 c 128,-1,105
 1532 2224 1532 2224 1446.5 2298 c 128,-1,106
 1361 2372 1361 2372 1246.5 2415 c 128,-1,107
 1132 2458 1132 2458 1002 2458 c 128,-1,108
 872 2458 872 2458 757.5 2415 c 128,-1,109
 643 2372 643 2372 557 2298 c 128,-1,110
 471 2224 471 2224 421.5 2124 c 128,-1,111
 372 2024 372 2024 372 1911 c 0,112,113
 372 1855 372 1855 385 1801.5 c 128,-1,114
 398 1748 398 1748 422 1700 c 1,115,-1
 938 702 l 1,116,-1
 2573 702 l 1,117,-1
 3098 1704 l 1,51,52
1859 2818 m 1,118,-1
 1653 2818 l 1,119,-1
 1653 3021 l 1,120,-1
 1554 3021 l 2,121,122
 1532 3021 1532 3021 1513.5 3029 c 128,-1,123
 1495 3037 1495 3037 1480.5 3051 c 128,-1,124
 1466 3065 1466 3065 1458 3084 c 128,-1,125
 1450 3103 1450 3103 1450 3124 c 0,126,127
 1450 3146 1450 3146 1458 3165 c 128,-1,128
 1466 3184 1466 3184 1480.5 3198 c 128,-1,129
 1495 3212 1495 3212 1513.5 3220 c 128,-1,130
 1532 3228 1532 3228 1554 3228 c 2,131,-1
 1653 3228 l 1,132,-1
 1653 3328 l 2,133,134
 1653 3350 1653 3350 1661 3368.5 c 128,-1,135
 1669 3387 1669 3387 1683 3401 c 128,-1,136
 1697 3415 1697 3415 1715.5 3423 c 128,-1,137
 1734 3431 1734 3431 1756 3431 c 1,138,-1
 1756 3431 l 1,139,140
 1777 3431 1777 3431 1796 3423 c 128,-1,141
 1815 3415 1815 3415 1829 3401 c 128,-1,142
 1843 3387 1843 3387 1851 3368.5 c 128,-1,143
 1859 3350 1859 3350 1859 3328 c 2,144,-1
 1859 3228 l 1,145,-1
 1961 3228 l 2,146,147
 1982 3228 1982 3228 2001 3220 c 128,-1,148
 2020 3212 2020 3212 2034 3198 c 128,-1,149
 2048 3184 2048 3184 2056.5 3165 c 128,-1,150
 2065 3146 2065 3146 2065 3124 c 0,151,152
 2065 3103 2065 3103 2056.5 3084 c 128,-1,153
 2048 3065 2048 3065 2034.5 3051 c 128,-1,154
 2021 3037 2021 3037 2002 3029 c 128,-1,155
 1983 3021 1983 3021 1961 3021 c 2,156,-1
 1859 3021 l 1,157,-1
 1859 2818 l 1,118,-1
804 342 m 1,158,-1
 2709 342 l 1,159,-1
 2709 0 l 1,160,-1
 804 0 l 1,161,-1
 804 342 l 1,158,-1
EndSplineSet
EndChar
StartChar: L
Encoding: 76 76 36
Width: 3183
GlyphClass: 2
Flags: W
Fore
2016 1976 m 1,0,1
 1995 1987 1995 1987 1976 1993 c 0,2,3
 1911 2015 1911 2015 1857 2048.5 c 128,-1,4
 1803 2082 1803 2082 1764.5 2124 c 128,-1,5
 1726 2166 1726 2166 1704.5 2214.5 c 128,-1,6
 1683 2263 1683 2263 1683 2316 c 0,7,8
 1683 2375 1683 2375 1710 2428.5 c 128,-1,9
 1737 2482 1737 2482 1787 2526 c 1,10,11
 1821 2548 1821 2548 1839.5 2576 c 128,-1,12
 1858 2604 1858 2604 1858 2635 c 0,13,14
 1858 2674 1858 2674 1831.5 2708 c 128,-1,15
 1805 2742 1805 2742 1759.5 2767.5 c 128,-1,16
 1714 2793 1714 2793 1652.5 2807.5 c 128,-1,17
 1591 2822 1591 2822 1522 2822 c 0,18,19
 1452 2822 1452 2822 1391 2807.5 c 128,-1,20
 1330 2793 1330 2793 1284 2767.5 c 128,-1,21
 1238 2742 1238 2742 1211.5 2708 c 128,-1,22
 1185 2674 1185 2674 1185 2635 c 0,23,24
 1185 2604 1185 2604 1203.5 2576 c 128,-1,25
 1222 2548 1222 2548 1256 2526 c 1,26,27
 1307 2482 1307 2482 1333.5 2428.5 c 128,-1,28
 1360 2375 1360 2375 1360 2316 c 0,29,30
 1360 2263 1360 2263 1338.5 2214.5 c 128,-1,31
 1317 2166 1317 2166 1278.5 2124 c 128,-1,32
 1240 2082 1240 2082 1186 2048.5 c 128,-1,33
 1132 2015 1132 2015 1067 1993 c 0,34,35
 909 1937 909 1937 777.5 1846.5 c 128,-1,36
 646 1756 646 1756 551 1640 c 128,-1,37
 456 1524 456 1524 403.5 1386.5 c 128,-1,38
 351 1249 351 1249 351 1099 c 0,39,40
 351 992 351 992 380 892.5 c 128,-1,41
 409 793 409 793 459 702 c 1,42,-1
 1522 702 l 1,43,-1
 2584 702 l 1,44,45
 2635 793 2635 793 2663.5 892.5 c 128,-1,46
 2692 992 2692 992 2692 1099 c 0,47,48
 2692 1210 2692 1210 2662.5 1314.5 c 128,-1,49
 2633 1419 2633 1419 2578.5 1514 c 128,-1,50
 2524 1609 2524 1609 2445.5 1692 c 128,-1,51
 2367 1775 2367 1775 2269 1842 c 1,52,-1
 1792 1172 l 2,53,54
 1776 1149 1776 1149 1752.5 1134.5 c 128,-1,55
 1729 1120 1729 1120 1703 1115.5 c 128,-1,56
 1677 1111 1677 1111 1650 1116.5 c 128,-1,57
 1623 1122 1623 1122 1599 1138 c 1,58,-1
 1599 1139 l 1,59,60
 1576 1155 1576 1155 1561.5 1178.5 c 128,-1,61
 1547 1202 1547 1202 1542.5 1228 c 128,-1,62
 1538 1254 1538 1254 1544 1281 c 128,-1,63
 1550 1308 1550 1308 1566 1331 c 2,64,-1
 2016 1976 l 1,0,1
1522 495 m 1,65,-1
 356 495 l 1,66,67
 320 543 320 543 288.5 591.5 c 128,-1,68
 257 640 257 640 233 695 c 0,69,70
 190 793 190 793 166.5 897 c 128,-1,71
 143 1001 143 1001 143 1109 c 0,72,73
 143 1301 143 1301 214.5 1476 c 128,-1,74
 286 1651 286 1651 413.5 1794.5 c 128,-1,75
 541 1938 541 1938 717 2044.5 c 128,-1,76
 893 2151 893 2151 1102 2206 c 1,77,78
 1129 2227 1129 2227 1144 2253 c 128,-1,79
 1159 2279 1159 2279 1159 2308 c 128,-1,80
 1159 2337 1159 2337 1144 2363.5 c 128,-1,81
 1129 2390 1129 2390 1103 2413 c 0,82,83
 1048 2460 1048 2460 1015.5 2519 c 128,-1,84
 983 2578 983 2578 983 2644 c 0,85,86
 983 2719 983 2719 1025.5 2785.5 c 128,-1,87
 1068 2852 1068 2852 1141 2901.5 c 128,-1,88
 1214 2951 1214 2951 1312 2979.5 c 128,-1,89
 1410 3008 1410 3008 1522 3008 c 0,90,91
 1633 3008 1633 3008 1731 2979.5 c 128,-1,92
 1829 2951 1829 2951 1902.5 2901.5 c 128,-1,93
 1976 2852 1976 2852 2018 2785.5 c 128,-1,94
 2060 2719 2060 2719 2060 2644 c 0,95,96
 2060 2578 2060 2578 2028 2519 c 128,-1,97
 1996 2460 1996 2460 1940 2413 c 0,98,99
 1914 2390 1914 2390 1899 2363.5 c 128,-1,100
 1884 2337 1884 2337 1884 2308 c 128,-1,101
 1884 2279 1884 2279 1899 2253 c 128,-1,102
 1914 2227 1914 2227 1942 2206 c 1,103,104
 2150 2151 2150 2151 2326 2044.5 c 128,-1,105
 2502 1938 2502 1938 2629.5 1794.5 c 128,-1,106
 2757 1651 2757 1651 2829 1476 c 128,-1,107
 2901 1301 2901 1301 2901 1109 c 0,108,109
 2901 1001 2901 1001 2877.5 897 c 128,-1,110
 2854 793 2854 793 2810 695 c 0,111,112
 2786 640 2786 640 2754.5 591.5 c 128,-1,113
 2723 543 2723 543 2687 495 c 1,114,-1
 1522 495 l 1,65,-1
292 342 m 1,115,-1
 2751 342 l 1,116,-1
 2751 0 l 1,117,-1
 292 0 l 1,118,-1
 292 342 l 1,115,-1
EndSplineSet
EndChar
StartChar: M
Encoding: 77 77 37
Width: 3641
GlyphClass: 2
Flags: W
Fore
1162 2423 m 0,0,1
 1198 2423 1198 2423 1229 2411.5 c 128,-1,2
 1260 2400 1260 2400 1283 2381 c 128,-1,3
 1306 2362 1306 2362 1319.5 2335.5 c 128,-1,4
 1333 2309 1333 2309 1333 2280 c 0,5,6
 1333 2250 1333 2250 1319.5 2224 c 128,-1,7
 1306 2198 1306 2198 1283 2178.5 c 128,-1,8
 1260 2159 1260 2159 1229 2148 c 128,-1,9
 1198 2137 1198 2137 1162 2137 c 0,10,11
 1127 2137 1127 2137 1096 2148 c 128,-1,12
 1065 2159 1065 2159 1042 2178.5 c 128,-1,13
 1019 2198 1019 2198 1005.5 2224 c 128,-1,14
 992 2250 992 2250 992 2280 c 0,15,16
 992 2309 992 2309 1005.5 2335.5 c 128,-1,17
 1019 2362 1019 2362 1042 2381 c 128,-1,18
 1065 2400 1065 2400 1096 2411.5 c 128,-1,19
 1127 2423 1127 2423 1162 2423 c 0,0,1
3263 495 m 1,20,-1
 896 495 l 1,21,22
 893 601 893 601 932 692.5 c 128,-1,23
 971 784 971 784 1055 854 c 1,24,25
 1354 1094 1354 1094 1499.5 1252.5 c 128,-1,26
 1645 1411 1645 1411 1639 1486 c 1,27,28
 1566 1462 1566 1462 1503.5 1450.5 c 128,-1,29
 1441 1439 1441 1439 1382 1438 c 128,-1,30
 1323 1437 1323 1437 1264 1445.5 c 128,-1,31
 1205 1454 1205 1454 1140 1470 c 1,32,33
 1091 1372 1091 1372 1045.5 1301 c 128,-1,34
 1000 1230 1000 1230 953 1182 c 128,-1,35
 906 1134 906 1134 854 1106 c 128,-1,36
 802 1078 802 1078 738 1066 c 0,37,38
 717 1062 717 1062 704 1060 c 128,-1,39
 691 1058 691 1058 678.5 1058 c 128,-1,40
 666 1058 666 1058 651 1058.5 c 128,-1,41
 636 1059 636 1059 612 1059 c 1,42,43
 593 1056 593 1056 572 1063 c 128,-1,44
 551 1070 551 1070 528.5 1081 c 128,-1,45
 506 1092 506 1092 484 1103.5 c 128,-1,46
 462 1115 462 1115 441 1123 c 128,-1,47
 420 1131 420 1131 408.5 1142 c 128,-1,48
 397 1153 397 1153 387.5 1168 c 128,-1,49
 378 1183 378 1183 367 1200 c 128,-1,50
 356 1217 356 1217 335 1237 c 0,51,52
 313 1259 313 1259 289.5 1279 c 128,-1,53
 266 1299 266 1299 245 1317 c 128,-1,54
 224 1335 224 1335 206.5 1350.5 c 128,-1,55
 189 1366 189 1366 178 1380 c 0,56,57
 174 1385 174 1385 167 1408.5 c 128,-1,58
 160 1432 160 1432 153 1460 c 128,-1,59
 146 1488 146 1488 141 1512.5 c 128,-1,60
 136 1537 136 1537 136 1544 c 0,61,62
 138 1592 138 1592 149 1629.5 c 128,-1,63
 160 1667 160 1667 182 1705.5 c 128,-1,64
 204 1744 204 1744 238 1789.5 c 128,-1,65
 272 1835 272 1835 322 1900 c 0,66,67
 374 1967 374 1967 414 2019 c 128,-1,68
 454 2071 454 2071 485.5 2114 c 128,-1,69
 517 2157 517 2157 540.5 2196 c 128,-1,70
 564 2235 564 2235 583 2277 c 0,71,72
 595 2304 595 2304 601 2327.5 c 128,-1,73
 607 2351 607 2351 610 2370 c 128,-1,74
 613 2389 613 2389 614.5 2403 c 128,-1,75
 616 2417 616 2417 620 2424 c 0,76,77
 637 2457 637 2457 673 2501.5 c 128,-1,78
 709 2546 709 2546 767 2611 c 1,79,80
 790 2648 790 2648 819.5 2684 c 128,-1,81
 849 2720 849 2720 866 2744 c 0,82,83
 885 2770 885 2770 899.5 2788 c 128,-1,84
 914 2806 914 2806 925 2817.5 c 128,-1,85
 936 2829 936 2829 943.5 2836.5 c 128,-1,86
 951 2844 951 2844 955 2851 c 0,87,88
 964 2865 964 2865 975 2888 c 128,-1,89
 986 2911 986 2911 990 2936 c 0,90,91
 995 2958 995 2958 993.5 2975.5 c 128,-1,92
 992 2993 992 2993 987.5 3008.5 c 128,-1,93
 983 3024 983 3024 976 3039.5 c 128,-1,94
 969 3055 969 3055 962 3072 c 0,95,96
 946 3107 946 3107 937.5 3135 c 128,-1,97
 929 3163 929 3163 920 3183 c 0,98,99
 911 3202 911 3202 904 3231.5 c 128,-1,100
 897 3261 897 3261 891 3286 c 1,101,102
 882 3312 882 3312 879 3336 c 128,-1,103
 876 3360 876 3360 880 3368 c 0,104,105
 889 3385 889 3385 901.5 3395 c 128,-1,106
 914 3405 914 3405 931 3410 c 0,107,108
 948 3414 948 3414 967 3411.5 c 128,-1,109
 986 3409 986 3409 1007 3396 c 1,110,111
 1023 3384 1023 3384 1047.5 3375.5 c 128,-1,112
 1072 3367 1072 3367 1090 3357 c 1,113,114
 1108 3345 1108 3345 1138 3323.5 c 128,-1,115
 1168 3302 1168 3302 1204 3268 c 1,116,117
 1239 3232 1239 3232 1256.5 3211.5 c 128,-1,118
 1274 3191 1274 3191 1289 3179 c 0,119,120
 1305 3167 1305 3167 1323 3156 c 128,-1,121
 1341 3145 1341 3145 1357 3133 c 0,122,123
 1366 3125 1366 3125 1380 3120.5 c 128,-1,124
 1394 3116 1394 3116 1409 3114 c 128,-1,125
 1424 3112 1424 3112 1438.5 3112.5 c 128,-1,126
 1453 3113 1453 3113 1463 3115 c 0,127,128
 1486 3119 1486 3119 1503 3135 c 128,-1,129
 1520 3151 1520 3151 1531 3172 c 0,130,131
 1540 3190 1540 3190 1543.5 3200 c 128,-1,132
 1547 3210 1547 3210 1547.5 3216.5 c 128,-1,133
 1548 3223 1548 3223 1547.5 3227 c 128,-1,134
 1547 3231 1547 3231 1548 3236 c 0,135,136
 1554 3263 1554 3263 1557.5 3283.5 c 128,-1,137
 1561 3304 1561 3304 1566 3336 c 0,138,139
 1572 3369 1572 3369 1587 3383.5 c 128,-1,140
 1602 3398 1602 3398 1614 3408 c 128,-1,141
 1626 3418 1626 3418 1639.5 3424.5 c 128,-1,142
 1653 3431 1653 3431 1664 3430 c 0,143,144
 1686 3428 1686 3428 1710 3394 c 128,-1,145
 1734 3360 1734 3360 1758 3297 c 1,146,147
 1772 3265 1772 3265 1782 3242 c 128,-1,148
 1792 3219 1792 3219 1799 3201 c 128,-1,149
 1806 3183 1806 3183 1812.5 3169.5 c 128,-1,150
 1819 3156 1819 3156 1825 3143 c 0,151,152
 1831 3131 1831 3131 1836.5 3122 c 128,-1,153
 1842 3113 1842 3113 1847.5 3104.5 c 128,-1,154
 1853 3096 1853 3096 1859.5 3086 c 128,-1,155
 1866 3076 1866 3076 1873 3062 c 0,156,157
 1889 3033 1889 3033 1905.5 3010.5 c 128,-1,158
 1922 2988 1922 2988 1935 2979 c 1,159,160
 1948 2967 1948 2967 1963 2958.5 c 128,-1,161
 1978 2950 1978 2950 1995 2948 c 1,162,163
 2011 2944 2011 2944 2028 2940.5 c 128,-1,164
 2045 2937 2045 2937 2056 2936 c 0,165,166
 2092 2933 2092 2933 2121.5 2931 c 128,-1,167
 2151 2929 2151 2929 2170 2927 c 0,168,169
 2178 2927 2178 2927 2196.5 2925.5 c 128,-1,170
 2215 2924 2215 2924 2240 2922 c 1,171,172
 2293 2904 2293 2904 2338 2882.5 c 128,-1,173
 2383 2861 2383 2861 2417 2842 c 0,174,175
 2454 2822 2454 2822 2498 2789 c 128,-1,176
 2542 2756 2542 2756 2593 2713 c 128,-1,177
 2644 2670 2644 2670 2688 2626 c 128,-1,178
 2732 2582 2732 2582 2761 2540 c 1,179,180
 2793 2499 2793 2499 2831 2439 c 128,-1,181
 2869 2379 2869 2379 2912 2303 c 0,182,183
 2954 2227 2954 2227 2988.5 2160.5 c 128,-1,184
 3023 2094 3023 2094 3045 2037 c 0,185,186
 3067 1979 3067 1979 3092.5 1897 c 128,-1,187
 3118 1815 3118 1815 3147 1710 c 0,188,189
 3176 1602 3176 1602 3194.5 1511.5 c 128,-1,190
 3213 1421 3213 1421 3223 1348 c 128,-1,191
 3233 1275 3233 1275 3241 1194.5 c 128,-1,192
 3249 1114 3249 1114 3251 1027 c 0,193,194
 3254 941 3254 941 3258 872 c 128,-1,195
 3262 803 3262 803 3262 759 c 0,196,197
 3262 738 3262 738 3262 703.5 c 128,-1,198
 3262 669 3262 669 3262.5 631 c 128,-1,199
 3263 593 3263 593 3263 556.5 c 128,-1,200
 3263 520 3263 520 3263 495 c 1,20,-1
1384 2908 m 1,201,202
 1366 2920 1366 2920 1352.5 2928 c 128,-1,203
 1339 2936 1339 2936 1327.5 2943 c 128,-1,204
 1316 2950 1316 2950 1305.5 2956.5 c 128,-1,205
 1295 2963 1295 2963 1282 2972 c 0,206,207
 1257 2989 1257 2989 1236 3006.5 c 128,-1,208
 1215 3024 1215 3024 1186 3051 c 1,209,210
 1154 3075 1154 3075 1146 3071 c 128,-1,211
 1138 3067 1138 3067 1143 3033 c 1,212,213
 1155 2988 1155 2988 1160.5 2956 c 128,-1,214
 1166 2924 1166 2924 1166.5 2900.5 c 128,-1,215
 1167 2877 1167 2877 1164 2860 c 128,-1,216
 1161 2843 1161 2843 1158 2829 c 1,217,218
 1147 2808 1147 2808 1138.5 2790 c 128,-1,219
 1130 2772 1130 2772 1119.5 2752 c 128,-1,220
 1109 2732 1109 2732 1092 2708 c 128,-1,221
 1075 2684 1075 2684 1047 2651 c 0,222,223
 1038 2639 1038 2639 1023.5 2625 c 128,-1,224
 1009 2611 1009 2611 993 2593.5 c 128,-1,225
 977 2576 977 2576 961 2555 c 128,-1,226
 945 2534 945 2534 932 2509 c 1,227,228
 894 2465 894 2465 865 2421.5 c 128,-1,229
 836 2378 836 2378 816 2337 c 0,230,231
 807 2317 807 2317 796.5 2298 c 128,-1,232
 786 2279 786 2279 775 2255 c 128,-1,233
 764 2231 764 2231 753 2199.5 c 128,-1,234
 742 2168 742 2168 731 2123 c 0,235,236
 729 2114 729 2114 717.5 2095 c 128,-1,237
 706 2076 706 2076 687 2050.5 c 128,-1,238
 668 2025 668 2025 643 1995.5 c 128,-1,239
 618 1966 618 1966 589 1937 c 0,240,241
 564 1912 564 1912 535.5 1884 c 128,-1,242
 507 1856 507 1856 477.5 1823.5 c 128,-1,243
 448 1791 448 1791 420 1753.5 c 128,-1,244
 392 1716 392 1716 369 1673 c 0,245,246
 356 1649 356 1649 346.5 1632.5 c 128,-1,247
 337 1616 337 1616 332 1602 c 128,-1,248
 327 1588 327 1588 327.5 1573 c 128,-1,249
 328 1558 328 1558 335 1537 c 0,250,251
 348 1497 348 1497 358.5 1475.5 c 128,-1,252
 369 1454 369 1454 383.5 1438.5 c 128,-1,253
 398 1423 398 1423 418 1408 c 128,-1,254
 438 1393 438 1393 470 1366 c 1,255,256
 491 1358 491 1358 510 1339 c 128,-1,257
 529 1320 529 1320 547.5 1301 c 128,-1,258
 566 1282 566 1282 585.5 1267 c 128,-1,259
 605 1252 605 1252 626 1252 c 0,260,261
 661 1252 661 1252 681.5 1252.5 c 128,-1,262
 702 1253 702 1253 716 1255.5 c 128,-1,263
 730 1258 730 1258 742.5 1263.5 c 128,-1,264
 755 1269 755 1269 774 1280 c 0,265,266
 814 1303 814 1303 845.5 1335 c 128,-1,267
 877 1367 877 1367 903 1405.5 c 128,-1,268
 929 1444 929 1444 951 1488 c 128,-1,269
 973 1532 973 1532 994 1580 c 1,270,271
 1013 1604 1013 1604 1030 1627 c 128,-1,272
 1047 1650 1047 1650 1070 1664.5 c 128,-1,273
 1093 1679 1093 1679 1125.5 1681 c 128,-1,274
 1158 1683 1158 1683 1207 1666 c 1,275,276
 1248 1649 1248 1649 1288 1647 c 128,-1,277
 1328 1645 1328 1645 1369 1645 c 0,278,279
 1453 1645 1453 1645 1526.5 1676.5 c 128,-1,280
 1600 1708 1600 1708 1654.5 1761 c 128,-1,281
 1709 1814 1709 1814 1740 1882.5 c 128,-1,282
 1771 1951 1771 1951 1768 2025 c 1,283,-1
 1762 2113 l 1,284,285
 1762 2134 1762 2134 1770 2153 c 128,-1,286
 1778 2172 1778 2172 1792 2186 c 128,-1,287
 1806 2200 1806 2200 1824.5 2208 c 128,-1,288
 1843 2216 1843 2216 1864 2216 c 2,289,-1
 1865 2216 l 2,290,291
 1886 2216 1886 2216 1905 2208 c 128,-1,292
 1924 2200 1924 2200 1938 2186 c 128,-1,293
 1952 2172 1952 2172 1960 2153 c 128,-1,294
 1968 2134 1968 2134 1968 2113 c 1,295,-1
 1974 2029 l 1,296,297
 1976 1919 1976 1919 1936 1817.5 c 128,-1,298
 1896 1716 1896 1716 1831 1637 c 1,299,300
 1847 1549 1847 1549 1846.5 1490.5 c 128,-1,301
 1846 1432 1846 1432 1831.5 1387.5 c 128,-1,302
 1817 1343 1817 1343 1790 1302.5 c 128,-1,303
 1763 1262 1763 1262 1726 1209 c 0,304,305
 1686 1149 1686 1149 1635 1093.5 c 128,-1,306
 1584 1038 1584 1038 1517.5 978.5 c 128,-1,307
 1451 919 1451 919 1367 851.5 c 128,-1,308
 1283 784 1283 784 1175 702 c 1,309,-1
 3059 702 l 1,310,311
 3062 752 3062 752 3064.5 810 c 128,-1,312
 3067 868 3067 868 3065 934 c 0,313,314
 3061 1104 3061 1104 3041.5 1252.5 c 128,-1,315
 3022 1401 3022 1401 2993 1525 c 0,316,317
 2963 1649 2963 1649 2936.5 1744.5 c 128,-1,318
 2910 1840 2910 1840 2888 1900 c 1,319,320
 2867 1963 2867 1963 2837.5 2025.5 c 128,-1,321
 2808 2088 2808 2088 2775 2146 c 0,322,323
 2740 2208 2740 2208 2707 2265 c 128,-1,324
 2674 2322 2674 2322 2646 2372 c 1,325,326
 2614 2419 2614 2419 2579.5 2450.5 c 128,-1,327
 2545 2482 2545 2482 2518 2507 c 0,328,329
 2483 2540 2483 2540 2445.5 2574.5 c 128,-1,330
 2408 2609 2408 2609 2378 2633 c 0,331,332
 2359 2649 2359 2649 2344.5 2659.5 c 128,-1,333
 2330 2670 2330 2670 2316.5 2677.5 c 128,-1,334
 2303 2685 2303 2685 2290 2691.5 c 128,-1,335
 2277 2698 2277 2698 2261 2705 c 0,336,337
 2250 2710 2250 2710 2231 2713 c 128,-1,338
 2212 2716 2212 2716 2192 2718 c 128,-1,339
 2172 2720 2172 2720 2153 2721.5 c 128,-1,340
 2134 2723 2134 2723 2121 2723 c 0,341,342
 2096 2723 2096 2723 2073 2724.5 c 128,-1,343
 2050 2726 2050 2726 2018 2729 c 0,344,345
 2007 2730 2007 2730 1986 2731.5 c 128,-1,346
 1965 2733 1965 2733 1941 2739 c 0,347,348
 1921 2745 1921 2745 1902 2752.5 c 128,-1,349
 1883 2760 1883 2760 1875 2761 c 0,350,351
 1864 2762 1864 2762 1847.5 2778 c 128,-1,352
 1831 2794 1831 2794 1817 2807 c 0,353,354
 1803 2819 1803 2819 1793 2835.5 c 128,-1,355
 1783 2852 1783 2852 1774 2871 c 0,356,357
 1763 2893 1763 2893 1755 2914 c 128,-1,358
 1747 2935 1747 2935 1733 2958 c 0,359,360
 1717 2984 1717 2984 1706 3000 c 128,-1,361
 1695 3016 1695 3016 1676 3029 c 0,362,363
 1672 3032 1672 3032 1664.5 3028.5 c 128,-1,364
 1657 3025 1657 3025 1647.5 3017.5 c 128,-1,365
 1638 3010 1638 3010 1628 2999.5 c 128,-1,366
 1618 2989 1618 2989 1609 2978 c 0,367,368
 1595 2962 1595 2962 1586.5 2952.5 c 128,-1,369
 1578 2943 1578 2943 1570 2936.5 c 128,-1,370
 1562 2930 1562 2930 1552.5 2925 c 128,-1,371
 1543 2920 1543 2920 1527 2911 c 0,372,373
 1510 2903 1510 2903 1495.5 2899 c 128,-1,374
 1481 2895 1481 2895 1465.5 2895.5 c 128,-1,375
 1450 2896 1450 2896 1430.5 2899.5 c 128,-1,376
 1411 2903 1411 2903 1384 2908 c 1,201,202
896 342 m 1,377,-1
 3263 342 l 1,378,-1
 3263 0 l 1,379,-1
 896 0 l 1,380,-1
 896 342 l 1,377,-1
EndSplineSet
EndChar
StartChar: O
Encoding: 79 79 38
Width: 3183
GlyphClass: 2
Flags: W
Fore
192 1303 m 1,0,-1
 192 1409 l 2,1,2
 192 1645 192 1645 229.5 1852.5 c 128,-1,3
 267 2060 267 2060 340 2238 c 1,4,5
 415 2415 415 2415 532 2555 c 128,-1,6
 649 2695 649 2695 808 2796 c 0,7,8
 968 2896 968 2896 1171 2949 c 128,-1,9
 1374 3002 1374 3002 1618 3006 c 1,10,11
 1753 3006 1753 3006 1883.5 2984 c 128,-1,12
 2014 2962 2014 2962 2137 2918 c 0,13,14
 2385 2830 2385 2830 2581 2642 c 0,15,16
 2680 2547 2680 2547 2758 2424 c 128,-1,17
 2836 2301 2836 2301 2893 2150 c 128,-1,18
 2950 1999 2950 1999 2979 1820.5 c 128,-1,19
 3008 1642 3008 1642 3008 1438 c 0,20,21
 3008 1258 3008 1258 2983 1097 c 128,-1,22
 2958 936 2958 936 2908 793 c 0,23,24
 2858 651 2858 651 2785.5 529.5 c 128,-1,25
 2713 408 2713 408 2620 308 c 0,26,27
 2527 209 2527 209 2415 133 c 128,-1,28
 2303 57 2303 57 2173 6 c 0,29,30
 2043 -44 2043 -44 1899 -70 c 128,-1,31
 1755 -96 1755 -96 1598 -96 c 0,32,33
 1174 -96 1174 -96 861 88 c 0,34,35
 705 181 705 181 584 307 c 128,-1,36
 463 433 463 433 379 591 c 0,37,38
 295 751 295 751 247.5 929 c 128,-1,39
 200 1107 200 1107 192 1303 c 1,0,-1
800 1534 m 1,40,41
 800 1292 800 1292 847.5 1092.5 c 128,-1,42
 895 893 895 893 989 736 c 0,43,44
 1178 421 1178 421 1601 415 c 1,45,46
 1882 415 1882 415 2062 568 c 0,47,48
 2243 721 2243 721 2321 949 c 0,49,50
 2360 1062 2360 1062 2380 1176.5 c 128,-1,51
 2400 1291 2400 1291 2400 1405 c 0,52,53
 2400 1808 2400 1808 2244 2149 c 128,-1,54
 2088 2490 2088 2490 1585 2494 c 1,55,56
 1405 2494 1405 2494 1233 2403 c 1,57,58
 1147 2356 1147 2356 1073 2279 c 128,-1,59
 999 2202 999 2202 938 2093 c 0,60,61
 877 1986 877 1986 842.5 1845.5 c 128,-1,62
 808 1705 808 1705 800 1534 c 1,40,41
EndSplineSet
EndChar
StartChar: P
Encoding: 80 80 39
Width: 2503
GlyphClass: 2
Flags: W
Fore
340 495 m 1,0,1
 239 637 239 637 187.5 806.5 c 128,-1,2
 136 976 136 976 136 1162 c 0,3,4
 136 1345 136 1345 190 1512 c 128,-1,5
 244 1679 244 1679 342 1819.5 c 128,-1,6
 440 1960 440 1960 575 2067.5 c 128,-1,7
 710 2175 710 2175 872 2239 c 1,8,9
 814 2285 814 2285 780.5 2341 c 128,-1,10
 747 2397 747 2397 747 2458 c 0,11,12
 747 2529 747 2529 790.5 2591.5 c 128,-1,13
 834 2654 834 2654 909.5 2700.5 c 128,-1,14
 985 2747 985 2747 1086 2774 c 128,-1,15
 1187 2801 1187 2801 1301 2801 c 0,16,17
 1416 2801 1416 2801 1517 2774 c 128,-1,18
 1618 2747 1618 2747 1693 2700.5 c 128,-1,19
 1768 2654 1768 2654 1812 2591.5 c 128,-1,20
 1856 2529 1856 2529 1856 2458 c 0,21,22
 1856 2394 1856 2394 1819.5 2337 c 128,-1,23
 1783 2280 1783 2280 1720 2236 c 1,24,25
 1880 2172 1880 2172 2014 2064.5 c 128,-1,26
 2148 1957 2148 1957 2244.5 1817.5 c 128,-1,27
 2341 1678 2341 1678 2395 1511 c 128,-1,28
 2449 1344 2449 1344 2449 1162 c 0,29,30
 2449 976 2449 976 2397.5 806.5 c 128,-1,31
 2346 637 2346 637 2245 495 c 1,32,-1
 340 495 l 1,0,1
461 702 m 1,33,-1
 2131 702 l 1,34,35
 2187 804 2187 804 2218 921 c 128,-1,36
 2249 1038 2249 1038 2249 1162 c 0,37,38
 2249 1319 2249 1319 2200.5 1462.5 c 128,-1,39
 2152 1606 2152 1606 2065.5 1725 c 128,-1,40
 1979 1844 1979 1844 1859.5 1932.5 c 128,-1,41
 1740 2021 1740 2021 1599 2071 c 1,42,43
 1527 2082 1527 2082 1477 2114.5 c 128,-1,44
 1427 2147 1427 2147 1418 2195 c 0,45,46
 1414 2221 1414 2221 1422.5 2247 c 128,-1,47
 1431 2273 1431 2273 1451 2297 c 128,-1,48
 1471 2321 1471 2321 1501 2342.5 c 128,-1,49
 1531 2364 1531 2364 1569 2381 c 1,50,51
 1633 2415 1633 2415 1633 2462 c 0,52,53
 1633 2492 1633 2492 1606 2518.5 c 128,-1,54
 1579 2545 1579 2545 1532.5 2565 c 128,-1,55
 1486 2585 1486 2585 1423.5 2596.5 c 128,-1,56
 1361 2608 1361 2608 1290 2608 c 128,-1,57
 1219 2608 1219 2608 1156.5 2596.5 c 128,-1,58
 1094 2585 1094 2585 1047.5 2565 c 128,-1,59
 1001 2545 1001 2545 974 2518.5 c 128,-1,60
 947 2492 947 2492 947 2462 c 0,61,62
 947 2435 947 2435 968.5 2411.5 c 128,-1,63
 990 2388 990 2388 1028 2367 c 0,64,65
 1089 2333 1089 2333 1121.5 2287 c 128,-1,66
 1154 2241 1154 2241 1146 2195 c 0,67,68
 1138 2152 1138 2152 1095.5 2120.5 c 128,-1,69
 1053 2089 1053 2089 988 2073 c 1,70,71
 846 2023 846 2023 726 1933.5 c 128,-1,72
 606 1844 606 1844 519.5 1725 c 128,-1,73
 433 1606 433 1606 384 1462.5 c 128,-1,74
 335 1319 335 1319 335 1162 c 0,75,76
 335 1035 335 1035 369 919 c 128,-1,77
 403 803 403 803 461 702 c 1,33,-1
342 342 m 1,78,-1
 2247 342 l 1,79,-1
 2247 0 l 1,80,-1
 342 0 l 1,81,-1
 342 342 l 1,78,-1
EndSplineSet
EndChar
StartChar: Q
Encoding: 81 81 40
Width: 3736
GlyphClass: 2
Flags: W
Fore
1045 1875 m 1,0,1
 1070 1864 1070 1864 1096.5 1857 c 128,-1,2
 1123 1850 1123 1850 1151 1850 c 0,3,4
 1201 1850 1201 1850 1244 1872 c 128,-1,5
 1287 1894 1287 1894 1318 1930 c 1,6,-1
 1095 2215 l 1,7,-1
 1045 1875 l 1,0,1
2750 2027 m 1,8,-1
 3296 2485 l 1,9,10
 3345 2530 3345 2530 3384 2549.5 c 128,-1,11
 3423 2569 3423 2569 3442 2556 c 0,12,13
 3460 2544 3460 2544 3457.5 2504.5 c 128,-1,14
 3455 2465 3455 2465 3439 2407 c 1,15,-1
 2753 495 l 1,16,-1
 853 495 l 1,17,-1
 167 2405 l 1,18,19
 148 2465 148 2465 145 2504.5 c 128,-1,20
 142 2544 142 2544 159 2556 c 0,21,22
 178 2569 178 2569 217 2550 c 128,-1,23
 256 2531 256 2531 307 2486 c 1,24,-1
 860 2023 l 1,25,-1
 929 2532 l 1,26,27
 932 2576 932 2576 944 2605.5 c 128,-1,28
 956 2635 956 2635 977 2641 c 0,29,30
 998 2646 998 2646 1024.5 2628 c 128,-1,31
 1051 2610 1051 2610 1078 2571 c 1,32,-1
 1420 2137 l 1,33,-1
 1732 2807 l 1,34,35
 1749 2842 1749 2842 1767 2861.5 c 128,-1,36
 1785 2881 1785 2881 1804 2881 c 0,37,38
 1824 2881 1824 2881 1842 2861 c 128,-1,39
 1860 2841 1860 2841 1877 2803 c 1,40,-1
 2191 2141 l 1,41,-1
 2528 2571 l 1,42,43
 2556 2610 2556 2610 2582 2628 c 128,-1,44
 2608 2646 2608 2646 2629 2641 c 0,45,46
 2650 2635 2650 2635 2662.5 2605.5 c 128,-1,47
 2675 2576 2675 2576 2678 2532 c 1,48,-1
 2750 2027 l 1,8,-1
2291 1937 m 1,49,50
 2321 1897 2321 1897 2365.5 1873.5 c 128,-1,51
 2410 1850 2410 1850 2462 1850 c 0,52,53
 2488 1850 2488 1850 2512.5 1856 c 128,-1,54
 2537 1862 2537 1862 2560 1873 c 1,55,-1
 2511 2215 l 1,56,-1
 2291 1937 l 1,49,50
1798 1652 m 0,57,58
 1831 1652 1831 1652 1861 1624.5 c 128,-1,59
 1891 1597 1891 1597 1913 1550.5 c 128,-1,60
 1935 1504 1935 1504 1948 1442 c 128,-1,61
 1961 1380 1961 1380 1961 1309 c 128,-1,62
 1961 1238 1961 1238 1948 1175.5 c 128,-1,63
 1935 1113 1935 1113 1913 1066.5 c 128,-1,64
 1891 1020 1891 1020 1861 993 c 128,-1,65
 1831 966 1831 966 1798 966 c 0,66,67
 1764 966 1764 966 1734.5 993 c 128,-1,68
 1705 1020 1705 1020 1682.5 1066.5 c 128,-1,69
 1660 1113 1660 1113 1647 1175.5 c 128,-1,70
 1634 1238 1634 1238 1634 1309 c 128,-1,71
 1634 1380 1634 1380 1647 1442 c 128,-1,72
 1660 1504 1660 1504 1682.5 1550.5 c 128,-1,73
 1705 1597 1705 1597 1734.5 1624.5 c 128,-1,74
 1764 1652 1764 1652 1798 1652 c 0,57,58
884 1742 m 1,75,-1
 511 2046 l 1,76,-1
 1000 702 l 1,77,-1
 2606 702 l 1,78,-1
 3096 2046 l 1,79,-1
 2725 1742 l 1,80,81
 2668 1700 2668 1700 2601.5 1675.5 c 128,-1,82
 2535 1651 2535 1651 2462 1651 c 0,83,84
 2401 1651 2401 1651 2345.5 1668 c 128,-1,85
 2290 1685 2290 1685 2242.5 1715.5 c 128,-1,86
 2195 1746 2195 1746 2155.5 1788.5 c 128,-1,87
 2116 1831 2116 1831 2089 1882 c 1,88,-1
 1803 2481 l 1,89,-1
 1521 1883 l 1,90,91
 1495 1831 1495 1831 1456.5 1788.5 c 128,-1,92
 1418 1746 1418 1746 1370 1715.5 c 128,-1,93
 1322 1685 1322 1685 1266.5 1668 c 128,-1,94
 1211 1651 1211 1651 1151 1651 c 0,95,96
 1078 1651 1078 1651 1011 1675.5 c 128,-1,97
 944 1700 944 1700 884 1742 c 1,75,-1
854 342 m 1,98,-1
 2759 342 l 1,99,-1
 2759 0 l 1,100,-1
 854 0 l 1,101,-1
 854 342 l 1,98,-1
EndSplineSet
EndChar
StartChar: R
Encoding: 82 82 41
Width: 2961
GlyphClass: 2
Flags: W
Fore
1708 702 m 1,0,-1
 2389 702 l 1,1,-1
 2389 1145 l 1,2,3
 2304 1310 2304 1310 2238.5 1470 c 128,-1,4
 2173 1630 2173 1630 2129.5 1794.5 c 128,-1,5
 2086 1959 2086 1959 2065 2134 c 128,-1,6
 2044 2309 2044 2309 2048 2505 c 1,7,-1
 2048 2708 l 1,8,-1
 2389 2708 l 1,9,-1
 2389 3158 l 1,10,-1
 2183 3158 l 1,11,-1
 2183 2951 l 1,12,-1
 548 2951 l 1,13,-1
 548 3158 l 1,14,-1
 342 3158 l 1,15,-1
 342 2708 l 1,16,-1
 683 2708 l 1,17,-1
 683 2505 l 1,18,19
 686 2309 686 2309 665 2134 c 128,-1,20
 644 1959 644 1959 600.5 1794.5 c 128,-1,21
 557 1630 557 1630 492 1470 c 128,-1,22
 427 1310 427 1310 342 1145 c 1,23,-1
 342 702 l 1,24,-1
 1024 702 l 1,25,-1
 1024 1445 l 2,26,27
 1024 1515 1024 1515 1051 1577 c 128,-1,28
 1078 1639 1078 1639 1124.5 1685.5 c 128,-1,29
 1171 1732 1171 1732 1233 1759 c 128,-1,30
 1295 1786 1295 1786 1365 1786 c 0,31,32
 1436 1786 1436 1786 1498 1759 c 128,-1,33
 1560 1732 1560 1732 1606.5 1685.5 c 128,-1,34
 1653 1639 1653 1639 1679.5 1577 c 128,-1,35
 1706 1515 1706 1515 1706 1445 c 1,36,-1
 1708 702 l 1,0,-1
2190 3357 m 1,37,-1
 2460 3358 l 2,38,39
 2487 3358 2487 3358 2511.5 3347 c 128,-1,40
 2536 3336 2536 3336 2554.5 3317.5 c 128,-1,41
 2573 3299 2573 3299 2584 3274.5 c 128,-1,42
 2595 3250 2595 3250 2595 3222 c 2,43,-1
 2595 2640 l 2,44,45
 2595 2613 2595 2613 2584.5 2588 c 128,-1,46
 2574 2563 2574 2563 2555.5 2544.5 c 128,-1,47
 2537 2526 2537 2526 2512.5 2515.5 c 128,-1,48
 2488 2505 2488 2505 2460 2505 c 2,49,-1
 2254 2505 l 1,50,51
 2252 2313 2252 2313 2273 2141.5 c 128,-1,52
 2294 1970 2294 1970 2337 1808.5 c 128,-1,53
 2380 1647 2380 1647 2445 1490.5 c 128,-1,54
 2510 1334 2510 1334 2595 1173 c 1,55,-1
 2595 495 l 1,56,-1
 1365 495 l 1,57,-1
 136 495 l 1,58,-1
 136 1173 l 1,59,60
 221 1334 221 1334 285.5 1490.5 c 128,-1,61
 350 1647 350 1647 393.5 1808.5 c 128,-1,62
 437 1970 437 1970 458 2141.5 c 128,-1,63
 479 2313 479 2313 477 2505 c 1,64,-1
 274 2505 l 2,65,66
 247 2505 247 2505 221.5 2515.5 c 128,-1,67
 196 2526 196 2526 177 2544.5 c 128,-1,68
 158 2563 158 2563 147 2587.5 c 128,-1,69
 136 2612 136 2612 136 2640 c 2,70,-1
 136 3223 l 2,71,72
 136 3251 136 3251 146.5 3275.5 c 128,-1,73
 157 3300 157 3300 175.5 3318.5 c 128,-1,74
 194 3337 194 3337 218.5 3347.5 c 128,-1,75
 243 3358 243 3358 271 3358 c 2,76,-1
 555 3358 l 1,77,-1
 754 3358 l 1,78,-1
 754 3158 l 1,79,-1
 1159 3158 l 1,80,-1
 1159 3358 l 1,81,-1
 1572 3358 l 1,82,-1
 1572 3158 l 1,83,-1
 1977 3158 l 1,84,-1
 1977 3358 l 1,85,-1
 2190 3357 l 1,37,-1
136 342 m 1,86,-1
 2595 342 l 1,87,-1
 2595 0 l 1,88,-1
 136 0 l 1,89,-1
 136 342 l 1,86,-1
EndSplineSet
EndChar
StartChar: S
Encoding: 83 83 42
Width: 3641
GlyphClass: 2
Flags: W
Fore
1162 2423 m 0,0,1
 1198 2423 1198 2423 1229 2411.5 c 128,-1,2
 1260 2400 1260 2400 1283 2381 c 128,-1,3
 1306 2362 1306 2362 1319.5 2335.5 c 128,-1,4
 1333 2309 1333 2309 1333 2280 c 0,5,6
 1333 2250 1333 2250 1319.5 2224 c 128,-1,7
 1306 2198 1306 2198 1283 2178.5 c 128,-1,8
 1260 2159 1260 2159 1229 2148 c 128,-1,9
 1198 2137 1198 2137 1162 2137 c 0,10,11
 1127 2137 1127 2137 1096 2148 c 128,-1,12
 1065 2159 1065 2159 1042 2178.5 c 128,-1,13
 1019 2198 1019 2198 1005.5 2224 c 128,-1,14
 992 2250 992 2250 992 2280 c 0,15,16
 992 2309 992 2309 1005.5 2335.5 c 128,-1,17
 1019 2362 1019 2362 1042 2381 c 128,-1,18
 1065 2400 1065 2400 1096 2411.5 c 128,-1,19
 1127 2423 1127 2423 1162 2423 c 0,0,1
3263 495 m 1,20,-1
 896 495 l 1,21,22
 893 601 893 601 932 692.5 c 128,-1,23
 971 784 971 784 1055 854 c 1,24,25
 1354 1094 1354 1094 1499.5 1252.5 c 128,-1,26
 1645 1411 1645 1411 1639 1486 c 1,27,28
 1566 1462 1566 1462 1503.5 1450.5 c 128,-1,29
 1441 1439 1441 1439 1382 1438 c 128,-1,30
 1323 1437 1323 1437 1264 1445.5 c 128,-1,31
 1205 1454 1205 1454 1140 1470 c 1,32,33
 1091 1372 1091 1372 1045.5 1301 c 128,-1,34
 1000 1230 1000 1230 953 1182 c 128,-1,35
 906 1134 906 1134 854 1106 c 128,-1,36
 802 1078 802 1078 738 1066 c 0,37,38
 717 1062 717 1062 704 1060 c 128,-1,39
 691 1058 691 1058 678.5 1058 c 128,-1,40
 666 1058 666 1058 651 1058.5 c 128,-1,41
 636 1059 636 1059 612 1059 c 1,42,43
 593 1056 593 1056 572 1063 c 128,-1,44
 551 1070 551 1070 528.5 1081 c 128,-1,45
 506 1092 506 1092 484 1103.5 c 128,-1,46
 462 1115 462 1115 441 1123 c 128,-1,47
 420 1131 420 1131 408.5 1142 c 128,-1,48
 397 1153 397 1153 387.5 1168 c 128,-1,49
 378 1183 378 1183 367 1200 c 128,-1,50
 356 1217 356 1217 335 1237 c 0,51,52
 313 1259 313 1259 289.5 1279 c 128,-1,53
 266 1299 266 1299 245 1317 c 128,-1,54
 224 1335 224 1335 206.5 1350.5 c 128,-1,55
 189 1366 189 1366 178 1380 c 0,56,57
 174 1385 174 1385 167 1408.5 c 128,-1,58
 160 1432 160 1432 153 1460 c 128,-1,59
 146 1488 146 1488 141 1512.5 c 128,-1,60
 136 1537 136 1537 136 1544 c 0,61,62
 138 1592 138 1592 149 1629.5 c 128,-1,63
 160 1667 160 1667 182 1705.5 c 128,-1,64
 204 1744 204 1744 238 1789.5 c 128,-1,65
 272 1835 272 1835 322 1900 c 0,66,67
 374 1967 374 1967 414 2019 c 128,-1,68
 454 2071 454 2071 485.5 2114 c 128,-1,69
 517 2157 517 2157 540.5 2196 c 128,-1,70
 564 2235 564 2235 583 2277 c 0,71,72
 595 2304 595 2304 601 2327.5 c 128,-1,73
 607 2351 607 2351 610 2370 c 128,-1,74
 613 2389 613 2389 614.5 2403 c 128,-1,75
 616 2417 616 2417 620 2424 c 0,76,77
 637 2457 637 2457 673 2501.5 c 128,-1,78
 709 2546 709 2546 767 2611 c 1,79,80
 790 2648 790 2648 819.5 2684 c 128,-1,81
 849 2720 849 2720 866 2744 c 0,82,83
 885 2770 885 2770 899.5 2788 c 128,-1,84
 914 2806 914 2806 925 2817.5 c 128,-1,85
 936 2829 936 2829 943.5 2836.5 c 128,-1,86
 951 2844 951 2844 955 2851 c 0,87,88
 964 2865 964 2865 975 2888 c 128,-1,89
 986 2911 986 2911 990 2936 c 0,90,91
 995 2958 995 2958 993.5 2975.5 c 128,-1,92
 992 2993 992 2993 987.5 3008.5 c 128,-1,93
 983 3024 983 3024 976 3039.5 c 128,-1,94
 969 3055 969 3055 962 3072 c 0,95,96
 946 3107 946 3107 937.5 3135 c 128,-1,97
 929 3163 929 3163 920 3183 c 0,98,99
 911 3202 911 3202 904 3231.5 c 128,-1,100
 897 3261 897 3261 891 3286 c 1,101,102
 882 3312 882 3312 879 3336 c 128,-1,103
 876 3360 876 3360 880 3368 c 0,104,105
 889 3385 889 3385 901.5 3395 c 128,-1,106
 914 3405 914 3405 931 3410 c 0,107,108
 948 3414 948 3414 967 3411.5 c 128,-1,109
 986 3409 986 3409 1007 3396 c 1,110,111
 1023 3384 1023 3384 1047.5 3375.5 c 128,-1,112
 1072 3367 1072 3367 1090 3357 c 1,113,114
 1108 3345 1108 3345 1138 3323.5 c 128,-1,115
 1168 3302 1168 3302 1204 3268 c 1,116,117
 1239 3232 1239 3232 1256.5 3211.5 c 128,-1,118
 1274 3191 1274 3191 1289 3179 c 0,119,120
 1305 3167 1305 3167 1323 3156 c 128,-1,121
 1341 3145 1341 3145 1357 3133 c 0,122,123
 1366 3125 1366 3125 1380 3120.5 c 128,-1,124
 1394 3116 1394 3116 1409 3114 c 128,-1,125
 1424 3112 1424 3112 1438.5 3112.5 c 128,-1,126
 1453 3113 1453 3113 1463 3115 c 0,127,128
 1486 3119 1486 3119 1503 3135 c 128,-1,129
 1520 3151 1520 3151 1531 3172 c 0,130,131
 1540 3190 1540 3190 1543.5 3200 c 128,-1,132
 1547 3210 1547 3210 1547.5 3216.5 c 128,-1,133
 1548 3223 1548 3223 1547.5 3227 c 128,-1,134
 1547 3231 1547 3231 1548 3236 c 0,135,136
 1554 3263 1554 3263 1557.5 3283.5 c 128,-1,137
 1561 3304 1561 3304 1566 3336 c 0,138,139
 1572 3369 1572 3369 1587 3383.5 c 128,-1,140
 1602 3398 1602 3398 1614 3408 c 128,-1,141
 1626 3418 1626 3418 1639.5 3424.5 c 128,-1,142
 1653 3431 1653 3431 1664 3430 c 0,143,144
 1686 3428 1686 3428 1710 3394 c 128,-1,145
 1734 3360 1734 3360 1758 3297 c 1,146,147
 1772 3265 1772 3265 1782 3242 c 128,-1,148
 1792 3219 1792 3219 1799 3201 c 128,-1,149
 1806 3183 1806 3183 1812.5 3169.5 c 128,-1,150
 1819 3156 1819 3156 1825 3143 c 0,151,152
 1831 3131 1831 3131 1836.5 3122 c 128,-1,153
 1842 3113 1842 3113 1847.5 3104.5 c 128,-1,154
 1853 3096 1853 3096 1859.5 3086 c 128,-1,155
 1866 3076 1866 3076 1873 3062 c 0,156,157
 1889 3033 1889 3033 1905.5 3010.5 c 128,-1,158
 1922 2988 1922 2988 1935 2979 c 1,159,160
 1948 2967 1948 2967 1963 2958.5 c 128,-1,161
 1978 2950 1978 2950 1995 2948 c 1,162,163
 2011 2944 2011 2944 2028 2940.5 c 128,-1,164
 2045 2937 2045 2937 2056 2936 c 0,165,166
 2092 2933 2092 2933 2121.5 2931 c 128,-1,167
 2151 2929 2151 2929 2170 2927 c 0,168,169
 2178 2927 2178 2927 2196.5 2925.5 c 128,-1,170
 2215 2924 2215 2924 2240 2922 c 1,171,172
 2293 2904 2293 2904 2338 2882.5 c 128,-1,173
 2383 2861 2383 2861 2417 2842 c 0,174,175
 2454 2822 2454 2822 2498 2789 c 128,-1,176
 2542 2756 2542 2756 2593 2713 c 128,-1,177
 2644 2670 2644 2670 2688 2626 c 128,-1,178
 2732 2582 2732 2582 2761 2540 c 1,179,180
 2793 2499 2793 2499 2831 2439 c 128,-1,181
 2869 2379 2869 2379 2912 2303 c 0,182,183
 2954 2227 2954 2227 2988.5 2160.5 c 128,-1,184
 3023 2094 3023 2094 3045 2037 c 0,185,186
 3067 1979 3067 1979 3092.5 1897 c 128,-1,187
 3118 1815 3118 1815 3147 1710 c 0,188,189
 3176 1602 3176 1602 3194.5 1511.5 c 128,-1,190
 3213 1421 3213 1421 3223 1348 c 128,-1,191
 3233 1275 3233 1275 3241 1194.5 c 128,-1,192
 3249 1114 3249 1114 3251 1027 c 0,193,194
 3254 941 3254 941 3258 872 c 128,-1,195
 3262 803 3262 803 3262 759 c 0,196,197
 3262 738 3262 738 3262 703.5 c 128,-1,198
 3262 669 3262 669 3262.5 631 c 128,-1,199
 3263 593 3263 593 3263 556.5 c 128,-1,200
 3263 520 3263 520 3263 495 c 1,20,-1
1384 2908 m 1,201,202
 1366 2920 1366 2920 1352.5 2928 c 128,-1,203
 1339 2936 1339 2936 1327.5 2943 c 128,-1,204
 1316 2950 1316 2950 1305.5 2956.5 c 128,-1,205
 1295 2963 1295 2963 1282 2972 c 0,206,207
 1257 2989 1257 2989 1236 3006.5 c 128,-1,208
 1215 3024 1215 3024 1186 3051 c 1,209,210
 1154 3075 1154 3075 1146 3071 c 128,-1,211
 1138 3067 1138 3067 1143 3033 c 1,212,213
 1155 2988 1155 2988 1160.5 2956 c 128,-1,214
 1166 2924 1166 2924 1166.5 2900.5 c 128,-1,215
 1167 2877 1167 2877 1164 2860 c 128,-1,216
 1161 2843 1161 2843 1158 2829 c 1,217,218
 1147 2808 1147 2808 1138.5 2790 c 128,-1,219
 1130 2772 1130 2772 1119.5 2752 c 128,-1,220
 1109 2732 1109 2732 1092 2708 c 128,-1,221
 1075 2684 1075 2684 1047 2651 c 0,222,223
 1038 2639 1038 2639 1023.5 2625 c 128,-1,224
 1009 2611 1009 2611 993 2593.5 c 128,-1,225
 977 2576 977 2576 961 2555 c 128,-1,226
 945 2534 945 2534 932 2509 c 1,227,228
 894 2465 894 2465 865 2421.5 c 128,-1,229
 836 2378 836 2378 816 2337 c 0,230,231
 807 2317 807 2317 796.5 2298 c 128,-1,232
 786 2279 786 2279 775 2255 c 128,-1,233
 764 2231 764 2231 753 2199.5 c 128,-1,234
 742 2168 742 2168 731 2123 c 0,235,236
 729 2114 729 2114 717.5 2095 c 128,-1,237
 706 2076 706 2076 687 2050.5 c 128,-1,238
 668 2025 668 2025 643 1995.5 c 128,-1,239
 618 1966 618 1966 589 1937 c 0,240,241
 564 1912 564 1912 535.5 1884 c 128,-1,242
 507 1856 507 1856 477.5 1823.5 c 128,-1,243
 448 1791 448 1791 420 1753.5 c 128,-1,244
 392 1716 392 1716 369 1673 c 0,245,246
 356 1649 356 1649 346.5 1632.5 c 128,-1,247
 337 1616 337 1616 332 1602 c 128,-1,248
 327 1588 327 1588 327.5 1573 c 128,-1,249
 328 1558 328 1558 335 1537 c 0,250,251
 348 1497 348 1497 358.5 1475.5 c 128,-1,252
 369 1454 369 1454 383.5 1438.5 c 128,-1,253
 398 1423 398 1423 418 1408 c 128,-1,254
 438 1393 438 1393 470 1366 c 1,255,256
 491 1358 491 1358 510 1339 c 128,-1,257
 529 1320 529 1320 547.5 1301 c 128,-1,258
 566 1282 566 1282 585.5 1267 c 128,-1,259
 605 1252 605 1252 626 1252 c 0,260,261
 661 1252 661 1252 681.5 1252.5 c 128,-1,262
 702 1253 702 1253 716 1255.5 c 128,-1,263
 730 1258 730 1258 742.5 1263.5 c 128,-1,264
 755 1269 755 1269 774 1280 c 0,265,266
 814 1303 814 1303 845.5 1335 c 128,-1,267
 877 1367 877 1367 903 1405.5 c 128,-1,268
 929 1444 929 1444 951 1488 c 128,-1,269
 973 1532 973 1532 994 1580 c 1,270,271
 1013 1604 1013 1604 1030 1627 c 128,-1,272
 1047 1650 1047 1650 1070 1664.5 c 128,-1,273
 1093 1679 1093 1679 1125.5 1681 c 128,-1,274
 1158 1683 1158 1683 1207 1666 c 1,275,276
 1248 1649 1248 1649 1288 1647 c 128,-1,277
 1328 1645 1328 1645 1369 1645 c 0,278,279
 1453 1645 1453 1645 1526.5 1676.5 c 128,-1,280
 1600 1708 1600 1708 1654.5 1761 c 128,-1,281
 1709 1814 1709 1814 1740 1882.5 c 128,-1,282
 1771 1951 1771 1951 1768 2025 c 1,283,-1
 1762 2113 l 1,284,285
 1762 2134 1762 2134 1770 2153 c 128,-1,286
 1778 2172 1778 2172 1792 2186 c 128,-1,287
 1806 2200 1806 2200 1824.5 2208 c 128,-1,288
 1843 2216 1843 2216 1864 2216 c 2,289,-1
 1865 2216 l 2,290,291
 1886 2216 1886 2216 1905 2208 c 128,-1,292
 1924 2200 1924 2200 1938 2186 c 128,-1,293
 1952 2172 1952 2172 1960 2153 c 128,-1,294
 1968 2134 1968 2134 1968 2113 c 1,295,-1
 1974 2029 l 1,296,297
 1976 1919 1976 1919 1936 1817.5 c 128,-1,298
 1896 1716 1896 1716 1831 1637 c 1,299,300
 1847 1549 1847 1549 1846.5 1490.5 c 128,-1,301
 1846 1432 1846 1432 1831.5 1387.5 c 128,-1,302
 1817 1343 1817 1343 1790 1302.5 c 128,-1,303
 1763 1262 1763 1262 1726 1209 c 0,304,305
 1686 1149 1686 1149 1635 1093.5 c 128,-1,306
 1584 1038 1584 1038 1517.5 978.5 c 128,-1,307
 1451 919 1451 919 1367 851.5 c 128,-1,308
 1283 784 1283 784 1175 702 c 1,309,-1
 3059 702 l 1,310,311
 3062 752 3062 752 3064.5 810 c 128,-1,312
 3067 868 3067 868 3065 934 c 0,313,314
 3061 1104 3061 1104 3041.5 1252.5 c 128,-1,315
 3022 1401 3022 1401 2993 1525 c 0,316,317
 2963 1649 2963 1649 2936.5 1744.5 c 128,-1,318
 2910 1840 2910 1840 2888 1900 c 1,319,320
 2867 1963 2867 1963 2837.5 2025.5 c 128,-1,321
 2808 2088 2808 2088 2775 2146 c 0,322,323
 2740 2208 2740 2208 2707 2265 c 128,-1,324
 2674 2322 2674 2322 2646 2372 c 1,325,326
 2614 2419 2614 2419 2579.5 2450.5 c 128,-1,327
 2545 2482 2545 2482 2518 2507 c 0,328,329
 2483 2540 2483 2540 2445.5 2574.5 c 128,-1,330
 2408 2609 2408 2609 2378 2633 c 0,331,332
 2359 2649 2359 2649 2344.5 2659.5 c 128,-1,333
 2330 2670 2330 2670 2316.5 2677.5 c 128,-1,334
 2303 2685 2303 2685 2290 2691.5 c 128,-1,335
 2277 2698 2277 2698 2261 2705 c 0,336,337
 2250 2710 2250 2710 2231 2713 c 128,-1,338
 2212 2716 2212 2716 2192 2718 c 128,-1,339
 2172 2720 2172 2720 2153 2721.5 c 128,-1,340
 2134 2723 2134 2723 2121 2723 c 0,341,342
 2096 2723 2096 2723 2073 2724.5 c 128,-1,343
 2050 2726 2050 2726 2018 2729 c 0,344,345
 2007 2730 2007 2730 1986 2731.5 c 128,-1,346
 1965 2733 1965 2733 1941 2739 c 0,347,348
 1921 2745 1921 2745 1902 2752.5 c 128,-1,349
 1883 2760 1883 2760 1875 2761 c 0,350,351
 1864 2762 1864 2762 1847.5 2778 c 128,-1,352
 1831 2794 1831 2794 1817 2807 c 0,353,354
 1803 2819 1803 2819 1793 2835.5 c 128,-1,355
 1783 2852 1783 2852 1774 2871 c 0,356,357
 1763 2893 1763 2893 1755 2914 c 128,-1,358
 1747 2935 1747 2935 1733 2958 c 0,359,360
 1717 2984 1717 2984 1706 3000 c 128,-1,361
 1695 3016 1695 3016 1676 3029 c 0,362,363
 1672 3032 1672 3032 1664.5 3028.5 c 128,-1,364
 1657 3025 1657 3025 1647.5 3017.5 c 128,-1,365
 1638 3010 1638 3010 1628 2999.5 c 128,-1,366
 1618 2989 1618 2989 1609 2978 c 0,367,368
 1595 2962 1595 2962 1586.5 2952.5 c 128,-1,369
 1578 2943 1578 2943 1570 2936.5 c 128,-1,370
 1562 2930 1562 2930 1552.5 2925 c 128,-1,371
 1543 2920 1543 2920 1527 2911 c 0,372,373
 1510 2903 1510 2903 1495.5 2899 c 128,-1,374
 1481 2895 1481 2895 1465.5 2895.5 c 128,-1,375
 1450 2896 1450 2896 1430.5 2899.5 c 128,-1,376
 1411 2903 1411 2903 1384 2908 c 1,201,202
896 342 m 1,377,-1
 3263 342 l 1,378,-1
 3263 0 l 1,379,-1
 896 0 l 1,380,-1
 896 342 l 1,377,-1
EndSplineSet
EndChar
StartChar: T
Encoding: 84 84 43
Width: 2961
GlyphClass: 2
Flags: W
Fore
1708 702 m 1,0,-1
 2389 702 l 1,1,-1
 2389 1145 l 1,2,3
 2304 1310 2304 1310 2238.5 1470 c 128,-1,4
 2173 1630 2173 1630 2129.5 1794.5 c 128,-1,5
 2086 1959 2086 1959 2065 2134 c 128,-1,6
 2044 2309 2044 2309 2048 2505 c 1,7,-1
 2048 2708 l 1,8,-1
 2389 2708 l 1,9,-1
 2389 3158 l 1,10,-1
 2183 3158 l 1,11,-1
 2183 2951 l 1,12,-1
 548 2951 l 1,13,-1
 548 3158 l 1,14,-1
 342 3158 l 1,15,-1
 342 2708 l 1,16,-1
 683 2708 l 1,17,-1
 683 2505 l 1,18,19
 686 2309 686 2309 665 2134 c 128,-1,20
 644 1959 644 1959 600.5 1794.5 c 128,-1,21
 557 1630 557 1630 492 1470 c 128,-1,22
 427 1310 427 1310 342 1145 c 1,23,-1
 342 702 l 1,24,-1
 1024 702 l 1,25,-1
 1024 1445 l 2,26,27
 1024 1515 1024 1515 1051 1577 c 128,-1,28
 1078 1639 1078 1639 1124.5 1685.5 c 128,-1,29
 1171 1732 1171 1732 1233 1759 c 128,-1,30
 1295 1786 1295 1786 1365 1786 c 0,31,32
 1436 1786 1436 1786 1498 1759 c 128,-1,33
 1560 1732 1560 1732 1606.5 1685.5 c 128,-1,34
 1653 1639 1653 1639 1679.5 1577 c 128,-1,35
 1706 1515 1706 1515 1706 1445 c 1,36,-1
 1708 702 l 1,0,-1
2190 3357 m 1,37,-1
 2460 3358 l 2,38,39
 2487 3358 2487 3358 2511.5 3347 c 128,-1,40
 2536 3336 2536 3336 2554.5 3317.5 c 128,-1,41
 2573 3299 2573 3299 2584 3274.5 c 128,-1,42
 2595 3250 2595 3250 2595 3222 c 2,43,-1
 2595 2640 l 2,44,45
 2595 2613 2595 2613 2584.5 2588 c 128,-1,46
 2574 2563 2574 2563 2555.5 2544.5 c 128,-1,47
 2537 2526 2537 2526 2512.5 2515.5 c 128,-1,48
 2488 2505 2488 2505 2460 2505 c 2,49,-1
 2254 2505 l 1,50,51
 2252 2313 2252 2313 2273 2141.5 c 128,-1,52
 2294 1970 2294 1970 2337 1808.5 c 128,-1,53
 2380 1647 2380 1647 2445 1490.5 c 128,-1,54
 2510 1334 2510 1334 2595 1173 c 1,55,-1
 2595 495 l 1,56,-1
 1365 495 l 1,57,-1
 136 495 l 1,58,-1
 136 1173 l 1,59,60
 221 1334 221 1334 285.5 1490.5 c 128,-1,61
 350 1647 350 1647 393.5 1808.5 c 128,-1,62
 437 1970 437 1970 458 2141.5 c 128,-1,63
 479 2313 479 2313 477 2505 c 1,64,-1
 274 2505 l 2,65,66
 247 2505 247 2505 221.5 2515.5 c 128,-1,67
 196 2526 196 2526 177 2544.5 c 128,-1,68
 158 2563 158 2563 147 2587.5 c 128,-1,69
 136 2612 136 2612 136 2640 c 2,70,-1
 136 3223 l 2,71,72
 136 3251 136 3251 146.5 3275.5 c 128,-1,73
 157 3300 157 3300 175.5 3318.5 c 128,-1,74
 194 3337 194 3337 218.5 3347.5 c 128,-1,75
 243 3358 243 3358 271 3358 c 2,76,-1
 555 3358 l 1,77,-1
 754 3358 l 1,78,-1
 754 3158 l 1,79,-1
 1159 3158 l 1,80,-1
 1159 3358 l 1,81,-1
 1572 3358 l 1,82,-1
 1572 3158 l 1,83,-1
 1977 3158 l 1,84,-1
 1977 3358 l 1,85,-1
 2190 3357 l 1,37,-1
136 342 m 1,86,-1
 2595 342 l 1,87,-1
 2595 0 l 1,88,-1
 136 0 l 1,89,-1
 136 342 l 1,86,-1
EndSplineSet
EndChar
StartChar: U
Encoding: 85 85 44
Width: 2503
GlyphClass: 2
Flags: W
Fore
2431 0 m 1,0,-1
 2019 0 l 1,1,-1
 1269 1065 l 1,2,-1
 522 0 l 1,3,-1
 104 0 l 1,4,-1
 1062 1364 l 1,5,-1
 105 2733 l 1,6,-1
 520 2734 l 1,7,-1
 1268 1661 l 1,8,-1
 2017 2733 l 1,9,-1
 2435 2734 l 1,10,-1
 1479 1363 l 1,11,-1
 2431 0 l 1,0,-1
EndSplineSet
EndChar
StartChar: Y
Encoding: 89 89 45
Width: 4096
GlyphClass: 2
Flags: W
Fore
3197 1388 m 0,0,1
 3197 1345 3197 1345 3207 1309 c 0,2,3
 3218 1273 3218 1273 3242 1251 c 0,4,5
 3268 1227 3268 1227 3310 1227 c 0,6,7
 3312 1228 3312 1228 3315 1228 c 0,8,9
 3419 1232 3419 1232 3421 1386 c 0,10,11
 3421 1433 3421 1433 3411 1470 c 0,12,13
 3400 1507 3400 1507 3375 1527 c 0,14,15
 3350 1548 3350 1548 3310 1548 c 0,16,17
 3201 1547 3201 1547 3197 1388 c 0,0,1
3054 1381 m 0,18,19
 3054 1435 3054 1435 3066 1481 c 0,20,21
 3079 1527 3079 1527 3109 1564 c 0,22,23
 3138 1601 3138 1601 3190 1623 c 0,24,25
 3240 1645 3240 1645 3314 1645 c 0,26,27
 3363 1644 3363 1644 3407 1630 c 0,28,29
 3451 1617 3451 1617 3487 1587 c 128,-1,30
 3523 1557 3523 1557 3544 1507 c 0,31,32
 3565 1458 3565 1458 3566 1387 c 0,33,34
 3566 1337 3566 1337 3551 1292 c 0,35,36
 3538 1248 3538 1248 3507 1211 c 0,37,38
 3477 1176 3477 1176 3429 1155 c 128,-1,39
 3381 1134 3381 1134 3315 1133 c 0,40,41
 3222 1133 3222 1133 3164 1167 c 0,42,43
 3106 1202 3106 1202 3080 1258 c 0,44,45
 3054 1315 3054 1315 3054 1381 c 0,18,19
2848 1479 m 1,46,47
 2847 1512 2847 1512 2824 1530 c 0,48,49
 2802 1548 2802 1548 2766 1548 c 0,50,51
 2727 1548 2727 1548 2706 1528 c 0,52,53
 2684 1509 2684 1509 2676 1473 c 0,54,55
 2667 1436 2667 1436 2667 1384 c 0,56,57
 2667 1230 2667 1230 2758 1228 c 1,58,59
 2763 1230 2763 1230 2771 1230 c 0,60,61
 2812 1234 2812 1234 2829 1251 c 128,-1,62
 2846 1268 2846 1268 2850 1299 c 1,63,-1
 2993 1299 l 1,64,65
 2993 1254 2993 1254 2972 1217 c 0,66,67
 2950 1181 2950 1181 2902 1158 c 0,68,69
 2878 1147 2878 1147 2846 1141 c 128,-1,70
 2814 1135 2814 1135 2775 1133 c 2,71,-1
 2761 1133 l 2,72,73
 2684 1133 2684 1133 2631 1162 c 0,74,75
 2579 1191 2579 1191 2552 1246 c 0,76,77
 2526 1300 2526 1300 2523 1371 c 1,78,-1
 2523 1387 l 2,79,80
 2523 1476 2523 1476 2552 1534 c 0,81,82
 2581 1591 2581 1591 2634 1618 c 0,83,84
 2686 1643 2686 1643 2758 1645 c 1,85,86
 2834 1645 2834 1645 2887 1624 c 0,87,88
 2939 1604 2939 1604 2966 1568 c 0,89,90
 2993 1531 2993 1531 2993 1484 c 2,91,-1
 2993 1479 l 1,92,-1
 2848 1479 l 1,46,47
2307 1639 m 1,93,-1
 2446 1639 l 1,94,-1
 2446 1143 l 1,95,-1
 2307 1143 l 1,96,-1
 2307 1639 l 1,93,-1
1893 1402 m 1,97,-1
 1720 1639 l 1,98,-1
 1895 1639 l 1,99,-1
 1991 1483 l 1,100,-1
 2091 1639 l 1,101,-1
 2247 1639 l 1,102,-1
 2072 1405 l 1,103,-1
 2256 1143 l 1,104,-1
 2082 1143 l 1,105,-1
 1975 1319 l 1,106,-1
 1866 1143 l 1,107,-1
 1707 1143 l 1,108,-1
 1893 1402 l 1,97,-1
1288 1639 m 1,109,-1
 1665 1639 l 1,110,-1
 1665 1543 l 1,111,-1
 1427 1543 l 1,112,-1
 1427 1442 l 1,113,-1
 1647 1442 l 1,114,-1
 1647 1346 l 1,115,-1
 1427 1346 l 1,116,-1
 1427 1239 l 1,117,-1
 1665 1239 l 1,118,-1
 1665 1143 l 1,119,-1
 1288 1143 l 1,120,-1
 1288 1639 l 1,109,-1
600 1639 m 1,121,-1
 816 1639 l 1,122,-1
 899 1303 l 1,123,-1
 900 1303 l 1,124,-1
 979 1639 l 1,125,-1
 1192 1639 l 1,126,-1
 1192 1143 l 1,127,-1
 1075 1143 l 1,128,-1
 1075 1556 l 1,129,-1
 1074 1557 l 1,130,-1
 955 1143 l 1,131,-1
 829 1143 l 1,132,-1
 718 1560 l 1,133,-1
 717 1559 l 1,134,-1
 717 1143 l 1,135,-1
 600 1143 l 1,136,-1
 600 1639 l 1,121,-1
2966 503 m 1,137,138
 2976 484 2976 484 2993 479 c 0,139,140
 3011 474 3011 474 3033 482 c 0,141,142
 3052 488 3052 488 3061 506 c 128,-1,143
 3070 524 3070 524 3063 545 c 0,144,145
 3056 567 3056 567 3038 576 c 0,146,147
 3021 586 3021 586 2996 577 c 0,148,149
 2970 569 2970 569 2963 550 c 0,150,151
 2956 530 2956 530 2963 508 c 1,152,153
 2966 506 2966 506 2966 503 c 1,137,138
3011 345 m 0,154,155
 3020 322 3020 322 3040 315 c 128,-1,156
 3060 308 3060 308 3087 317 c 0,157,158
 3113 326 3113 326 3123 345 c 0,159,160
 3133 363 3133 363 3125 388 c 0,161,162
 3116 412 3116 412 3097 419 c 0,163,164
 3078 427 3078 427 3051 417 c 0,165,166
 3023 408 3023 408 3013 389 c 128,-1,167
 3003 370 3003 370 3011 345 c 0,154,155
2979 430 m 1,168,169
 2946 425 2946 425 2921 432 c 128,-1,170
 2896 439 2896 439 2881 454 c 0,171,172
 2865 470 2865 470 2858 489 c 1,173,174
 2852 512 2852 512 2855 533 c 0,175,176
 2858 544 2858 544 2862.5 554 c 128,-1,177
 2867 564 2867 564 2875 574 c 0,178,179
 2891 593 2891 593 2916 609 c 0,180,181
 2942 625 2942 625 2978 637 c 0,182,183
 3020 652 3020 652 3056 653 c 128,-1,184
 3092 654 3092 654 3119 641 c 0,185,186
 3145 627 3145 627 3157 596 c 0,187,188
 3166 569 3166 569 3161 546 c 0,189,190
 3156 522 3156 522 3140 502 c 0,191,192
 3126 484 3126 484 3106 473 c 1,193,-1
 3106 471 l 1,194,195
 3147 481 3147 481 3185 467 c 0,196,197
 3222 452 3222 452 3237 408 c 0,198,199
 3250 372 3250 372 3235 340 c 0,200,201
 3220 309 3220 309 3188 285 c 0,202,203
 3172 274 3172 274 3154 264.5 c 128,-1,204
 3136 255 3136 255 3115 248 c 0,205,206
 3066 231 3066 231 3023 230 c 128,-1,207
 2980 229 2980 229 2951 246 c 128,-1,208
 2922 263 2922 263 2909 296 c 0,209,210
 2909 298 l 2,211,-1
 2909 299 l 1,212,-1
 2909 299 l 1,213,214
 2902 320 2902 320 2906 343 c 0,215,216
 2909 365 2909 365 2926 387 c 0,217,218
 2945 411 2945 411 2979 428 c 1,219,-1
 2979 430 l 1,168,169
2746 425 m 0,220,221
 2739 456 2739 456 2719 467 c 0,222,223
 2698 478 2698 478 2673 473 c 0,224,225
 2642 467 2642 467 2630 448 c 0,226,227
 2619 429 2619 429 2623 401 c 0,228,229
 2626 389 2626 389 2632 379.5 c 128,-1,230
 2638 370 2638 370 2646 363 c 0,231,232
 2664 349 2664 349 2695 355 c 0,233,234
 2713 359 2713 359 2726 370 c 0,235,236
 2732 376 2732 376 2736.5 382.5 c 128,-1,237
 2741 389 2741 389 2744 396 c 0,238,239
 2748 412 2748 412 2746 425 c 0,220,221
2564 217 m 1,240,-1
 2665 239 l 1,241,242
 2669 222 2669 222 2685 216 c 0,243,244
 2693 214 2693 214 2703.5 213.5 c 128,-1,245
 2714 213 2714 213 2726 216 c 0,246,247
 2749 221 2749 221 2760 235 c 0,248,249
 2771 247 2771 247 2774 267 c 0,250,251
 2775 276 2775 276 2775 284 c 128,-1,252
 2775 292 2775 292 2774 299 c 128,-1,253
 2773 306 2773 306 2771.5 317 c 128,-1,254
 2770 328 2770 328 2767 344 c 1,255,256
 2743 298 2743 298 2680 283 c 1,257,258
 2647 277 2647 277 2614 285 c 0,259,260
 2582 292 2582 292 2556 316 c 1,261,262
 2532 341 2532 341 2524 378 c 0,263,264
 2517 414 2517 414 2525 442 c 0,265,266
 2533 471 2533 471 2553 492 c 128,-1,267
 2573 513 2573 513 2599 526 c 0,268,269
 2613 533 2613 533 2628 538.5 c 128,-1,270
 2643 544 2643 544 2659 547 c 0,271,272
 2701 556 2701 556 2737 550 c 1,273,274
 2773 542 2773 542 2799 520 c 0,275,276
 2826 499 2826 499 2845 464 c 0,277,278
 2854 446 2854 446 2861 425.5 c 128,-1,279
 2868 405 2868 405 2873 381 c 0,280,281
 2878 358 2878 358 2879.5 335.5 c 128,-1,282
 2881 313 2881 313 2879 293 c 0,283,284
 2876 273 2876 273 2871 255.5 c 128,-1,285
 2866 238 2866 238 2857 222 c 0,286,287
 2848 207 2848 207 2836.5 194 c 128,-1,288
 2825 181 2825 181 2810 171 c 0,289,290
 2796 161 2796 161 2778 154 c 128,-1,291
 2760 147 2760 147 2740 143 c 0,292,293
 2707 136 2707 136 2679 136.5 c 128,-1,294
 2651 137 2651 137 2626 146 c 0,295,296
 2577 163 2577 163 2564 217 c 1,240,-1
2397 369 m 0,297,298
 2394 400 2394 400 2375 415 c 1,299,300
 2356 428 2356 428 2329 425 c 0,301,302
 2299 421 2299 421 2286 404 c 1,303,304
 2271 388 2271 388 2273 359 c 0,305,306
 2276 334 2276 334 2292 318 c 0,307,308
 2308 303 2308 303 2339 306 c 0,309,310
 2357 307 2357 307 2372 317 c 0,311,312
 2386 328 2386 328 2392 341 c 0,313,314
 2399 356 2399 356 2397 369 c 0,297,298
2194 183 m 1,315,-1
 2297 193 l 1,316,317
 2300 176 2300 176 2315 168 c 0,318,319
 2331 161 2331 161 2356 164 c 0,320,321
 2379 167 2379 167 2392 179 c 0,322,323
 2404 190 2404 190 2408 209 c 0,324,325
 2413 227 2413 227 2412 241 c 0,326,327
 2412 249 2412 249 2411.5 260 c 128,-1,328
 2411 271 2411 271 2410 286 c 1,329,330
 2381 244 2381 244 2317 236 c 0,331,332
 2284 233 2284 233 2251 244 c 0,333,334
 2220 255 2220 255 2198 281 c 0,335,336
 2176 308 2176 308 2172 346 c 0,337,338
 2168 381 2168 381 2179 409 c 128,-1,339
 2190 437 2190 437 2212 456 c 128,-1,340
 2234 475 2234 475 2262 486 c 0,341,342
 2290 496 2290 496 2324 500 c 0,343,344
 2367 504 2367 504 2402 494 c 0,345,346
 2437 483 2437 483 2460 459 c 1,347,348
 2485 435 2485 435 2500 398 c 0,349,350
 2515 362 2515 362 2519 313 c 0,351,352
 2524 264 2524 264 2515 224 c 0,353,354
 2508 186 2508 186 2487 156 c 0,355,356
 2476 142 2476 142 2463.5 130 c 128,-1,357
 2451 118 2451 118 2434 110 c 0,358,359
 2419 102 2419 102 2400.5 96.5 c 128,-1,360
 2382 91 2382 91 2362 89 c 0,361,362
 2329 86 2329 86 2300.5 89.5 c 128,-1,363
 2272 93 2272 93 2250 104 c 0,364,365
 2202 126 2202 126 2194 183 c 1,315,-1
1877 419 m 1,366,367
 1938 437 1938 437 1990 480 c 1,368,-1
 2080 478 l 1,369,-1
 2073 85 l 1,370,-1
 1966 86 l 1,371,-1
 1971 379 l 1,372,373
 1920 346 1920 346 1876 331 c 1,374,-1
 1877 419 l 1,366,367
1462 322 m 1,375,-1
 1620 297 l 1,376,-1
 1610 231 l 1,377,-1
 1452 256 l 1,378,-1
 1462 322 l 1,375,-1
1144 475 m 1,379,380
 1149 535 1149 535 1082 559 c 1,381,382
 1037 572 1037 572 1000 544 c 0,383,384
 981 530 981 530 968.5 510 c 128,-1,385
 956 490 956 490 948 464 c 0,386,387
 943 446 943 446 941.5 429 c 128,-1,388
 940 412 940 412 942 396 c 0,389,390
 945 363 945 363 964 340 c 1,391,392
 972 328 972 328 983 320.5 c 128,-1,393
 994 313 994 313 1007 309 c 0,394,395
 1023 304 1023 304 1038 304.5 c 128,-1,396
 1053 305 1053 305 1066 309 c 0,397,398
 1094 320 1094 320 1104 347 c 1,399,-1
 1177 325 l 1,400,401
 1162 287 1162 287 1131 267 c 0,402,403
 1099 245 1099 245 1064 241 c 0,404,405
 1027 236 1027 236 994 247 c 0,406,407
 951 260 951 260 915 294 c 0,408,409
 881 327 881 327 868 377 c 128,-1,410
 855 427 855 427 874 486 c 0,411,412
 883 517 883 517 897 540.5 c 128,-1,413
 911 564 911 564 930 581 c 0,414,415
 967 616 967 616 1012 624 c 0,416,417
 1056 633 1056 633 1098 620 c 0,418,419
 1127 611 1127 611 1150.5 595.5 c 128,-1,420
 1174 580 1174 580 1190 560 c 0,421,422
 1207 538 1207 538 1214 511 c 128,-1,423
 1221 484 1221 484 1217 453 c 1,424,-1
 1144 475 l 1,379,380
711 546 m 0,425,426
 736 616 736 616 782 664 c 1,427,428
 825 713 825 713 885 741 c 0,429,430
 914 754 914 754 944.5 761.5 c 128,-1,431
 975 769 975 769 1006 771 c 0,432,433
 1072 775 1072 775 1129 758 c 1,434,435
 1192 737 1192 737 1244 696 c 1,436,437
 1269 674 1269 674 1289 649 c 128,-1,438
 1309 624 1309 624 1325 596 c 0,439,440
 1357 538 1357 538 1364 471 c 0,441,442
 1371 402 1371 402 1350 333 c 0,443,444
 1339 295 1339 295 1317.5 261 c 128,-1,445
 1296 227 1296 227 1265 197 c 1,446,447
 1205 136 1205 136 1118 111 c 0,448,449
 1075 98 1075 98 1030.5 98 c 128,-1,450
 986 98 986 98 940 110 c 1,451,452
 896 124 896 124 858 146.5 c 128,-1,453
 820 169 820 169 788 201 c 1,454,455
 726 267 726 267 701 356 c 0,456,457
 678 444 678 444 704 532 c 1,458,459
 707 535 707 535 708 538.5 c 128,-1,460
 709 542 709 542 711 546 c 0,425,426
795 515 m 0,461,462
 784 480 784 480 781.5 446.5 c 128,-1,463
 779 413 779 413 784 381 c 0,464,465
 794 318 794 318 837 269 c 1,466,467
 880 223 880 223 954 198 c 1,468,-1
 956 199 l 2,469,470
 958 199 l 1,471,-1
 958 199 l 1,472,473
 1016 182 1016 182 1066 186 c 0,474,475
 1117 191 1117 191 1158 214 c 0,476,477
 1178 226 1178 226 1196 241.5 c 128,-1,478
 1214 257 1214 257 1227 276 c 0,479,480
 1255 313 1255 313 1270 362 c 0,481,482
 1280 395 1280 395 1281.5 427.5 c 128,-1,483
 1283 460 1283 460 1277 490 c 0,484,485
 1271 521 1271 521 1257 548 c 128,-1,486
 1243 575 1243 575 1220 598 c 1,487,488
 1178 647 1178 647 1104 669 c 0,489,490
 1031 691 1031 691 969 677 c 0,491,492
 938 671 938 671 910.5 657 c 128,-1,493
 883 643 883 643 861 621 c 0,494,495
 815 576 815 576 795 515 c 0,461,462
3826 2243 m 1,496,-1
 3930 2118 l 1,497,-1
 3786 1810 l 1,498,-1
 3788 1810 l 1,499,-1
 4023 2007 l 1,500,-1
 4086 1932 l 1,501,-1
 3770 1667 l 1,502,-1
 3669 1787 l 1,503,-1
 3817 2100 l 1,504,-1
 3816 2100 l 1,505,-1
 3575 1898 l 1,506,-1
 3509 1977 l 1,507,-1
 3826 2243 l 1,496,-1
3570 2412 m 1,508,-1
 3666 2347 l 1,509,-1
 3434 2005 l 1,510,-1
 3339 2069 l 1,511,-1
 3570 2412 l 1,508,-1
3074 2648 m 1,512,-1
 3180 2602 l 1,513,-1
 3083 2374 l 2,514,515
 3066 2334 3066 2334 3075 2302 c 0,516,517
 3084 2272 3084 2272 3122 2255 c 1,518,519
 3198 2225 3198 2225 3235 2310 c 1,520,-1
 3331 2538 l 1,521,-1
 3438 2493 l 1,522,-1
 3338 2257 l 1,523,524
 3308 2188 3308 2188 3246 2166 c 0,525,526
 3186 2144 3186 2144 3090 2182 c 0,527,528
 3070 2191 3070 2191 3052 2201.5 c 128,-1,529
 3034 2212 3034 2212 3019 2224 c 0,530,531
 2990 2249 2990 2249 2975 2279 c 0,532,533
 2959 2309 2959 2309 2958 2341 c 0,534,535
 2957 2374 2957 2374 2972 2408 c 1,536,-1
 3074 2648 l 1,512,-1
2589 2544 m 0,537,538
 2578 2488 2578 2488 2591 2447 c 0,539,540
 2604 2405 2604 2405 2657 2394 c 1,541,542
 2742 2379 2742 2379 2772 2506 c 1,543,544
 2799 2635 2799 2635 2709 2655 c 2,545,-1
 2708 2655 l 2,546,547
 2617 2673 2617 2673 2589 2544 c 0,537,538
2642 2315 m 1,548,549
 2566 2331 2566 2331 2524 2369 c 0,550,551
 2483 2408 2483 2408 2472 2457 c 0,552,553
 2467 2483 2467 2483 2466 2509 c 128,-1,554
 2465 2535 2465 2535 2470 2562 c 0,555,556
 2480 2607 2480 2607 2499 2643 c 0,557,558
 2517 2679 2517 2679 2549 2704 c 128,-1,559
 2581 2729 2581 2729 2626 2737 c 128,-1,560
 2671 2745 2671 2745 2730 2732 c 0,561,562
 2784 2720 2784 2720 2826 2690 c 0,563,564
 2868 2661 2868 2661 2886 2609 c 0,565,566
 2896 2583 2896 2583 2897 2551 c 128,-1,567
 2898 2519 2898 2519 2890 2482 c 0,568,569
 2888 2474 2888 2474 2885 2465.5 c 128,-1,570
 2882 2457 2882 2457 2877 2448 c 0,571,572
 2873 2439 2873 2439 2867 2430.5 c 128,-1,573
 2861 2422 2861 2422 2855 2414 c 0,574,575
 2841 2398 2841 2398 2821 2384 c 0,576,577
 2812 2377 2812 2377 2801.5 2372 c 128,-1,578
 2791 2367 2791 2367 2780 2362 c 1,579,-1
 2780 2361 l 1,580,581
 2793 2362 2793 2362 2805 2361 c 0,582,583
 2818 2361 2818 2361 2830 2359 c 0,584,585
 2841 2358 2841 2358 2854 2355 c 0,586,587
 2866 2353 l 128,-1,588
 2872 2352 2872 2352 2877 2351 c 1,589,-1
 2862 2277 l 1,590,-1
 2719 2308 l 2,591,592
 2717 2308 2717 2308 2710 2309 c 128,-1,593
 2703 2310 2703 2310 2690 2311 c 128,-1,594
 2677 2312 2677 2312 2665 2313 c 128,-1,595
 2653 2314 2653 2314 2642 2315 c 1,548,549
2088 2584 m 0,596,597
 2087 2566 2087 2566 2088.5 2549.5 c 128,-1,598
 2090 2533 2090 2533 2093 2518 c 0,599,600
 2101 2487 2101 2487 2121 2468 c 0,601,602
 2141 2448 2141 2448 2176 2446 c 1,603,604
 2179 2447 2179 2447 2181 2447 c 0,605,606
 2268 2447 2268 2447 2274 2576 c 0,607,608
 2275 2616 2275 2616 2268 2646 c 0,609,610
 2259 2678 2259 2678 2239 2694 c 1,611,612
 2220 2713 2220 2713 2185 2714 c 0,613,614
 2095 2716 2095 2716 2088 2584 c 0,596,597
1967 2582 m 0,615,616
 1968 2604 1968 2604 1971.5 2625 c 128,-1,617
 1975 2646 1975 2646 1981 2664 c 0,618,619
 1993 2703 1993 2703 2019 2733 c 128,-1,620
 2045 2763 2045 2763 2088 2780 c 0,621,622
 2131 2796 2131 2796 2192 2794 c 0,623,624
 2234 2792 2234 2792 2270 2780 c 1,625,626
 2306 2766 2306 2766 2335 2741 c 0,627,628
 2364 2715 2364 2715 2380 2673 c 0,629,630
 2396 2630 2396 2630 2394 2572 c 0,631,632
 2393 2551 2393 2551 2389.5 2531.5 c 128,-1,633
 2386 2512 2386 2512 2380 2493 c 0,634,635
 2367 2457 2367 2457 2340 2427 c 0,636,637
 2314 2398 2314 2398 2273 2383 c 0,638,639
 2232 2367 2232 2367 2179 2369 c 0,640,641
 2140 2370 2140 2370 2108.5 2378 c 128,-1,642
 2077 2386 2077 2386 2053 2401 c 0,643,644
 2005 2432 2005 2432 1986 2479 c 0,645,646
 1966 2526 1966 2526 1967 2582 c 0,615,616
1638 2692 m 1,647,-1
 1648 2595 l 1,648,-1
 1700 2600 l 2,649,650
 1764 2607 1764 2607 1758 2659 c 1,651,652
 1753 2683 1753 2683 1736 2691 c 0,653,654
 1719 2700 1719 2700 1687 2697 c 2,655,-1
 1638 2692 l 1,647,-1
1515 2759 m 1,656,-1
 1693 2778 l 2,657,658
 1765 2786 1765 2786 1817 2769 c 0,659,660
 1867 2752 1867 2752 1875 2691 c 0,661,662
 1880 2645 1880 2645 1853 2615 c 0,663,664
 1826 2587 1826 2587 1781 2576 c 1,665,-1
 1781 2574 l 1,666,667
 1822 2577 1822 2577 1843 2564 c 0,668,669
 1864 2550 1864 2550 1871 2533 c 0,670,671
 1877 2515 1877 2515 1889 2466 c 0,672,673
 1895 2442 1895 2442 1901.5 2421.5 c 128,-1,674
 1908 2401 1908 2401 1916 2386 c 1,675,-1
 1792 2373 l 1,676,677
 1785 2386 1785 2386 1774 2435 c 0,678,679
 1769 2459 1769 2459 1766 2472.5 c 128,-1,680
 1763 2486 1763 2486 1763 2488 c 0,681,682
 1756 2514 1756 2514 1738 2518 c 0,683,684
 1721 2521 1721 2521 1683 2518 c 2,685,-1
 1656 2515 l 1,686,-1
 1673 2361 l 1,687,-1
 1558 2349 l 1,688,-1
 1515 2759 l 1,656,-1
1189 2608 m 1,689,-1
 1212 2513 l 1,690,-1
 1263 2526 l 2,691,692
 1325 2541 1325 2541 1312 2592 c 1,693,694
 1304 2616 1304 2616 1286 2621 c 1,695,696
 1277 2625 1277 2625 1264.5 2624 c 128,-1,697
 1252 2623 1252 2623 1236 2619 c 2,698,-1
 1189 2608 l 1,689,-1
1057 2658 m 1,699,-1
 1231 2701 l 2,700,701
 1302 2719 1302 2719 1355 2709 c 128,-1,702
 1408 2699 1408 2699 1424 2640 c 0,703,704
 1435 2595 1435 2595 1413 2562 c 0,705,706
 1401 2546 1401 2546 1384.5 2533.5 c 128,-1,707
 1368 2521 1368 2521 1347 2513 c 1,708,-1
 1347 2511 l 1,709,710
 1387 2520 1387 2520 1410 2510 c 0,711,712
 1432 2500 1432 2500 1441 2483 c 0,713,714
 1446 2474 1446 2474 1453 2458 c 128,-1,715
 1460 2442 1460 2442 1469 2419 c 128,-1,716
 1478 2396 1478 2396 1487.5 2377 c 128,-1,717
 1497 2358 1497 2358 1507 2344 c 1,718,-1
 1385 2314 l 1,719,720
 1377 2327 1377 2327 1360 2372 c 0,721,722
 1351 2396 1351 2396 1346 2408.5 c 128,-1,723
 1341 2421 1341 2421 1341 2423 c 0,724,725
 1330 2447 1330 2447 1312 2449 c 128,-1,726
 1294 2451 1294 2451 1258 2442 c 2,727,-1
 1232 2435 l 1,728,-1
 1270 2285 l 1,729,-1
 1158 2257 l 1,730,-1
 1057 2658 l 1,699,-1
873 2314 m 1,731,-1
 753 2447 l 1,732,-1
 751 2446 l 1,733,-1
 774 2268 l 1,734,-1
 873 2314 l 1,731,-1
659 2494 m 1,735,-1
 785 2553 l 1,736,-1
 1106 2247 l 1,737,-1
 991 2193 l 1,738,-1
 931 2253 l 1,739,-1
 781 2183 l 1,740,-1
 791 2100 l 1,741,-1
 687 2051 l 1,742,-1
 659 2494 l 1,735,-1
7 1963 m 1,743,-1
 131 2093 l 1,744,-1
 381 1948 l 1,745,-1
 382 1949 l 1,746,-1
 226 2191 l 1,747,-1
 349 2318 l 1,748,-1
 647 2032 l 1,749,-1
 579 1961 l 1,750,-1
 331 2200 l 1,751,-1
 329 2200 l 1,752,-1
 510 1889 l 1,753,-1
 437 1814 l 1,754,-1
 123 1989 l 1,755,-1
 123 1987 l 1,756,-1
 372 1747 l 1,757,-1
 304 1676 l 1,758,-1
 7 1963 l 1,743,-1
EndSplineSet
EndChar
StartChar: Z
Encoding: 90 90 46
Width: 1360
GlyphClass: 2
Flags: W
Fore
256 -800 m 1,0,-1
 256 2943 l 1,1,-1
 1281 2943 l 1,2,-1
 1281 2559 l 1,3,-1
 736 2559 l 1,4,-1
 736 -448 l 1,5,-1
 1281 -448 l 1,6,-1
 1281 -800 l 1,7,-1
 256 -800 l 1,0,-1
EndSplineSet
EndChar
StartChar: backslash
Encoding: 92 92 47
Width: 1360
GlyphClass: 2
Flags: W
Fore
608 -448 m 1,0,-1
 608 2559 l 1,1,-1
 95 2559 l 1,2,-1
 95 2943 l 1,3,-1
 1088 2943 l 1,4,-1
 1088 -800 l 1,5,-1
 95 -800 l 1,6,-1
 95 -448 l 1,7,-1
 608 -448 l 1,0,-1
EndSplineSet
EndChar
StartChar: asciicircum
Encoding: 94 94 48
Width: 2281
GlyphClass: 2
Flags: W
Fore
2272 -512 m 1,0,-1
 0 -512 l 1,1,-1
 0 -320 l 1,2,-1
 2272 -320 l 1,3,-1
 2272 -512 l 1,0,-1
EndSplineSet
EndChar
StartChar: grave
Encoding: 96 96 49
Width: 2281
GlyphClass: 2
Flags: W
Fore
128 568 m 0,0,1
 128 899 128 899 305 1069 c 0,2,3
 483 1240 483 1240 759 1280 c 2,4,-1
 1285 1359 l 2,5,6
 1378 1373 1378 1373 1425 1413.5 c 128,-1,7
 1472 1454 1472 1454 1472 1520 c 0,8,9
 1472 1791 1472 1791 1130 1791 c 0,10,11
 959 1791 959 1791 865 1728 c 0,12,13
 770 1664 770 1664 752 1483 c 1,14,-1
 202 1483 l 1,15,16
 227 1744 227 1744 331 1910 c 1,17,18
 437 2076 437 2076 634 2154 c 0,19,20
 732 2193 732 2193 856.5 2214.5 c 128,-1,21
 981 2236 981 2236 1130 2238 c 1,22,23
 1512 2238 1512 2238 1709 2125 c 0,24,25
 1808 2068 1808 2068 1871 2004 c 128,-1,26
 1934 1940 1934 1940 1961 1871 c 0,27,28
 1988 1801 1988 1801 2002 1734 c 128,-1,29
 2016 1667 2016 1667 2016 1604 c 2,30,-1
 2016 412 l 2,31,32
 2016 267 2016 267 2040 179 c 0,33,34
 2065 91 2065 91 2143 68 c 1,35,-1
 2143 0 l 1,36,-1
 1543 0 l 1,37,38
 1519 68 1519 68 1505 126 c 128,-1,39
 1491 184 1491 184 1488 229 c 1,40,41
 1400 139 1400 139 1303 75 c 0,42,43
 1255 43 1255 43 1200 18.5 c 128,-1,44
 1145 -6 1145 -6 1085 -24 c 128,-1,45
 1025 -42 1025 -42 957 -52 c 128,-1,46
 889 -62 889 -62 814 -64 c 1,47,48
 648 -64 648 -64 492 -4 c 1,49,50
 336 54 336 54 232 197 c 128,-1,51
 128 340 128 340 128 568 c 0,0,1
1472 1055 m 1,52,53
 1400 993 1400 993 1263 963 c 0,54,55
 1196 947 1196 947 1128 932.5 c 128,-1,56
 1060 918 1060 918 994 903 c 0,57,58
 927 888 927 888 874 862 c 128,-1,59
 821 836 821 836 782 800 c 0,60,61
 704 726 704 726 704 573 c 0,62,63
 704 449 704 449 782 385 c 1,64,65
 860 319 860 319 981 319 c 1,66,67
 1034 321 1034 321 1088.5 334 c 128,-1,68
 1143 347 1143 347 1199 369 c 0,69,70
 1312 416 1312 416 1392 514 c 0,71,72
 1472 614 1472 614 1472 763 c 2,73,-1
 1472 1055 l 1,52,53
EndSplineSet
EndChar
StartChar: b
Encoding: 98 98 50
Width: 2503
GlyphClass: 2
Flags: W
Fore
1792 1062 m 0,0,1
 1792 1362 1792 1362 1675 1561 c 0,2,3
 1558 1758 1558 1758 1297 1758 c 0,4,5
 808 1758 808 1758 808 1028 c 0,6,7
 808 755 808 755 934 569 c 0,8,9
 997 476 997 476 1092.5 429.5 c 128,-1,10
 1188 383 1188 383 1314 383 c 0,11,12
 1565 383 1565 383 1678 595 c 0,13,14
 1792 807 1792 807 1792 1062 c 0,0,1
256 0 m 1,15,-1
 256 2943 l 1,16,-1
 832 2943 l 1,17,-1
 832 1905 l 1,18,-1
 840 1905 l 1,19,20
 959 2078 959 2078 1111 2157 c 0,21,22
 1264 2238 1264 2238 1475 2238 c 0,23,24
 1616 2237 1616 2237 1738 2198.5 c 128,-1,25
 1860 2160 1860 2160 1960 2087 c 0,26,27
 2061 2012 2061 2012 2137.5 1911 c 128,-1,28
 2214 1810 2214 1810 2265 1683 c 0,29,30
 2316 1555 2316 1555 2342 1410.5 c 128,-1,31
 2368 1266 2368 1266 2368 1105 c 0,32,33
 2368 914 2368 914 2337.5 752.5 c 128,-1,34
 2307 591 2307 591 2247 459 c 0,35,36
 2186 327 2186 327 2104 228 c 128,-1,37
 2022 129 2022 129 1919 65 c 0,38,39
 1816 0 1816 0 1701 -32 c 128,-1,40
 1586 -64 1586 -64 1459 -64 c 1,41,42
 1257 -58 1257 -58 1094 7 c 0,43,44
 1013 39 1013 39 945.5 99 c 128,-1,45
 878 159 878 159 824 242 c 1,46,-1
 816 242 l 1,47,-1
 816 0 l 1,48,-1
 256 0 l 1,15,-1
EndSplineSet
EndChar
StartChar: c
Encoding: 99 99 51
Width: 2281
GlyphClass: 2
Flags: W
Fore
160 1026 m 1,0,1
 160 1505 160 1505 382 1869 c 0,2,3
 605 2234 605 2234 1155 2238 c 0,4,5
 1287 2238 1287 2238 1408 2215 c 128,-1,6
 1529 2192 1529 2192 1637 2145 c 0,7,8
 1745 2099 1745 2099 1833.5 2028 c 128,-1,9
 1922 1957 1922 1957 1989 1864 c 0,10,11
 2125 1674 2125 1674 2141 1407 c 1,12,-1
 1567 1407 l 1,13,14
 1557 1477 1557 1477 1529 1539 c 128,-1,15
 1501 1601 1501 1601 1457 1654 c 0,16,17
 1414 1706 1414 1706 1347.5 1732 c 128,-1,18
 1281 1758 1281 1758 1194 1758 c 0,19,20
 980 1758 980 1758 858 1588 c 0,21,22
 736 1416 736 1416 736 1112 c 0,23,24
 736 990 736 990 745.5 890 c 128,-1,25
 755 790 755 790 774 711 c 0,26,27
 813 555 813 555 908 471 c 0,28,29
 1004 386 1004 386 1169 383 c 1,30,31
 1319 383 1319 383 1430 482 c 0,32,33
 1486 531 1486 531 1518.5 599.5 c 128,-1,34
 1551 668 1551 668 1559 756 c 1,35,-1
 2133 756 l 1,36,37
 2120 642 2120 642 2084 538.5 c 128,-1,38
 2048 435 2048 435 1991 342 c 0,39,40
 1877 154 1877 154 1666 45 c 0,41,42
 1561 -9 1561 -9 1435 -36.5 c 128,-1,43
 1309 -64 1309 -64 1163 -64 c 0,44,45
 736 -64 736 -64 452 185 c 0,46,47
 166 435 166 435 160 1026 c 1,0,1
EndSplineSet
EndChar
StartChar: d
Encoding: 100 100 52
Width: 2503
GlyphClass: 2
Flags: W
Fore
128 1105 m 1,0,1
 128 1330 128 1330 185 1534 c 0,2,3
 214 1636 214 1636 257.5 1727 c 128,-1,4
 301 1818 301 1818 358 1896 c 128,-1,5
 415 1974 415 1974 488 2036.5 c 128,-1,6
 561 2099 561 2099 648 2143 c 0,7,8
 824 2235 824 2235 1047 2238 c 1,9,10
 1461 2238 1461 2238 1687 1905 c 1,11,-1
 1696 1905 l 1,12,-1
 1696 2943 l 1,13,-1
 2272 2943 l 1,14,-1
 2272 0 l 1,15,-1
 1704 0 l 1,16,-1
 1704 242 l 1,17,-1
 1696 242 l 2,18,19
 1612 242 1612 242 1551 206 c 0,20,21
 1488 170 1488 170 1392 92 c 1,22,23
 1296 11 1296 11 1223 -25 c 1,24,25
 1151 -64 1151 -64 1059 -64 c 0,26,27
 800 -64 800 -64 589 63 c 0,28,29
 484 126 484 126 400.5 224.5 c 128,-1,30
 317 323 317 323 255 455 c 0,31,32
 194 587 194 587 162 750 c 128,-1,33
 130 913 130 913 128 1105 c 1,0,1
736 1062 m 0,34,35
 736 808 736 808 847 596 c 0,36,37
 958 383 958 383 1207 383 c 0,38,39
 1385 383 1385 383 1499 471 c 0,40,41
 1556 516 1556 516 1598.5 575 c 128,-1,42
 1641 634 1641 634 1667 707 c 0,43,44
 1720 856 1720 856 1720 1028 c 0,45,46
 1720 1758 1720 1758 1224 1758 c 0,47,48
 968 1758 968 1758 852 1561 c 0,49,50
 736 1362 736 1362 736 1062 c 0,34,35
EndSplineSet
EndChar
StartChar: e
Encoding: 101 101 53
Width: 2281
GlyphClass: 2
Flags: W
Fore
96 1130 m 0,0,1
 96 1276 96 1276 123 1412 c 128,-1,2
 150 1548 150 1548 202 1674 c 0,3,4
 255 1800 255 1800 340.5 1902 c 128,-1,5
 426 2004 426 2004 544 2082 c 0,6,7
 782 2238 782 2238 1148 2238 c 0,8,9
 1522 2238 1522 2238 1751 2073 c 0,10,11
 1865 1990 1865 1990 1947.5 1881.5 c 128,-1,12
 2030 1773 2030 1773 2078 1640 c 0,13,14
 2127 1508 2127 1508 2151.5 1362 c 128,-1,15
 2176 1216 2176 1216 2176 1058 c 2,16,-1
 2176 958 l 1,17,-1
 668 958 l 1,18,19
 707 383 707 383 1190 383 c 0,20,21
 1322 383 1322 383 1424 457 c 0,22,23
 1527 532 1527 532 1559 638 c 1,24,-1
 2151 638 l 1,25,26
 2118 526 2118 526 2066.5 430.5 c 128,-1,27
 2015 335 2015 335 1947 256 c 0,28,29
 1879 179 1879 179 1796 118.5 c 128,-1,30
 1713 58 1713 58 1615 18 c 0,31,32
 1518 -22 1518 -22 1411 -43 c 128,-1,33
 1304 -64 1304 -64 1189 -64 c 0,34,35
 96 -64 96 -64 96 1130 c 0,0,1
692 1311 m 1,36,-1
 1584 1311 l 1,37,38
 1568 1534 1568 1534 1444 1663 c 0,39,40
 1321 1791 1321 1791 1140 1791 c 0,41,42
 752 1791 752 1791 692 1311 c 1,36,-1
EndSplineSet
EndChar
StartChar: f
Encoding: 102 102 54
Width: 1360
GlyphClass: 2
Flags: W
Fore
352 0 m 1,0,-1
 352 1791 l 1,1,-1
 33 1791 l 1,2,-1
 33 2175 l 1,3,-1
 352 2175 l 1,4,-1
 352 2352 l 2,5,6
 352 2975 352 2975 995 2975 c 2,7,-1
 1284 2975 l 1,8,-1
 1284 2526 l 1,9,-1
 1133 2526 l 2,10,11
 1078 2526 1078 2526 1040.5 2522.5 c 128,-1,12
 1003 2519 1003 2519 985 2514 c 1,13,14
 947 2500 947 2500 938 2453 c 0,15,16
 934 2429 934 2429 931 2381 c 128,-1,17
 928 2333 928 2333 928 2263 c 2,18,-1
 928 2175 l 1,19,-1
 1301 2175 l 1,20,-1
 1301 1791 l 1,21,-1
 928 1791 l 1,22,-1
 928 0 l 1,23,-1
 352 0 l 1,0,-1
EndSplineSet
EndChar
StartChar: g
Encoding: 103 103 55
Width: 2503
GlyphClass: 2
Flags: W
Fore
768 1092 m 0,0,1
 768 1014 768 1014 779 940.5 c 128,-1,2
 790 867 790 867 811 797 c 0,3,4
 855 659 855 659 954 569 c 0,5,6
 1054 478 1054 478 1211 478 c 0,7,8
 1696 478 1696 478 1696 1117 c 0,9,10
 1696 1392 1696 1392 1568 1576 c 1,11,12
 1439 1758 1439 1758 1211 1758 c 0,13,14
 1025 1758 1025 1758 897 1601 c 0,15,16
 768 1442 768 1442 768 1092 c 0,0,1
160 1124 m 0,17,18
 160 1266 160 1266 184.5 1400.5 c 128,-1,19
 209 1535 209 1535 257 1662 c 0,20,21
 355 1916 355 1916 561 2077 c 0,22,23
 769 2238 769 2238 1073 2238 c 0,24,25
 1287 2238 1287 2238 1459 2141 c 128,-1,26
 1631 2044 1631 2044 1712 1864 c 1,27,-1
 1720 1864 l 1,28,-1
 1720 2175 l 1,29,-1
 2272 2175 l 1,30,-1
 2272 102 l 2,31,32
 2272 -61 2272 -61 2247.5 -198 c 128,-1,33
 2223 -335 2223 -335 2175 -445 c 0,34,35
 2077 -665 2077 -665 1831 -780 c 0,36,37
 1584 -896 1584 -896 1154 -896 c 0,38,39
 968 -896 968 -896 759 -840 c 0,40,41
 655 -812 655 -812 562.5 -760 c 128,-1,42
 470 -708 470 -708 391 -635 c 128,-1,43
 312 -562 312 -562 268.5 -462.5 c 128,-1,44
 225 -363 225 -363 217 -238 c 1,45,-1
 836 -238 l 1,46,47
 866 -358 866 -358 948 -419 c 0,48,49
 1032 -480 1032 -480 1228 -480 c 0,50,51
 1427 -480 1427 -480 1527 -403 c 0,52,53
 1628 -326 1628 -326 1655 -221 c 0,54,55
 1669 -169 1669 -169 1679.5 -97 c 128,-1,56
 1690 -25 1690 -25 1696 63 c 1,57,-1
 1696 313 l 1,58,-1
 1688 328 l 1,59,60
 1592 163 1592 163 1447 81.5 c 128,-1,61
 1302 0 1302 0 1110 0 c 0,62,63
 863 0 863 0 648 109 c 0,64,65
 540 163 540 163 452 254.5 c 128,-1,66
 364 346 364 346 296 471 c 1,67,68
 229 598 229 598 194.5 761 c 128,-1,69
 160 924 160 924 160 1124 c 0,17,18
EndSplineSet
EndChar
StartChar: h
Encoding: 104 104 56
Width: 2503
GlyphClass: 2
Flags: W
Fore
256 0 m 1,0,-1
 256 2943 l 1,1,-1
 832 2943 l 1,2,-1
 832 1898 l 1,3,-1
 840 1898 l 1,4,5
 910 2051 910 2051 1079 2145 c 1,6,7
 1165 2191 1165 2191 1263.5 2214.5 c 128,-1,8
 1362 2238 1362 2238 1474 2238 c 0,9,10
 1590 2238 1590 2238 1691 2216 c 128,-1,11
 1792 2194 1792 2194 1879 2150 c 0,12,13
 1966 2107 1966 2107 2033 2043 c 128,-1,14
 2100 1979 2100 1979 2146 1896 c 0,15,16
 2193 1814 2193 1814 2216.5 1717 c 128,-1,17
 2240 1620 2240 1620 2240 1509 c 2,18,-1
 2240 0 l 1,19,-1
 1664 0 l 1,20,-1
 1664 1323 l 2,21,22
 1664 1539 1664 1539 1590 1649 c 0,23,24
 1515 1758 1515 1758 1283 1758 c 0,25,26
 1152 1758 1152 1758 1050 1699 c 0,27,28
 947 1640 947 1640 890 1527 c 0,29,30
 862 1470 862 1470 847 1401 c 128,-1,31
 832 1332 832 1332 832 1253 c 2,32,-1
 832 0 l 1,33,-1
 256 0 l 1,0,-1
EndSplineSet
EndChar
StartChar: i
Encoding: 105 105 57
Width: 2961
GlyphClass: 2
Flags: W
Fore
288 0 m 1,0,-1
 288 2943 l 1,1,-1
 938 2943 l 1,2,-1
 2104 895 l 1,3,-1
 2112 895 l 1,4,-1
 2112 2943 l 1,5,-1
 2688 2943 l 1,6,-1
 2688 0 l 1,7,-1
 2071 0 l 1,8,-1
 872 2096 l 1,9,-1
 864 2096 l 1,10,-1
 864 0 l 1,11,-1
 288 0 l 1,0,-1
EndSplineSet
EndChar
StartChar: o
Encoding: 111 111 58
Width: 2503
GlyphClass: 2
Flags: W
Fore
1792 1071 m 0,0,1
 1792 1352 1792 1352 1678 1554 c 1,2,3
 1565 1758 1565 1758 1267 1758 c 0,4,5
 964 1758 964 1758 850 1554 c 128,-1,6
 736 1350 736 1350 736 1071 c 128,-1,7
 736 792 736 792 850 587 c 0,8,9
 965 383 965 383 1267 383 c 0,10,11
 1564 383 1564 383 1678 587 c 0,12,13
 1792 792 1792 792 1792 1071 c 0,0,1
128 1085 m 0,14,15
 128 1319 128 1319 196 1529 c 0,16,17
 265 1738 265 1738 405 1896 c 0,18,19
 475 1976 475 1976 563.5 2039.5 c 128,-1,20
 652 2103 652 2103 758 2148 c 0,21,22
 973 2238 973 2238 1254 2238 c 0,23,24
 1507 2238 1507 2238 1712 2157 c 0,25,26
 1815 2117 1815 2117 1903.5 2058.5 c 128,-1,27
 1992 2000 1992 2000 2065 1926 c 0,28,29
 2139 1851 2139 1851 2195 1759.5 c 128,-1,30
 2251 1668 2251 1668 2290 1561 c 0,31,32
 2368 1348 2368 1348 2368 1085 c 0,33,34
 2368 757 2368 757 2240 496 c 0,35,36
 2111 236 2111 236 1859 86 c 0,37,38
 1733 11 1733 11 1582 -26.5 c 128,-1,39
 1431 -64 1431 -64 1254 -64 c 0,40,41
 866 -64 866 -64 613 100 c 1,42,43
 360 266 360 266 244 528 c 0,44,45
 128 791 128 791 128 1085 c 0,14,15
EndSplineSet
EndChar
StartChar: p
Encoding: 112 112 59
Width: 2503
GlyphClass: 2
Flags: W
Fore
800 1028 m 0,0,1
 800 891 800 891 832 776.5 c 128,-1,2
 864 662 864 662 927 569 c 0,3,4
 1054 383 1054 383 1310 383 c 0,5,6
 1563 383 1563 383 1677 595 c 0,7,8
 1734 701 1734 701 1763 818 c 128,-1,9
 1792 935 1792 935 1792 1062 c 0,10,11
 1792 1212 1792 1212 1762.5 1337 c 128,-1,12
 1733 1462 1733 1462 1674 1561 c 128,-1,13
 1615 1660 1615 1660 1519.5 1709 c 128,-1,14
 1424 1758 1424 1758 1293 1758 c 0,15,16
 800 1758 800 1758 800 1028 c 0,0,1
256 1237 m 1,17,-1
 256 2175 l 1,18,-1
 800 2175 l 1,19,-1
 800 1874 l 1,20,-1
 816 1874 l 2,21,22
 896 1874 896 1874 950 1914 c 0,23,24
 977 1935 977 1935 1013.5 1969 c 128,-1,25
 1050 2003 1050 2003 1095 2050 c 0,26,27
 1186 2143 1186 2143 1266 2191 c 0,28,29
 1346 2238 1346 2238 1463 2238 c 0,30,31
 1553 2238 1553 2238 1639.5 2220.5 c 128,-1,32
 1726 2203 1726 2203 1808 2166 c 0,33,34
 1973 2094 1973 2094 2098 1955 c 0,35,36
 2223 1815 2223 1815 2295 1599 c 0,37,38
 2331 1491 2331 1491 2349.5 1367 c 128,-1,39
 2368 1243 2368 1243 2368 1105 c 0,40,41
 2368 958 2368 958 2345 817 c 128,-1,42
 2322 676 2322 676 2276 544 c 0,43,44
 2230 410 2230 410 2155.5 300.5 c 128,-1,45
 2081 191 2081 191 1978 106 c 0,46,47
 1772 -64 1772 -64 1451 -64 c 0,48,49
 1360 -64 1360 -64 1284.5 -52 c 128,-1,50
 1209 -40 1209 -40 1150 -18 c 0,51,52
 1092 4 1092 4 1045.5 32 c 128,-1,53
 999 60 999 60 967 93 c 0,54,55
 935 125 935 125 903 165 c 128,-1,56
 871 205 871 205 841 251 c 1,57,-1
 832 251 l 1,58,-1
 832 -864 l 1,59,-1
 256 -864 l 1,60,-1
 256 1237 l 1,17,-1
EndSplineSet
EndChar
StartChar: q
Encoding: 113 113 60
Width: 2961
GlyphClass: 2
Flags: W
Fore
320 0 m 1,0,-1
 320 2943 l 1,1,-1
 1804 2943 l 2,2,3
 1955 2943 1955 2943 2082 2913 c 128,-1,4
 2209 2883 2209 2883 2311 2825 c 0,5,6
 2517 2706 2517 2706 2616 2517 c 0,7,8
 2666 2424 2666 2424 2692 2323 c 128,-1,9
 2718 2222 2718 2222 2720 2116 c 0,10,11
 2720 2035 2720 2035 2707 1958 c 128,-1,12
 2694 1881 2694 1881 2668 1808 c 0,13,14
 2617 1662 2617 1662 2514 1556 c 0,15,16
 2463 1503 2463 1503 2401.5 1463.5 c 128,-1,17
 2340 1424 2340 1424 2269 1400 c 1,18,19
 2376 1364 2376 1364 2448 1306 c 128,-1,20
 2520 1248 2520 1248 2554 1167 c 0,21,22
 2589 1085 2589 1085 2606.5 980.5 c 128,-1,23
 2624 876 2624 876 2624 749 c 2,24,-1
 2624 625 l 2,25,26
 2624 584 2624 584 2625 550 c 128,-1,27
 2626 516 2626 516 2627 492 c 0,28,29
 2631 395 2631 395 2639.5 321.5 c 128,-1,30
 2648 248 2648 248 2661 199 c 0,31,32
 2687 100 2687 100 2769 79 c 1,33,-1
 2769 0 l 1,34,-1
 2088 0 l 1,35,36
 2073 47 2073 47 2061 101 c 128,-1,37
 2049 155 2049 155 2042 215 c 0,38,39
 2034 274 2034 274 2030 338.5 c 128,-1,40
 2026 403 2026 403 2024 471 c 0,41,42
 2023 541 2023 541 2020.5 607 c 128,-1,43
 2018 673 2018 673 2016 736 c 0,44,45
 2013 811 2013 811 2005 869 c 128,-1,46
 1997 927 1997 927 1985 967 c 0,47,48
 1973 1008 1973 1008 1943 1041 c 128,-1,49
 1913 1074 1913 1074 1866 1099 c 0,50,51
 1771 1151 1771 1151 1571 1151 c 2,52,-1
 928 1151 l 1,53,-1
 928 0 l 1,54,-1
 320 0 l 1,0,-1
928 1631 m 1,55,-1
 1683 1631 l 2,56,57
 1921 1631 1921 1631 2016 1740 c 0,58,59
 2112 1849 2112 1849 2112 2047 c 0,60,61
 2112 2207 2112 2207 2016 2318 c 0,62,63
 1920 2431 1920 2431 1700 2431 c 2,64,-1
 928 2431 l 1,65,-1
 928 1631 l 1,55,-1
EndSplineSet
EndChar
StartChar: s
Encoding: 115 115 61
Width: 2281
GlyphClass: 2
Flags: W
Fore
189 1837 m 1,0,-1
 432 2080 l 1,1,-1
 1060 1452 l 1,2,-1
 1686 2078 l 1,3,-1
 1927 1837 l 1,4,-1
 1301 1211 l 1,5,-1
 1930 582 l 1,6,-1
 1687 339 l 1,7,-1
 1058 968 l 1,8,-1
 433 342 l 1,9,-1
 191 583 l 1,10,-1
 817 1209 l 1,11,-1
 189 1837 l 1,0,-1
EndSplineSet
EndChar
StartChar: y
Encoding: 121 121 62
Width: 1593
GlyphClass: 2
Flags: W
Fore
1501 -448 m 1,0,-1
 1501 -800 l 1,1,-1
 1163 -800 l 2,2,3
 1096 -800 1096 -800 1030.5 -784.5 c 128,-1,4
 965 -769 965 -769 902 -738 c 0,5,6
 774 -676 774 -676 691 -550 c 128,-1,7
 608 -424 608 -424 608 -246 c 2,8,-1
 608 569 l 2,9,10
 608 733 608 733 479 804 c 0,11,12
 415 840 415 840 350.5 858.5 c 128,-1,13
 286 877 286 877 223 877 c 1,14,-1
 223 1255 l 1,15,16
 287 1255 287 1255 351 1273 c 128,-1,17
 415 1291 415 1291 479 1325 c 0,18,19
 608 1396 608 1396 608 1565 c 2,20,-1
 608 2383 l 2,21,22
 608 2565 608 2565 691 2691 c 0,23,24
 733 2754 733 2754 785.5 2801 c 128,-1,25
 838 2848 838 2848 901 2879 c 0,26,27
 1029 2943 1029 2943 1163 2943 c 2,28,-1
 1501 2943 l 1,29,-1
 1501 2591 l 1,30,-1
 1317 2591 l 2,31,32
 1088 2591 1088 2591 1088 2317 c 2,33,-1
 1088 1517 l 2,34,35
 1088 1497 1088 1497 1081 1463 c 128,-1,36
 1074 1429 1074 1429 1060 1382 c 0,37,38
 1031 1288 1031 1288 931 1192 c 1,39,40
 831 1094 831 1094 635 1069 c 1,41,-1
 635 1062 l 1,42,43
 906 1027 906 1027 995 872 c 0,44,45
 1040 794 1040 794 1063.5 731 c 128,-1,46
 1087 668 1087 668 1088 620 c 1,47,-1
 1088 -186 l 2,48,49
 1088 -243 1088 -243 1100 -290.5 c 128,-1,50
 1112 -338 1112 -338 1134 -374 c 0,51,52
 1181 -448 1181 -448 1317 -448 c 2,53,-1
 1501 -448 l 1,0,-1
EndSplineSet
EndChar
StartChar: bar
Encoding: 124 124 63
Width: 1143
GlyphClass: 2
Flags: W
Fore
352 -96 m 1,0,-1
 352 3006 l 1,1,-1
 800 3006 l 1,2,-1
 800 -96 l 1,3,-1
 352 -96 l 1,0,-1
EndSplineSet
EndChar
StartChar: braceright
Encoding: 125 125 64
Width: 1593
GlyphClass: 2
Flags: W
Fore
1377 1255 m 1,0,-1
 1377 877 l 1,1,2
 1245 877 1245 877 1119 806 c 0,3,4
 992 733 992 733 992 569 c 2,5,-1
 992 -246 l 2,6,7
 992 -423 992 -423 907 -550 c 0,8,9
 865 -613 865 -613 811 -660.5 c 128,-1,10
 757 -708 757 -708 692 -738 c 0,11,12
 628 -769 628 -769 561.5 -784.5 c 128,-1,13
 495 -800 495 -800 429 -800 c 2,14,-1
 94 -800 l 1,15,-1
 94 -448 l 1,16,-1
 279 -448 l 2,17,18
 512 -448 512 -448 512 -186 c 2,19,-1
 512 620 l 1,20,21
 514 668 514 668 537 730.5 c 128,-1,22
 560 793 560 793 602 870 c 0,23,24
 688 1027 688 1027 953 1062 c 1,25,-1
 953 1069 l 1,26,27
 765 1093 765 1093 666 1191 c 0,28,29
 616 1239 616 1239 585 1287.5 c 128,-1,30
 554 1336 554 1336 540 1382 c 0,31,32
 527 1429 527 1429 519.5 1463 c 128,-1,33
 512 1497 512 1497 512 1517 c 2,34,-1
 512 2317 l 2,35,36
 512 2591 512 2591 279 2591 c 2,37,-1
 94 2591 l 1,38,-1
 94 2943 l 1,39,-1
 429 2943 l 2,40,41
 562 2943 562 2943 692 2881 c 0,42,43
 757 2849 757 2849 811 2802 c 128,-1,44
 865 2755 865 2755 907 2691 c 0,45,46
 992 2565 992 2565 992 2383 c 2,47,-1
 992 1565 l 2,48,49
 992 1395 992 1395 1118 1325 c 0,50,51
 1181 1291 1181 1291 1246 1273 c 128,-1,52
 1311 1255 1311 1255 1377 1255 c 1,0,-1
EndSplineSet
EndChar
StartChar: asciitilde
Encoding: 126 126 65
Width: 2503
GlyphClass: 2
Flags: W
Fore
996 1325 m 1,0,-1
 1519 1325 l 1,1,2
 1519 1220 1519 1220 1512 1133.5 c 128,-1,3
 1505 1047 1505 1047 1491 981 c 0,4,5
 1478 916 1478 916 1448 854 c 128,-1,6
 1418 792 1418 792 1373 734 c 0,7,8
 1328 677 1328 677 1258.5 615.5 c 128,-1,9
 1189 554 1189 554 1096 489 c 1,10,11
 832 309 832 309 832 86 c 0,12,13
 832 -22 832 -22 862 -100 c 128,-1,14
 892 -178 892 -178 952 -225 c 0,15,16
 1073 -320 1073 -320 1233 -320 c 0,17,18
 1477 -320 1477 -320 1566 -183 c 0,19,20
 1611 -115 1611 -115 1637.5 -29.5 c 128,-1,21
 1664 56 1664 56 1672 159 c 1,22,-1
 2258 159 l 1,23,24
 2258 -95 2258 -95 2172 -281 c 128,-1,25
 2086 -467 2086 -467 1941 -581 c 0,26,27
 1797 -696 1797 -696 1623 -747 c 1,28,29
 1449 -800 1449 -800 1278 -800 c 0,30,31
 1083 -800 1083 -800 846 -740 c 128,-1,32
 609 -680 609 -680 417 -485 c 0,33,34
 224 -289 224 -289 224 72 c 0,35,36
 224 190 224 190 255.5 291 c 128,-1,37
 287 392 287 392 348 476 c 0,38,39
 473 645 473 645 734 829 c 0,40,41
 888 938 888 938 942 1028 c 0,42,43
 996 1117 996 1117 996 1325 c 1,0,-1
960 1599 m 1,44,-1
 960 2175 l 1,45,-1
 1536 2175 l 1,46,-1
 1536 1599 l 1,47,-1
 960 1599 l 1,44,-1
EndSplineSet
EndChar
StartChar: exclamdown
Encoding: 161 161 66
Width: 1360
GlyphClass: 2
Flags: W
Fore
368 1599 m 1,0,-1
 368 2175 l 1,1,-1
 975 2175 l 1,2,-1
 975 1599 l 1,3,-1
 368 1599 l 1,0,-1
352 -8 m 1,4,-1
 522 1366 l 1,5,-1
 830 1366 l 1,6,-1
 992 -8 l 1,7,-1
 992 -762 l 1,8,-1
 352 -762 l 1,9,-1
 352 -8 l 1,4,-1
EndSplineSet
EndChar
StartChar: sterling
Encoding: 163 163 67
Width: 3183
GlyphClass: 2
Flags: W
Fore
477 2455 m 1,0,-1
 477 342 l 1,1,-1
 2595 342 l 1,2,-1
 2595 2455 l 1,3,-1
 477 2455 l 1,0,-1
136 2798 m 1,4,-1
 2936 2798 l 1,5,-1
 2936 0 l 1,6,-1
 136 0 l 1,7,-1
 136 2798 l 1,4,-1
1536 1981 m 0,8,9
 1656 1981 1656 1981 1762.5 1935 c 128,-1,10
 1869 1889 1869 1889 1948 1810 c 128,-1,11
 2027 1731 2027 1731 2073 1625 c 128,-1,12
 2119 1519 2119 1519 2119 1398 c 0,13,14
 2119 1278 2119 1278 2073 1172 c 128,-1,15
 2027 1066 2027 1066 1948 986.5 c 128,-1,16
 1869 907 1869 907 1762.5 861.5 c 128,-1,17
 1656 816 1656 816 1536 816 c 128,-1,18
 1416 816 1416 816 1309.5 861.5 c 128,-1,19
 1203 907 1203 907 1124 986.5 c 128,-1,20
 1045 1066 1045 1066 999 1172 c 128,-1,21
 953 1278 953 1278 953 1398 c 0,22,23
 953 1519 953 1519 999 1625 c 128,-1,24
 1045 1731 1045 1731 1124 1810 c 128,-1,25
 1203 1889 1203 1889 1309.5 1935 c 128,-1,26
 1416 1981 1416 1981 1536 1981 c 0,8,9
EndSplineSet
EndChar
StartChar: currency
Encoding: 164 164 68
Width: 2392
GlyphClass: 2
Flags: W
Fore
1365 2219 m 1,0,-1
 2218 2219 l 1,1,-1
 2218 1876 l 1,2,-1
 1365 1876 l 1,3,-1
 1365 1227 l 1,4,-1
 1024 1227 l 1,5,-1
 1024 1876 l 1,6,-1
 171 1876 l 1,7,-1
 171 2219 l 1,8,-1
 1024 2219 l 1,9,-1
 1024 2865 l 1,10,-1
 1365 2865 l 1,11,-1
 1365 2219 l 1,0,-1
171 342 m 1,12,-1
 2218 342 l 1,13,-1
 2218 0 l 1,14,-1
 171 0 l 1,15,-1
 171 342 l 1,12,-1
171 1027 m 1,16,-1
 2218 1027 l 1,17,-1
 2218 684 l 1,18,-1
 171 684 l 1,19,-1
 171 1027 l 1,16,-1
EndSplineSet
EndChar
StartChar: yen
Encoding: 165 165 69
Width: 3641
GlyphClass: 2
Flags: W
Fore
3326 1651 m 1,0,-1
 2708 495 l 1,1,-1
 803 495 l 1,2,-1
 185 1652 l 1,3,4
 162 1713 162 1713 149 1778 c 128,-1,5
 136 1843 136 1843 136 1911 c 0,6,7
 136 1989 136 1989 153.5 2062.5 c 128,-1,8
 171 2136 171 2136 204 2204 c 128,-1,9
 237 2272 237 2272 284 2332 c 128,-1,10
 331 2392 331 2392 390 2443 c 128,-1,11
 449 2494 449 2494 518 2535 c 128,-1,12
 587 2576 587 2576 665 2605 c 128,-1,13
 743 2634 743 2634 828 2649 c 128,-1,14
 913 2664 913 2664 1002 2664 c 0,15,16
 1028 2664 1028 2664 1054 2662.5 c 128,-1,17
 1080 2661 1080 2661 1106 2657 c 1,18,19
 1248 2732 1248 2732 1412.5 2773.5 c 128,-1,20
 1577 2815 1577 2815 1756 2815 c 0,21,22
 1933 2815 1933 2815 2098 2773.5 c 128,-1,23
 2263 2732 2263 2732 2406 2657 c 1,24,25
 2431 2661 2431 2661 2457 2662.5 c 128,-1,26
 2483 2664 2483 2664 2509 2664 c 0,27,28
 2599 2664 2599 2664 2683.5 2649 c 128,-1,29
 2768 2634 2768 2634 2845.5 2605 c 128,-1,30
 2923 2576 2923 2576 2992.5 2535 c 128,-1,31
 3062 2494 3062 2494 3121 2443 c 128,-1,32
 3180 2392 3180 2392 3227 2332 c 128,-1,33
 3274 2272 3274 2272 3307 2204 c 128,-1,34
 3340 2136 3340 2136 3357.5 2062.5 c 128,-1,35
 3375 1989 3375 1989 3375 1911 c 0,36,37
 3375 1843 3375 1843 3361.5 1778 c 128,-1,38
 3348 1713 3348 1713 3326 1651 c 1,0,-1
1756 2286 m 1,39,40
 1813 2370 1813 2370 1894 2440 c 128,-1,41
 1975 2510 1975 2510 2075 2560 c 1,42,43
 2003 2584 2003 2584 1922 2596 c 128,-1,44
 1841 2608 1841 2608 1756 2608 c 0,45,46
 1673 2608 1673 2608 1593.5 2596.5 c 128,-1,47
 1514 2585 1514 2585 1441 2562 c 1,48,49
 1538 2511 1538 2511 1617.5 2440.5 c 128,-1,50
 1697 2370 1697 2370 1756 2286 c 1,39,40
3098 1704 m 1,51,52
 3115 1749 3115 1749 3126.5 1802 c 128,-1,53
 3138 1855 3138 1855 3138 1911 c 0,54,55
 3138 2024 3138 2024 3088.5 2124 c 128,-1,56
 3039 2224 3039 2224 2953.5 2298 c 128,-1,57
 2868 2372 2868 2372 2753.5 2415 c 128,-1,58
 2639 2458 2639 2458 2509 2458 c 128,-1,59
 2379 2458 2379 2458 2264.5 2415 c 128,-1,60
 2150 2372 2150 2372 2064.5 2298 c 128,-1,61
 1979 2224 1979 2224 1929.5 2124 c 128,-1,62
 1880 2024 1880 2024 1880 1911 c 128,-1,63
 1880 1798 1880 1798 1929.5 1698.5 c 128,-1,64
 1979 1599 1979 1599 2064 1524.5 c 128,-1,65
 2149 1450 2149 1450 2263 1407 c 128,-1,66
 2377 1364 2377 1364 2506 1365 c 0,67,68
 2530 1365 2530 1365 2551 1357 c 128,-1,69
 2572 1349 2572 1349 2588 1335 c 128,-1,70
 2604 1321 2604 1321 2613 1302.5 c 128,-1,71
 2622 1284 2622 1284 2622 1262 c 1,72,-1
 2622 1262 l 1,73,74
 2622 1241 2622 1241 2613 1222 c 128,-1,75
 2604 1203 2604 1203 2588 1189 c 128,-1,76
 2572 1175 2572 1175 2551 1166.5 c 128,-1,77
 2530 1158 2530 1158 2506 1158 c 0,78,79
 2387 1158 2387 1158 2276.5 1185.5 c 128,-1,80
 2166 1213 2166 1213 2069 1262.5 c 128,-1,81
 1972 1312 1972 1312 1892.5 1382 c 128,-1,82
 1813 1452 1813 1452 1756 1537 c 1,83,84
 1698 1452 1698 1452 1618 1382 c 128,-1,85
 1538 1312 1538 1312 1441.5 1262.5 c 128,-1,86
 1345 1213 1345 1213 1234.5 1185.5 c 128,-1,87
 1124 1158 1124 1158 1005 1158 c 0,88,89
 982 1158 982 1158 961 1166.5 c 128,-1,90
 940 1175 940 1175 924 1189 c 128,-1,91
 908 1203 908 1203 898.5 1222 c 128,-1,92
 889 1241 889 1241 889 1262 c 1,93,-1
 889 1262 l 1,94,95
 889 1284 889 1284 898.5 1302.5 c 128,-1,96
 908 1321 908 1321 924 1335 c 128,-1,97
 940 1349 940 1349 961 1357 c 128,-1,98
 982 1365 982 1365 1005 1365 c 0,99,100
 1134 1364 1134 1364 1248 1407 c 128,-1,101
 1362 1450 1362 1450 1447 1524.5 c 128,-1,102
 1532 1599 1532 1599 1581.5 1698.5 c 128,-1,103
 1631 1798 1631 1798 1631 1911 c 128,-1,104
 1631 2024 1631 2024 1581.5 2124 c 128,-1,105
 1532 2224 1532 2224 1446.5 2298 c 128,-1,106
 1361 2372 1361 2372 1246.5 2415 c 128,-1,107
 1132 2458 1132 2458 1002 2458 c 128,-1,108
 872 2458 872 2458 757.5 2415 c 128,-1,109
 643 2372 643 2372 557 2298 c 128,-1,110
 471 2224 471 2224 421.5 2124 c 128,-1,111
 372 2024 372 2024 372 1911 c 0,112,113
 372 1855 372 1855 385 1801.5 c 128,-1,114
 398 1748 398 1748 422 1700 c 1,115,-1
 938 702 l 1,116,-1
 2573 702 l 1,117,-1
 3098 1704 l 1,51,52
1859 2818 m 1,118,-1
 1653 2818 l 1,119,-1
 1653 3021 l 1,120,-1
 1554 3021 l 2,121,122
 1532 3021 1532 3021 1513.5 3029 c 128,-1,123
 1495 3037 1495 3037 1480.5 3051 c 128,-1,124
 1466 3065 1466 3065 1458 3084 c 128,-1,125
 1450 3103 1450 3103 1450 3124 c 0,126,127
 1450 3146 1450 3146 1458 3165 c 128,-1,128
 1466 3184 1466 3184 1480.5 3198 c 128,-1,129
 1495 3212 1495 3212 1513.5 3220 c 128,-1,130
 1532 3228 1532 3228 1554 3228 c 2,131,-1
 1653 3228 l 1,132,-1
 1653 3328 l 2,133,134
 1653 3350 1653 3350 1661 3368.5 c 128,-1,135
 1669 3387 1669 3387 1683 3401 c 128,-1,136
 1697 3415 1697 3415 1715.5 3423 c 128,-1,137
 1734 3431 1734 3431 1756 3431 c 1,138,-1
 1756 3431 l 1,139,140
 1777 3431 1777 3431 1796 3423 c 128,-1,141
 1815 3415 1815 3415 1829 3401 c 128,-1,142
 1843 3387 1843 3387 1851 3368.5 c 128,-1,143
 1859 3350 1859 3350 1859 3328 c 2,144,-1
 1859 3228 l 1,145,-1
 1961 3228 l 2,146,147
 1982 3228 1982 3228 2001 3220 c 128,-1,148
 2020 3212 2020 3212 2034 3198 c 128,-1,149
 2048 3184 2048 3184 2056.5 3165 c 128,-1,150
 2065 3146 2065 3146 2065 3124 c 0,151,152
 2065 3103 2065 3103 2056.5 3084 c 128,-1,153
 2048 3065 2048 3065 2034.5 3051 c 128,-1,154
 2021 3037 2021 3037 2002 3029 c 128,-1,155
 1983 3021 1983 3021 1961 3021 c 2,156,-1
 1859 3021 l 1,157,-1
 1859 2818 l 1,118,-1
804 342 m 1,158,-1
 2709 342 l 1,159,-1
 2709 0 l 1,160,-1
 804 0 l 1,161,-1
 804 342 l 1,158,-1
EndSplineSet
EndChar
StartChar: section
Encoding: 167 167 70
Width: 2736
GlyphClass: 2
Flags: W
Fore
548 342 m 1,0,-1
 2460 342 l 1,1,-1
 2460 0 l 1,2,-1
 206 0 l 1,3,-1
 206 2798 l 1,4,-1
 548 2798 l 1,5,-1
 548 342 l 1,0,-1
EndSplineSet
EndChar
StartChar: dieresis
Encoding: 168 168 71
Width: 2503
GlyphClass: 2
Flags: W
Fore
340 495 m 1,0,1
 239 637 239 637 187.5 806.5 c 128,-1,2
 136 976 136 976 136 1162 c 0,3,4
 136 1345 136 1345 190 1512 c 128,-1,5
 244 1679 244 1679 342 1819.5 c 128,-1,6
 440 1960 440 1960 575 2067.5 c 128,-1,7
 710 2175 710 2175 872 2239 c 1,8,9
 814 2285 814 2285 780.5 2341 c 128,-1,10
 747 2397 747 2397 747 2458 c 0,11,12
 747 2529 747 2529 790.5 2591.5 c 128,-1,13
 834 2654 834 2654 909.5 2700.5 c 128,-1,14
 985 2747 985 2747 1086 2774 c 128,-1,15
 1187 2801 1187 2801 1301 2801 c 0,16,17
 1416 2801 1416 2801 1517 2774 c 128,-1,18
 1618 2747 1618 2747 1693 2700.5 c 128,-1,19
 1768 2654 1768 2654 1812 2591.5 c 128,-1,20
 1856 2529 1856 2529 1856 2458 c 0,21,22
 1856 2394 1856 2394 1819.5 2337 c 128,-1,23
 1783 2280 1783 2280 1720 2236 c 1,24,25
 1880 2172 1880 2172 2014 2064.5 c 128,-1,26
 2148 1957 2148 1957 2244.5 1817.5 c 128,-1,27
 2341 1678 2341 1678 2395 1511 c 128,-1,28
 2449 1344 2449 1344 2449 1162 c 0,29,30
 2449 976 2449 976 2397.5 806.5 c 128,-1,31
 2346 637 2346 637 2245 495 c 1,32,-1
 340 495 l 1,0,1
461 702 m 1,33,-1
 2131 702 l 1,34,35
 2187 804 2187 804 2218 921 c 128,-1,36
 2249 1038 2249 1038 2249 1162 c 0,37,38
 2249 1319 2249 1319 2200.5 1462.5 c 128,-1,39
 2152 1606 2152 1606 2065.5 1725 c 128,-1,40
 1979 1844 1979 1844 1859.5 1932.5 c 128,-1,41
 1740 2021 1740 2021 1599 2071 c 1,42,43
 1527 2082 1527 2082 1477 2114.5 c 128,-1,44
 1427 2147 1427 2147 1418 2195 c 0,45,46
 1414 2221 1414 2221 1422.5 2247 c 128,-1,47
 1431 2273 1431 2273 1451 2297 c 128,-1,48
 1471 2321 1471 2321 1501 2342.5 c 128,-1,49
 1531 2364 1531 2364 1569 2381 c 1,50,51
 1633 2415 1633 2415 1633 2462 c 0,52,53
 1633 2492 1633 2492 1606 2518.5 c 128,-1,54
 1579 2545 1579 2545 1532.5 2565 c 128,-1,55
 1486 2585 1486 2585 1423.5 2596.5 c 128,-1,56
 1361 2608 1361 2608 1290 2608 c 128,-1,57
 1219 2608 1219 2608 1156.5 2596.5 c 128,-1,58
 1094 2585 1094 2585 1047.5 2565 c 128,-1,59
 1001 2545 1001 2545 974 2518.5 c 128,-1,60
 947 2492 947 2492 947 2462 c 0,61,62
 947 2435 947 2435 968.5 2411.5 c 128,-1,63
 990 2388 990 2388 1028 2367 c 0,64,65
 1089 2333 1089 2333 1121.5 2287 c 128,-1,66
 1154 2241 1154 2241 1146 2195 c 0,67,68
 1138 2152 1138 2152 1095.5 2120.5 c 128,-1,69
 1053 2089 1053 2089 988 2073 c 1,70,71
 846 2023 846 2023 726 1933.5 c 128,-1,72
 606 1844 606 1844 519.5 1725 c 128,-1,73
 433 1606 433 1606 384 1462.5 c 128,-1,74
 335 1319 335 1319 335 1162 c 0,75,76
 335 1035 335 1035 369 919 c 128,-1,77
 403 803 403 803 461 702 c 1,33,-1
342 342 m 1,78,-1
 2247 342 l 1,79,-1
 2247 0 l 1,80,-1
 342 0 l 1,81,-1
 342 342 l 1,78,-1
EndSplineSet
EndChar
StartChar: copyright
Encoding: 169 169 72
Width: 3183
GlyphClass: 2
Flags: W
Fore
3000 613 m 1,0,-1
 3000 0 l 1,1,-1
 136 0 l 1,2,-1
 136 613 l 2,3,4
 136 761 136 761 165 901.5 c 128,-1,5
 194 1042 194 1042 248.5 1171 c 128,-1,6
 303 1300 303 1300 381 1415 c 128,-1,7
 459 1530 459 1530 557 1627.5 c 128,-1,8
 655 1725 655 1725 770 1803 c 128,-1,9
 885 1881 885 1881 1013.5 1935.5 c 128,-1,10
 1142 1990 1142 1990 1282.5 2019.5 c 128,-1,11
 1423 2049 1423 2049 1572 2049 c 0,12,13
 1720 2049 1720 2049 1860.5 2019.5 c 128,-1,14
 2001 1990 2001 1990 2129.5 1935.5 c 128,-1,15
 2258 1881 2258 1881 2372.5 1803 c 128,-1,16
 2487 1725 2487 1725 2584 1627.5 c 128,-1,17
 2681 1530 2681 1530 2758.5 1415 c 128,-1,18
 2836 1300 2836 1300 2890 1171 c 128,-1,19
 2944 1042 2944 1042 2972.5 901.5 c 128,-1,20
 3001 761 3001 761 3000 613 c 1,0,-1
2659 613 m 2,21,22
 2659 726 2659 726 2637 833 c 128,-1,23
 2615 940 2615 940 2574 1038.5 c 128,-1,24
 2533 1137 2533 1137 2474 1224.5 c 128,-1,25
 2415 1312 2415 1312 2341.5 1386.5 c 128,-1,26
 2268 1461 2268 1461 2181 1520.5 c 128,-1,27
 2094 1580 2094 1580 1996 1621.5 c 128,-1,28
 1898 1663 1898 1663 1791.5 1685.5 c 128,-1,29
 1685 1708 1685 1708 1572 1708 c 128,-1,30
 1459 1708 1459 1708 1351.5 1685.5 c 128,-1,31
 1244 1663 1244 1663 1146 1621.5 c 128,-1,32
 1048 1580 1048 1580 960 1520.5 c 128,-1,33
 872 1461 872 1461 798 1386.5 c 128,-1,34
 724 1312 724 1312 664.5 1224.5 c 128,-1,35
 605 1137 605 1137 563 1038.5 c 128,-1,36
 521 940 521 940 499 833 c 128,-1,37
 477 726 477 726 477 613 c 2,38,-1
 477 342 l 1,39,-1
 2659 342 l 1,40,-1
 2659 613 l 2,21,22
EndSplineSet
EndChar
StartChar: ordfeminine
Encoding: 170 170 73
Width: 2961
GlyphClass: 2
Flags: W
Fore
648 2286 m 1,0,1
 795 2191 795 2191 939 2142 c 128,-1,2
 1083 2093 1083 2093 1224 2093 c 128,-1,3
 1365 2093 1365 2093 1510.5 2142 c 128,-1,4
 1656 2191 1656 2191 1804 2286 c 1,5,6
 1781 2247 1781 2247 1725.5 2181 c 128,-1,7
 1670 2115 1670 2115 1586 2025 c 1,8,-1
 1422 1844 l 2,9,10
 1368 1785 1368 1785 1334 1743 c 128,-1,11
 1300 1701 1300 1701 1288 1679 c 0,12,13
 1276 1655 1276 1655 1266 1610.5 c 128,-1,14
 1256 1566 1256 1566 1250 1501 c 0,15,16
 1248 1482 1248 1482 1243 1451 c 128,-1,17
 1238 1420 1238 1420 1232 1382 c 1,18,19
 1226 1420 1226 1420 1221 1451 c 128,-1,20
 1216 1482 1216 1482 1214 1501 c 0,21,22
 1205 1566 1205 1566 1194.5 1610 c 128,-1,23
 1184 1654 1184 1654 1172 1677 c 0,24,25
 1160 1701 1160 1701 1126 1743 c 128,-1,26
 1092 1785 1092 1785 1036 1844 c 1,27,-1
 868 2025 l 1,28,29
 783 2115 783 2115 728 2181 c 128,-1,30
 673 2247 673 2247 648 2286 c 1,0,1
601 428 m 1,31,32
 615 487 615 487 670 543.5 c 128,-1,33
 725 600 725 600 819 655 c 1,34,-1
 981 744 l 2,35,36
 1057 786 1057 786 1102.5 815.5 c 128,-1,37
 1148 845 1148 845 1161 859 c 0,38,39
 1176 874 1176 874 1194 908 c 128,-1,40
 1212 942 1212 942 1231 992 c 1,41,42
 1251 942 1251 942 1268 908 c 128,-1,43
 1285 874 1285 874 1298 861 c 0,44,45
 1312 845 1312 845 1356.5 815.5 c 128,-1,46
 1401 786 1401 786 1474 744 c 2,47,-1
 1633 655 l 1,48,49
 1724 600 1724 600 1778 543.5 c 128,-1,50
 1832 487 1832 487 1845 428 c 1,51,52
 1731 359 1731 359 1575.5 323.5 c 128,-1,53
 1420 288 1420 288 1224 288 c 0,54,55
 1027 288 1027 288 871 323.5 c 128,-1,56
 715 359 715 359 601 428 c 1,31,32
2111 198 m 1,57,-1
 2154 198 l 2,58,59
 2175 198 2175 198 2193 190.5 c 128,-1,60
 2211 183 2211 183 2224.5 169.5 c 128,-1,61
 2238 156 2238 156 2246 137.5 c 128,-1,62
 2254 119 2254 119 2254 99 c 2,63,-1
 2254 98 l 2,64,65
 2254 78 2254 78 2246 59.5 c 128,-1,66
 2238 41 2238 41 2224.5 27.5 c 128,-1,67
 2211 14 2211 14 2193 7 c 128,-1,68
 2175 0 2175 0 2154 0 c 2,69,-1
 306 0 l 2,70,71
 285 0 285 0 267 7 c 128,-1,72
 249 14 249 14 235.5 27.5 c 128,-1,73
 222 41 222 41 214 59.5 c 128,-1,74
 206 78 206 78 206 98 c 2,75,-1
 206 99 l 2,76,77
 206 119 206 119 214 137.5 c 128,-1,78
 222 156 222 156 235.5 169.5 c 128,-1,79
 249 183 249 183 267 190.5 c 128,-1,80
 285 198 285 198 306 198 c 2,81,-1
 349 198 l 1,82,-1
 349 467 l 2,83,84
 349 561 349 561 362.5 637.5 c 128,-1,85
 376 714 376 714 400 770 c 0,86,87
 424 827 424 827 475 897 c 128,-1,88
 526 967 526 967 602 1047 c 2,89,-1
 866 1325 l 2,90,91
 929 1391 929 1391 960.5 1435.5 c 128,-1,92
 992 1480 992 1480 992 1500 c 128,-1,93
 992 1520 992 1520 953.5 1570.5 c 128,-1,94
 915 1621 915 1621 838 1697 c 1,95,-1
 574 1969 l 2,96,97
 508 2037 508 2037 462.5 2101 c 128,-1,98
 417 2165 417 2165 396 2222 c 0,99,100
 386 2250 386 2250 377 2303 c 128,-1,101
 368 2356 368 2356 361.5 2419 c 128,-1,102
 355 2482 355 2482 352 2546.5 c 128,-1,103
 349 2611 349 2611 349 2662 c 1,104,-1
 306 2662 l 2,105,106
 286 2662 286 2662 267.5 2670 c 128,-1,107
 249 2678 249 2678 235.5 2691.5 c 128,-1,108
 222 2705 222 2705 214 2723 c 128,-1,109
 206 2741 206 2741 206 2762 c 128,-1,110
 206 2783 206 2783 214 2801 c 128,-1,111
 222 2819 222 2819 235.5 2832.5 c 128,-1,112
 249 2846 249 2846 267 2854 c 128,-1,113
 285 2862 285 2862 306 2862 c 2,114,-1
 2154 2862 l 2,115,116
 2175 2862 2175 2862 2193 2854 c 128,-1,117
 2211 2846 2211 2846 2224.5 2832.5 c 128,-1,118
 2238 2819 2238 2819 2246 2801 c 128,-1,119
 2254 2783 2254 2783 2254 2762 c 128,-1,120
 2254 2741 2254 2741 2246 2723 c 128,-1,121
 2238 2705 2238 2705 2224.5 2691.5 c 128,-1,122
 2211 2678 2211 2678 2193 2670 c 128,-1,123
 2175 2662 2175 2662 2154 2662 c 2,124,-1
 2111 2662 l 1,125,126
 2111 2611 2111 2611 2108.5 2546.5 c 128,-1,127
 2106 2482 2106 2482 2100.5 2419 c 128,-1,128
 2095 2356 2095 2356 2087 2303 c 128,-1,129
 2079 2250 2079 2250 2068 2222 c 0,130,131
 2046 2165 2046 2165 2000 2101 c 128,-1,132
 1954 2037 1954 2037 1888 1969 c 2,133,-1
 1624 1697 l 2,134,135
 1549 1621 1549 1621 1510.5 1570.5 c 128,-1,136
 1472 1520 1472 1520 1472 1500 c 128,-1,137
 1472 1480 1472 1480 1503.5 1435.5 c 128,-1,138
 1535 1391 1535 1391 1596 1325 c 1,139,-1
 1860 1047 l 2,140,141
 1937 967 1937 967 1988 897 c 128,-1,142
 2039 827 2039 827 2062 772 c 0,143,144
 2087 715 2087 715 2099 637.5 c 128,-1,145
 2111 560 2111 560 2111 464 c 2,146,-1
 2111 198 l 1,57,-1
1941 199 m 2,147,148
 1942 199 1942 199 1942 216 c 128,-1,149
 1942 233 1942 233 1941.5 258 c 128,-1,150
 1941 283 1941 283 1941 311.5 c 128,-1,151
 1941 340 1941 340 1941 363 c 2,152,-1
 1941 513 l 2,153,154
 1941 589 1941 589 1931 642.5 c 128,-1,155
 1921 696 1921 696 1905 733 c 0,156,157
 1889 772 1889 772 1845.5 830 c 128,-1,158
 1802 888 1802 888 1735 965 c 2,159,-1
 1501 1230 l 2,160,161
 1432 1309 1432 1309 1391.5 1368.5 c 128,-1,162
 1351 1428 1351 1428 1351 1470 c 0,163,164
 1351 1485 1351 1485 1358.5 1511.5 c 128,-1,165
 1366 1538 1366 1538 1383 1571.5 c 128,-1,166
 1400 1605 1400 1605 1427 1645 c 128,-1,167
 1454 1685 1454 1685 1493 1727 c 2,168,-1
 1707 1955 l 2,169,170
 1783 2037 1783 2037 1834 2095.5 c 128,-1,171
 1885 2154 1885 2154 1902 2190 c 0,172,173
 1919 2225 1919 2225 1928 2277 c 128,-1,174
 1937 2329 1937 2329 1937 2393 c 1,175,-1
 1941 2662 l 1,176,-1
 527 2662 l 1,177,-1
 527 2392 l 2,178,179
 527 2327 527 2327 537.5 2275.5 c 128,-1,180
 548 2224 548 2224 563 2190 c 0,181,182
 584 2143 584 2143 634.5 2086.5 c 128,-1,183
 685 2030 685 2030 761 1948 c 2,184,-1
 967 1727 l 2,185,186
 1046 1643 1046 1643 1081.5 1575 c 128,-1,187
 1117 1507 1117 1507 1117 1470 c 128,-1,188
 1117 1433 1117 1433 1075 1371.5 c 128,-1,189
 1033 1310 1033 1310 963 1230 c 2,190,-1
 729 965 l 2,191,192
 661 888 661 888 619.5 830 c 128,-1,193
 578 772 578 772 561 735 c 0,194,195
 545 696 545 696 535.5 642.5 c 128,-1,196
 526 589 526 589 526 513 c 1,197,-1
 527 362 l 1,198,199
 527 332 527 332 527 302.5 c 128,-1,200
 527 273 527 273 527 250 c 128,-1,201
 527 227 527 227 526 213 c 0,202,203
 526 200 526 200 526 199 c 1,204,-1
 1941 199 l 2,147,148
EndSplineSet
EndChar
StartChar: logicalnot
Encoding: 172 172 74
Width: 2961
GlyphClass: 2
Flags: W
Fore
1708 702 m 1,0,-1
 2389 702 l 1,1,-1
 2389 1145 l 1,2,3
 2304 1310 2304 1310 2238.5 1470 c 128,-1,4
 2173 1630 2173 1630 2129.5 1794.5 c 128,-1,5
 2086 1959 2086 1959 2065 2134 c 128,-1,6
 2044 2309 2044 2309 2048 2505 c 1,7,-1
 2048 2708 l 1,8,-1
 2389 2708 l 1,9,-1
 2389 3158 l 1,10,-1
 2183 3158 l 1,11,-1
 2183 2951 l 1,12,-1
 548 2951 l 1,13,-1
 548 3158 l 1,14,-1
 342 3158 l 1,15,-1
 342 2708 l 1,16,-1
 683 2708 l 1,17,-1
 683 2505 l 1,18,19
 686 2309 686 2309 665 2134 c 128,-1,20
 644 1959 644 1959 600.5 1794.5 c 128,-1,21
 557 1630 557 1630 492 1470 c 128,-1,22
 427 1310 427 1310 342 1145 c 1,23,-1
 342 702 l 1,24,-1
 1024 702 l 1,25,-1
 1024 1445 l 2,26,27
 1024 1515 1024 1515 1051 1577 c 128,-1,28
 1078 1639 1078 1639 1124.5 1685.5 c 128,-1,29
 1171 1732 1171 1732 1233 1759 c 128,-1,30
 1295 1786 1295 1786 1365 1786 c 0,31,32
 1436 1786 1436 1786 1498 1759 c 128,-1,33
 1560 1732 1560 1732 1606.5 1685.5 c 128,-1,34
 1653 1639 1653 1639 1679.5 1577 c 128,-1,35
 1706 1515 1706 1515 1706 1445 c 1,36,-1
 1708 702 l 1,0,-1
2190 3357 m 1,37,-1
 2460 3358 l 2,38,39
 2487 3358 2487 3358 2511.5 3347 c 128,-1,40
 2536 3336 2536 3336 2554.5 3317.5 c 128,-1,41
 2573 3299 2573 3299 2584 3274.5 c 128,-1,42
 2595 3250 2595 3250 2595 3222 c 2,43,-1
 2595 2640 l 2,44,45
 2595 2613 2595 2613 2584.5 2588 c 128,-1,46
 2574 2563 2574 2563 2555.5 2544.5 c 128,-1,47
 2537 2526 2537 2526 2512.5 2515.5 c 128,-1,48
 2488 2505 2488 2505 2460 2505 c 2,49,-1
 2254 2505 l 1,50,51
 2252 2313 2252 2313 2273 2141.5 c 128,-1,52
 2294 1970 2294 1970 2337 1808.5 c 128,-1,53
 2380 1647 2380 1647 2445 1490.5 c 128,-1,54
 2510 1334 2510 1334 2595 1173 c 1,55,-1
 2595 495 l 1,56,-1
 1365 495 l 1,57,-1
 136 495 l 1,58,-1
 136 1173 l 1,59,60
 221 1334 221 1334 285.5 1490.5 c 128,-1,61
 350 1647 350 1647 393.5 1808.5 c 128,-1,62
 437 1970 437 1970 458 2141.5 c 128,-1,63
 479 2313 479 2313 477 2505 c 1,64,-1
 274 2505 l 2,65,66
 247 2505 247 2505 221.5 2515.5 c 128,-1,67
 196 2526 196 2526 177 2544.5 c 128,-1,68
 158 2563 158 2563 147 2587.5 c 128,-1,69
 136 2612 136 2612 136 2640 c 2,70,-1
 136 3223 l 2,71,72
 136 3251 136 3251 146.5 3275.5 c 128,-1,73
 157 3300 157 3300 175.5 3318.5 c 128,-1,74
 194 3337 194 3337 218.5 3347.5 c 128,-1,75
 243 3358 243 3358 271 3358 c 2,76,-1
 555 3358 l 1,77,-1
 754 3358 l 1,78,-1
 754 3158 l 1,79,-1
 1159 3158 l 1,80,-1
 1159 3358 l 1,81,-1
 1572 3358 l 1,82,-1
 1572 3158 l 1,83,-1
 1977 3158 l 1,84,-1
 1977 3358 l 1,85,-1
 2190 3357 l 1,37,-1
136 342 m 1,86,-1
 2595 342 l 1,87,-1
 2595 0 l 1,88,-1
 136 0 l 1,89,-1
 136 342 l 1,86,-1
EndSplineSet
EndChar
StartChar: registered
Encoding: 174 174 75
Width: 3183
GlyphClass: 2
Flags: W
Fore
953 1977 m 1,0,-1
 953 2798 l 1,1,-1
 2936 2798 l 1,2,-1
 2936 820 l 1,3,-1
 2119 820 l 1,4,-1
 2119 0 l 1,5,-1
 136 0 l 1,6,-1
 136 1977 l 1,7,-1
 953 1977 l 1,0,-1
EndSplineSet
EndChar
StartChar: plusminus
Encoding: 177 177 76
Width: 2392
GlyphClass: 2
Flags: W
Fore
1602 955 m 0,0,1
 1520 955 1520 955 1458 935.5 c 128,-1,2
 1396 916 1396 916 1352 879 c 0,3,4
 1309 841 1309 841 1285.5 793 c 128,-1,5
 1262 745 1262 745 1260 688 c 1,6,7
 1260 601 1260 601 1305 532 c 0,8,9
 1351 463 1351 463 1429 427 c 0,10,11
 1507 390 1507 390 1602 390 c 0,12,13
 1774 390 1774 390 1859 483 c 1,14,15
 1942 577 1942 577 1942 720 c 1,16,17
 1927 820 1927 820 1840 887 c 0,18,19
 1753 955 1753 955 1602 955 c 0,0,1
965 709 m 1,20,21
 960 764 960 764 936 805.5 c 128,-1,22
 912 847 912 847 871 876 c 0,23,24
 831 904 831 904 780 918 c 128,-1,25
 729 932 729 932 668 932 c 1,26,27
 562 924 562 924 505 854 c 1,28,29
 446 785 446 785 442 683 c 1,30,31
 442 572 442 572 521 503 c 0,32,33
 599 434 599 434 713 434 c 0,34,35
 821 434 821 434 893 501 c 0,36,37
 965 569 965 569 965 709 c 1,20,21
1717 1356 m 1,38,39
 1866 1339 1866 1339 1988 1256 c 1,40,41
 2114 1173 2114 1173 2187 1023 c 128,-1,42
 2260 873 2260 873 2260 666 c 1,43,44
 2253 369 2253 369 2093 203 c 0,45,46
 2013 120 2013 120 1911 70.5 c 128,-1,47
 1809 21 1809 21 1685 5 c 0,48,49
 1646 0 1646 0 1564 0 c 0,50,51
 1402 0 1402 0 1273 70 c 0,52,53
 1209 105 1209 105 1160.5 160 c 128,-1,54
 1112 215 1112 215 1077 289 c 1,55,56
 1017 178 1017 178 913 123 c 0,57,58
 810 68 810 68 685 64 c 1,59,60
 451 64 451 64 292 222 c 0,61,62
 132 379 132 379 124 666 c 1,63,64
 124 758 124 758 141.5 839 c 128,-1,65
 159 920 159 920 193 990 c 0,66,67
 261 1129 261 1129 376 1206 c 0,68,69
 492 1284 492 1284 624 1296 c 1,70,71
 669 1296 669 1296 696 1302 c 1,72,73
 759 1300 759 1300 816.5 1285.5 c 128,-1,74
 874 1271 874 1271 924 1245 c 0,75,76
 1024 1193 1024 1193 1094 1063 c 1,77,78
 1239 1358 1239 1358 1614 1367 c 1,79,80
 1685 1356 1685 1356 1717 1356 c 1,38,39
171 1599 m 1,81,-1
 171 1941 l 1,82,-1
 2218 1941 l 1,83,-1
 2218 1599 l 1,84,-1
 171 1599 l 1,81,-1
171 2284 m 1,85,-1
 171 2627 l 1,86,-1
 2218 2627 l 1,87,-1
 2218 2284 l 1,88,-1
 171 2284 l 1,85,-1
EndSplineSet
EndChar
StartChar: acute
Encoding: 180 180 77
Width: 2392
GlyphClass: 2
Flags: W
Fore
1365 645 m 1,0,-1
 1365 0 l 1,1,-1
 1024 0 l 1,2,-1
 1024 645 l 1,3,-1
 171 645 l 1,4,-1
 171 988 l 1,5,-1
 1024 988 l 1,6,-1
 1024 1637 l 1,7,-1
 1365 1637 l 1,8,-1
 1365 988 l 1,9,-1
 2218 988 l 1,10,-1
 2218 645 l 1,11,-1
 1365 645 l 1,0,-1
171 2522 m 1,12,-1
 171 2865 l 1,13,-1
 2218 2865 l 1,14,-1
 2218 2522 l 1,15,-1
 171 2522 l 1,12,-1
171 1837 m 1,16,-1
 171 2179 l 1,17,-1
 2218 2179 l 1,18,-1
 2218 1837 l 1,19,-1
 171 1837 l 1,16,-1
EndSplineSet
EndChar
StartChar: mu
Encoding: 181 181 78
Width: 3641
GlyphClass: 2
Flags: W
Fore
1162 2423 m 0,0,1
 1198 2423 1198 2423 1229 2411.5 c 128,-1,2
 1260 2400 1260 2400 1283 2381 c 128,-1,3
 1306 2362 1306 2362 1319.5 2335.5 c 128,-1,4
 1333 2309 1333 2309 1333 2280 c 0,5,6
 1333 2250 1333 2250 1319.5 2224 c 128,-1,7
 1306 2198 1306 2198 1283 2178.5 c 128,-1,8
 1260 2159 1260 2159 1229 2148 c 128,-1,9
 1198 2137 1198 2137 1162 2137 c 0,10,11
 1127 2137 1127 2137 1096 2148 c 128,-1,12
 1065 2159 1065 2159 1042 2178.5 c 128,-1,13
 1019 2198 1019 2198 1005.5 2224 c 128,-1,14
 992 2250 992 2250 992 2280 c 0,15,16
 992 2309 992 2309 1005.5 2335.5 c 128,-1,17
 1019 2362 1019 2362 1042 2381 c 128,-1,18
 1065 2400 1065 2400 1096 2411.5 c 128,-1,19
 1127 2423 1127 2423 1162 2423 c 0,0,1
3263 495 m 1,20,-1
 896 495 l 1,21,22
 893 601 893 601 932 692.5 c 128,-1,23
 971 784 971 784 1055 854 c 1,24,25
 1354 1094 1354 1094 1499.5 1252.5 c 128,-1,26
 1645 1411 1645 1411 1639 1486 c 1,27,28
 1566 1462 1566 1462 1503.5 1450.5 c 128,-1,29
 1441 1439 1441 1439 1382 1438 c 128,-1,30
 1323 1437 1323 1437 1264 1445.5 c 128,-1,31
 1205 1454 1205 1454 1140 1470 c 1,32,33
 1091 1372 1091 1372 1045.5 1301 c 128,-1,34
 1000 1230 1000 1230 953 1182 c 128,-1,35
 906 1134 906 1134 854 1106 c 128,-1,36
 802 1078 802 1078 738 1066 c 0,37,38
 717 1062 717 1062 704 1060 c 128,-1,39
 691 1058 691 1058 678.5 1058 c 128,-1,40
 666 1058 666 1058 651 1058.5 c 128,-1,41
 636 1059 636 1059 612 1059 c 1,42,43
 593 1056 593 1056 572 1063 c 128,-1,44
 551 1070 551 1070 528.5 1081 c 128,-1,45
 506 1092 506 1092 484 1103.5 c 128,-1,46
 462 1115 462 1115 441 1123 c 128,-1,47
 420 1131 420 1131 408.5 1142 c 128,-1,48
 397 1153 397 1153 387.5 1168 c 128,-1,49
 378 1183 378 1183 367 1200 c 128,-1,50
 356 1217 356 1217 335 1237 c 0,51,52
 313 1259 313 1259 289.5 1279 c 128,-1,53
 266 1299 266 1299 245 1317 c 128,-1,54
 224 1335 224 1335 206.5 1350.5 c 128,-1,55
 189 1366 189 1366 178 1380 c 0,56,57
 174 1385 174 1385 167 1408.5 c 128,-1,58
 160 1432 160 1432 153 1460 c 128,-1,59
 146 1488 146 1488 141 1512.5 c 128,-1,60
 136 1537 136 1537 136 1544 c 0,61,62
 138 1592 138 1592 149 1629.5 c 128,-1,63
 160 1667 160 1667 182 1705.5 c 128,-1,64
 204 1744 204 1744 238 1789.5 c 128,-1,65
 272 1835 272 1835 322 1900 c 0,66,67
 374 1967 374 1967 414 2019 c 128,-1,68
 454 2071 454 2071 485.5 2114 c 128,-1,69
 517 2157 517 2157 540.5 2196 c 128,-1,70
 564 2235 564 2235 583 2277 c 0,71,72
 595 2304 595 2304 601 2327.5 c 128,-1,73
 607 2351 607 2351 610 2370 c 128,-1,74
 613 2389 613 2389 614.5 2403 c 128,-1,75
 616 2417 616 2417 620 2424 c 0,76,77
 637 2457 637 2457 673 2501.5 c 128,-1,78
 709 2546 709 2546 767 2611 c 1,79,80
 790 2648 790 2648 819.5 2684 c 128,-1,81
 849 2720 849 2720 866 2744 c 0,82,83
 885 2770 885 2770 899.5 2788 c 128,-1,84
 914 2806 914 2806 925 2817.5 c 128,-1,85
 936 2829 936 2829 943.5 2836.5 c 128,-1,86
 951 2844 951 2844 955 2851 c 0,87,88
 964 2865 964 2865 975 2888 c 128,-1,89
 986 2911 986 2911 990 2936 c 0,90,91
 995 2958 995 2958 993.5 2975.5 c 128,-1,92
 992 2993 992 2993 987.5 3008.5 c 128,-1,93
 983 3024 983 3024 976 3039.5 c 128,-1,94
 969 3055 969 3055 962 3072 c 0,95,96
 946 3107 946 3107 937.5 3135 c 128,-1,97
 929 3163 929 3163 920 3183 c 0,98,99
 911 3202 911 3202 904 3231.5 c 128,-1,100
 897 3261 897 3261 891 3286 c 1,101,102
 882 3312 882 3312 879 3336 c 128,-1,103
 876 3360 876 3360 880 3368 c 0,104,105
 889 3385 889 3385 901.5 3395 c 128,-1,106
 914 3405 914 3405 931 3410 c 0,107,108
 948 3414 948 3414 967 3411.5 c 128,-1,109
 986 3409 986 3409 1007 3396 c 1,110,111
 1023 3384 1023 3384 1047.5 3375.5 c 128,-1,112
 1072 3367 1072 3367 1090 3357 c 1,113,114
 1108 3345 1108 3345 1138 3323.5 c 128,-1,115
 1168 3302 1168 3302 1204 3268 c 1,116,117
 1239 3232 1239 3232 1256.5 3211.5 c 128,-1,118
 1274 3191 1274 3191 1289 3179 c 0,119,120
 1305 3167 1305 3167 1323 3156 c 128,-1,121
 1341 3145 1341 3145 1357 3133 c 0,122,123
 1366 3125 1366 3125 1380 3120.5 c 128,-1,124
 1394 3116 1394 3116 1409 3114 c 128,-1,125
 1424 3112 1424 3112 1438.5 3112.5 c 128,-1,126
 1453 3113 1453 3113 1463 3115 c 0,127,128
 1486 3119 1486 3119 1503 3135 c 128,-1,129
 1520 3151 1520 3151 1531 3172 c 0,130,131
 1540 3190 1540 3190 1543.5 3200 c 128,-1,132
 1547 3210 1547 3210 1547.5 3216.5 c 128,-1,133
 1548 3223 1548 3223 1547.5 3227 c 128,-1,134
 1547 3231 1547 3231 1548 3236 c 0,135,136
 1554 3263 1554 3263 1557.5 3283.5 c 128,-1,137
 1561 3304 1561 3304 1566 3336 c 0,138,139
 1572 3369 1572 3369 1587 3383.5 c 128,-1,140
 1602 3398 1602 3398 1614 3408 c 128,-1,141
 1626 3418 1626 3418 1639.5 3424.5 c 128,-1,142
 1653 3431 1653 3431 1664 3430 c 0,143,144
 1686 3428 1686 3428 1710 3394 c 128,-1,145
 1734 3360 1734 3360 1758 3297 c 1,146,147
 1772 3265 1772 3265 1782 3242 c 128,-1,148
 1792 3219 1792 3219 1799 3201 c 128,-1,149
 1806 3183 1806 3183 1812.5 3169.5 c 128,-1,150
 1819 3156 1819 3156 1825 3143 c 0,151,152
 1831 3131 1831 3131 1836.5 3122 c 128,-1,153
 1842 3113 1842 3113 1847.5 3104.5 c 128,-1,154
 1853 3096 1853 3096 1859.5 3086 c 128,-1,155
 1866 3076 1866 3076 1873 3062 c 0,156,157
 1889 3033 1889 3033 1905.5 3010.5 c 128,-1,158
 1922 2988 1922 2988 1935 2979 c 1,159,160
 1948 2967 1948 2967 1963 2958.5 c 128,-1,161
 1978 2950 1978 2950 1995 2948 c 1,162,163
 2011 2944 2011 2944 2028 2940.5 c 128,-1,164
 2045 2937 2045 2937 2056 2936 c 0,165,166
 2092 2933 2092 2933 2121.5 2931 c 128,-1,167
 2151 2929 2151 2929 2170 2927 c 0,168,169
 2178 2927 2178 2927 2196.5 2925.5 c 128,-1,170
 2215 2924 2215 2924 2240 2922 c 1,171,172
 2293 2904 2293 2904 2338 2882.5 c 128,-1,173
 2383 2861 2383 2861 2417 2842 c 0,174,175
 2454 2822 2454 2822 2498 2789 c 128,-1,176
 2542 2756 2542 2756 2593 2713 c 128,-1,177
 2644 2670 2644 2670 2688 2626 c 128,-1,178
 2732 2582 2732 2582 2761 2540 c 1,179,180
 2793 2499 2793 2499 2831 2439 c 128,-1,181
 2869 2379 2869 2379 2912 2303 c 0,182,183
 2954 2227 2954 2227 2988.5 2160.5 c 128,-1,184
 3023 2094 3023 2094 3045 2037 c 0,185,186
 3067 1979 3067 1979 3092.5 1897 c 128,-1,187
 3118 1815 3118 1815 3147 1710 c 0,188,189
 3176 1602 3176 1602 3194.5 1511.5 c 128,-1,190
 3213 1421 3213 1421 3223 1348 c 128,-1,191
 3233 1275 3233 1275 3241 1194.5 c 128,-1,192
 3249 1114 3249 1114 3251 1027 c 0,193,194
 3254 941 3254 941 3258 872 c 128,-1,195
 3262 803 3262 803 3262 759 c 0,196,197
 3262 738 3262 738 3262 703.5 c 128,-1,198
 3262 669 3262 669 3262.5 631 c 128,-1,199
 3263 593 3263 593 3263 556.5 c 128,-1,200
 3263 520 3263 520 3263 495 c 1,20,-1
1384 2908 m 1,201,202
 1366 2920 1366 2920 1352.5 2928 c 128,-1,203
 1339 2936 1339 2936 1327.5 2943 c 128,-1,204
 1316 2950 1316 2950 1305.5 2956.5 c 128,-1,205
 1295 2963 1295 2963 1282 2972 c 0,206,207
 1257 2989 1257 2989 1236 3006.5 c 128,-1,208
 1215 3024 1215 3024 1186 3051 c 1,209,210
 1154 3075 1154 3075 1146 3071 c 128,-1,211
 1138 3067 1138 3067 1143 3033 c 1,212,213
 1155 2988 1155 2988 1160.5 2956 c 128,-1,214
 1166 2924 1166 2924 1166.5 2900.5 c 128,-1,215
 1167 2877 1167 2877 1164 2860 c 128,-1,216
 1161 2843 1161 2843 1158 2829 c 1,217,218
 1147 2808 1147 2808 1138.5 2790 c 128,-1,219
 1130 2772 1130 2772 1119.5 2752 c 128,-1,220
 1109 2732 1109 2732 1092 2708 c 128,-1,221
 1075 2684 1075 2684 1047 2651 c 0,222,223
 1038 2639 1038 2639 1023.5 2625 c 128,-1,224
 1009 2611 1009 2611 993 2593.5 c 128,-1,225
 977 2576 977 2576 961 2555 c 128,-1,226
 945 2534 945 2534 932 2509 c 1,227,228
 894 2465 894 2465 865 2421.5 c 128,-1,229
 836 2378 836 2378 816 2337 c 0,230,231
 807 2317 807 2317 796.5 2298 c 128,-1,232
 786 2279 786 2279 775 2255 c 128,-1,233
 764 2231 764 2231 753 2199.5 c 128,-1,234
 742 2168 742 2168 731 2123 c 0,235,236
 729 2114 729 2114 717.5 2095 c 128,-1,237
 706 2076 706 2076 687 2050.5 c 128,-1,238
 668 2025 668 2025 643 1995.5 c 128,-1,239
 618 1966 618 1966 589 1937 c 0,240,241
 564 1912 564 1912 535.5 1884 c 128,-1,242
 507 1856 507 1856 477.5 1823.5 c 128,-1,243
 448 1791 448 1791 420 1753.5 c 128,-1,244
 392 1716 392 1716 369 1673 c 0,245,246
 356 1649 356 1649 346.5 1632.5 c 128,-1,247
 337 1616 337 1616 332 1602 c 128,-1,248
 327 1588 327 1588 327.5 1573 c 128,-1,249
 328 1558 328 1558 335 1537 c 0,250,251
 348 1497 348 1497 358.5 1475.5 c 128,-1,252
 369 1454 369 1454 383.5 1438.5 c 128,-1,253
 398 1423 398 1423 418 1408 c 128,-1,254
 438 1393 438 1393 470 1366 c 1,255,256
 491 1358 491 1358 510 1339 c 128,-1,257
 529 1320 529 1320 547.5 1301 c 128,-1,258
 566 1282 566 1282 585.5 1267 c 128,-1,259
 605 1252 605 1252 626 1252 c 0,260,261
 661 1252 661 1252 681.5 1252.5 c 128,-1,262
 702 1253 702 1253 716 1255.5 c 128,-1,263
 730 1258 730 1258 742.5 1263.5 c 128,-1,264
 755 1269 755 1269 774 1280 c 0,265,266
 814 1303 814 1303 845.5 1335 c 128,-1,267
 877 1367 877 1367 903 1405.5 c 128,-1,268
 929 1444 929 1444 951 1488 c 128,-1,269
 973 1532 973 1532 994 1580 c 1,270,271
 1013 1604 1013 1604 1030 1627 c 128,-1,272
 1047 1650 1047 1650 1070 1664.5 c 128,-1,273
 1093 1679 1093 1679 1125.5 1681 c 128,-1,274
 1158 1683 1158 1683 1207 1666 c 1,275,276
 1248 1649 1248 1649 1288 1647 c 128,-1,277
 1328 1645 1328 1645 1369 1645 c 0,278,279
 1453 1645 1453 1645 1526.5 1676.5 c 128,-1,280
 1600 1708 1600 1708 1654.5 1761 c 128,-1,281
 1709 1814 1709 1814 1740 1882.5 c 128,-1,282
 1771 1951 1771 1951 1768 2025 c 1,283,-1
 1762 2113 l 1,284,285
 1762 2134 1762 2134 1770 2153 c 128,-1,286
 1778 2172 1778 2172 1792 2186 c 128,-1,287
 1806 2200 1806 2200 1824.5 2208 c 128,-1,288
 1843 2216 1843 2216 1864 2216 c 2,289,-1
 1865 2216 l 2,290,291
 1886 2216 1886 2216 1905 2208 c 128,-1,292
 1924 2200 1924 2200 1938 2186 c 128,-1,293
 1952 2172 1952 2172 1960 2153 c 128,-1,294
 1968 2134 1968 2134 1968 2113 c 1,295,-1
 1974 2029 l 1,296,297
 1976 1919 1976 1919 1936 1817.5 c 128,-1,298
 1896 1716 1896 1716 1831 1637 c 1,299,300
 1847 1549 1847 1549 1846.5 1490.5 c 128,-1,301
 1846 1432 1846 1432 1831.5 1387.5 c 128,-1,302
 1817 1343 1817 1343 1790 1302.5 c 128,-1,303
 1763 1262 1763 1262 1726 1209 c 0,304,305
 1686 1149 1686 1149 1635 1093.5 c 128,-1,306
 1584 1038 1584 1038 1517.5 978.5 c 128,-1,307
 1451 919 1451 919 1367 851.5 c 128,-1,308
 1283 784 1283 784 1175 702 c 1,309,-1
 3059 702 l 1,310,311
 3062 752 3062 752 3064.5 810 c 128,-1,312
 3067 868 3067 868 3065 934 c 0,313,314
 3061 1104 3061 1104 3041.5 1252.5 c 128,-1,315
 3022 1401 3022 1401 2993 1525 c 0,316,317
 2963 1649 2963 1649 2936.5 1744.5 c 128,-1,318
 2910 1840 2910 1840 2888 1900 c 1,319,320
 2867 1963 2867 1963 2837.5 2025.5 c 128,-1,321
 2808 2088 2808 2088 2775 2146 c 0,322,323
 2740 2208 2740 2208 2707 2265 c 128,-1,324
 2674 2322 2674 2322 2646 2372 c 1,325,326
 2614 2419 2614 2419 2579.5 2450.5 c 128,-1,327
 2545 2482 2545 2482 2518 2507 c 0,328,329
 2483 2540 2483 2540 2445.5 2574.5 c 128,-1,330
 2408 2609 2408 2609 2378 2633 c 0,331,332
 2359 2649 2359 2649 2344.5 2659.5 c 128,-1,333
 2330 2670 2330 2670 2316.5 2677.5 c 128,-1,334
 2303 2685 2303 2685 2290 2691.5 c 128,-1,335
 2277 2698 2277 2698 2261 2705 c 0,336,337
 2250 2710 2250 2710 2231 2713 c 128,-1,338
 2212 2716 2212 2716 2192 2718 c 128,-1,339
 2172 2720 2172 2720 2153 2721.5 c 128,-1,340
 2134 2723 2134 2723 2121 2723 c 0,341,342
 2096 2723 2096 2723 2073 2724.5 c 128,-1,343
 2050 2726 2050 2726 2018 2729 c 0,344,345
 2007 2730 2007 2730 1986 2731.5 c 128,-1,346
 1965 2733 1965 2733 1941 2739 c 0,347,348
 1921 2745 1921 2745 1902 2752.5 c 128,-1,349
 1883 2760 1883 2760 1875 2761 c 0,350,351
 1864 2762 1864 2762 1847.5 2778 c 128,-1,352
 1831 2794 1831 2794 1817 2807 c 0,353,354
 1803 2819 1803 2819 1793 2835.5 c 128,-1,355
 1783 2852 1783 2852 1774 2871 c 0,356,357
 1763 2893 1763 2893 1755 2914 c 128,-1,358
 1747 2935 1747 2935 1733 2958 c 0,359,360
 1717 2984 1717 2984 1706 3000 c 128,-1,361
 1695 3016 1695 3016 1676 3029 c 0,362,363
 1672 3032 1672 3032 1664.5 3028.5 c 128,-1,364
 1657 3025 1657 3025 1647.5 3017.5 c 128,-1,365
 1638 3010 1638 3010 1628 2999.5 c 128,-1,366
 1618 2989 1618 2989 1609 2978 c 0,367,368
 1595 2962 1595 2962 1586.5 2952.5 c 128,-1,369
 1578 2943 1578 2943 1570 2936.5 c 128,-1,370
 1562 2930 1562 2930 1552.5 2925 c 128,-1,371
 1543 2920 1543 2920 1527 2911 c 0,372,373
 1510 2903 1510 2903 1495.5 2899 c 128,-1,374
 1481 2895 1481 2895 1465.5 2895.5 c 128,-1,375
 1450 2896 1450 2896 1430.5 2899.5 c 128,-1,376
 1411 2903 1411 2903 1384 2908 c 1,201,202
896 342 m 1,377,-1
 3263 342 l 1,378,-1
 3263 0 l 1,379,-1
 896 0 l 1,380,-1
 896 342 l 1,377,-1
EndSplineSet
EndChar
StartChar: paragraph
Encoding: 182 182 79
Width: 3641
GlyphClass: 2
Flags: W
Fore
2662 2530 m 0,0,1
 2577 2530 2577 2530 2502 2497.5 c 128,-1,2
 2427 2465 2427 2465 2371 2409 c 128,-1,3
 2315 2353 2315 2353 2282.5 2278 c 128,-1,4
 2250 2203 2250 2203 2250 2118 c 0,5,6
 2250 2032 2250 2032 2282.5 1957 c 128,-1,7
 2315 1882 2315 1882 2371 1826 c 128,-1,8
 2427 1770 2427 1770 2502 1738 c 128,-1,9
 2577 1706 2577 1706 2662 1706 c 0,10,11
 2748 1706 2748 1706 2823 1738 c 128,-1,12
 2898 1770 2898 1770 2954 1826 c 128,-1,13
 3010 1882 3010 1882 3042 1957 c 128,-1,14
 3074 2032 3074 2032 3074 2118 c 0,15,16
 3074 2203 3074 2203 3042 2278 c 128,-1,17
 3010 2353 3010 2353 2954 2409 c 128,-1,18
 2898 2465 2898 2465 2823 2497.5 c 128,-1,19
 2748 2530 2748 2530 2662 2530 c 0,0,1
1843 1710 m 0,20,21
 1758 1710 1758 1710 1683 1678 c 128,-1,22
 1608 1646 1608 1646 1552 1590 c 128,-1,23
 1496 1534 1496 1534 1463.5 1459 c 128,-1,24
 1431 1384 1431 1384 1431 1298 c 0,25,26
 1431 1213 1431 1213 1463.5 1138 c 128,-1,27
 1496 1063 1496 1063 1552 1007 c 128,-1,28
 1608 951 1608 951 1683 918.5 c 128,-1,29
 1758 886 1758 886 1843 886 c 128,-1,30
 1928 886 1928 886 2003.5 918.5 c 128,-1,31
 2079 951 2079 951 2135 1007 c 128,-1,32
 2191 1063 2191 1063 2223 1138 c 128,-1,33
 2255 1213 2255 1213 2255 1298 c 0,34,35
 2255 1384 2255 1384 2223 1459 c 128,-1,36
 2191 1534 2191 1534 2135 1590 c 128,-1,37
 2079 1646 2079 1646 2003.5 1678 c 128,-1,38
 1928 1710 1928 1710 1843 1710 c 0,20,21
1024 891 m 0,39,40
 939 891 939 891 863.5 859 c 128,-1,41
 788 827 788 827 732.5 771 c 128,-1,42
 677 715 677 715 644.5 639.5 c 128,-1,43
 612 564 612 564 612 479 c 128,-1,44
 612 394 612 394 644.5 319 c 128,-1,45
 677 244 677 244 732.5 188 c 128,-1,46
 788 132 788 132 863.5 99.5 c 128,-1,47
 939 67 939 67 1024 67 c 128,-1,48
 1109 67 1109 67 1184.5 99.5 c 128,-1,49
 1260 132 1260 132 1315.5 188 c 128,-1,50
 1371 244 1371 244 1403.5 319 c 128,-1,51
 1436 394 1436 394 1436 479 c 128,-1,52
 1436 564 1436 564 1403.5 639.5 c 128,-1,53
 1371 715 1371 715 1315.5 771 c 128,-1,54
 1260 827 1260 827 1184.5 859 c 128,-1,55
 1109 891 1109 891 1024 891 c 0,39,40
1093 1226 m 1,56,57
 1092 1242 1092 1242 1091 1260.5 c 128,-1,58
 1090 1279 1090 1279 1090 1298 c 0,59,60
 1090 1376 1090 1376 1105.5 1450 c 128,-1,61
 1121 1524 1121 1524 1149.5 1591.5 c 128,-1,62
 1178 1659 1178 1659 1219 1719 c 128,-1,63
 1260 1779 1260 1779 1311 1830.5 c 128,-1,64
 1362 1882 1362 1882 1422.5 1923 c 128,-1,65
 1483 1964 1483 1964 1550.5 1992.5 c 128,-1,66
 1618 2021 1618 2021 1691.5 2036.5 c 128,-1,67
 1765 2052 1765 2052 1843 2052 c 0,68,69
 1860 2052 1860 2052 1877 2050.5 c 128,-1,70
 1894 2049 1894 2049 1912 2045 c 1,71,72
 1911 2061 1911 2061 1910 2079.5 c 128,-1,73
 1909 2098 1909 2098 1909 2118 c 0,74,75
 1909 2195 1909 2195 1924.5 2269 c 128,-1,76
 1940 2343 1940 2343 1968.5 2410.5 c 128,-1,77
 1997 2478 1997 2478 2038 2538.5 c 128,-1,78
 2079 2599 2079 2599 2130.5 2650 c 128,-1,79
 2182 2701 2182 2701 2242 2742 c 128,-1,80
 2302 2783 2302 2783 2369.5 2811.5 c 128,-1,81
 2437 2840 2437 2840 2511 2855.5 c 128,-1,82
 2585 2871 2585 2871 2662 2871 c 0,83,84
 2740 2871 2740 2871 2814 2855.5 c 128,-1,85
 2888 2840 2888 2840 2955.5 2811.5 c 128,-1,86
 3023 2783 3023 2783 3083 2742 c 128,-1,87
 3143 2701 3143 2701 3194.5 2650 c 128,-1,88
 3246 2599 3246 2599 3287 2538.5 c 128,-1,89
 3328 2478 3328 2478 3356.5 2410.5 c 128,-1,90
 3385 2343 3385 2343 3400.5 2269 c 128,-1,91
 3416 2195 3416 2195 3416 2118 c 0,92,93
 3416 2040 3416 2040 3400.5 1966 c 128,-1,94
 3385 1892 3385 1892 3356.5 1824.5 c 128,-1,95
 3328 1757 3328 1757 3287 1697 c 128,-1,96
 3246 1637 3246 1637 3194.5 1585.5 c 128,-1,97
 3143 1534 3143 1534 3083 1493 c 128,-1,98
 3023 1452 3023 1452 2955.5 1423.5 c 128,-1,99
 2888 1395 2888 1395 2814 1379.5 c 128,-1,100
 2740 1364 2740 1364 2662 1364 c 0,101,102
 2644 1364 2644 1364 2626.5 1365.5 c 128,-1,103
 2609 1367 2609 1367 2592 1370 c 1,104,105
 2594 1352 2594 1352 2595 1334 c 128,-1,106
 2596 1316 2596 1316 2596 1298 c 0,107,108
 2596 1221 2596 1221 2581 1147 c 128,-1,109
 2566 1073 2566 1073 2537 1005.5 c 128,-1,110
 2508 938 2508 938 2467 878 c 128,-1,111
 2426 818 2426 818 2375 766.5 c 128,-1,112
 2324 715 2324 715 2264 674 c 128,-1,113
 2204 633 2204 633 2136 604.5 c 128,-1,114
 2068 576 2068 576 1994.5 560.5 c 128,-1,115
 1921 545 1921 545 1843 545 c 0,116,117
 1825 545 1825 545 1807.5 545.5 c 128,-1,118
 1790 546 1790 546 1774 541 c 1,119,120
 1776 522 1776 522 1776.5 507.5 c 128,-1,121
 1777 493 1777 493 1777 479 c 0,122,123
 1777 401 1777 401 1762 327.5 c 128,-1,124
 1747 254 1747 254 1718 186.5 c 128,-1,125
 1689 119 1689 119 1648 59 c 128,-1,126
 1607 -1 1607 -1 1556 -52 c 128,-1,127
 1505 -103 1505 -103 1444.5 -144 c 128,-1,128
 1384 -185 1384 -185 1316.5 -213.5 c 128,-1,129
 1249 -242 1249 -242 1175.5 -257.5 c 128,-1,130
 1102 -273 1102 -273 1024 -273 c 128,-1,131
 946 -273 946 -273 872.5 -257.5 c 128,-1,132
 799 -242 799 -242 731.5 -213.5 c 128,-1,133
 664 -185 664 -185 603.5 -144 c 128,-1,134
 543 -103 543 -103 492 -52 c 128,-1,135
 441 -1 441 -1 400 59 c 128,-1,136
 359 119 359 119 330 186.5 c 128,-1,137
 301 254 301 254 286 327.5 c 128,-1,138
 271 401 271 401 271 479 c 128,-1,139
 271 557 271 557 286 631 c 128,-1,140
 301 705 301 705 330 772.5 c 128,-1,141
 359 840 359 840 400 900 c 128,-1,142
 441 960 441 960 492 1011.5 c 128,-1,143
 543 1063 543 1063 603.5 1103.5 c 128,-1,144
 664 1144 664 1144 731.5 1173 c 128,-1,145
 799 1202 799 1202 872.5 1217 c 128,-1,146
 946 1232 946 1232 1024 1232 c 0,147,148
 1041 1232 1041 1232 1058 1231 c 128,-1,149
 1075 1230 1075 1230 1093 1226 c 1,56,57
EndSplineSet
EndChar
StartChar: periodcentered
Encoding: 183 183 80
Width: 3183
GlyphClass: 2
Flags: W
Fore
136 2798 m 1,0,-1
 2936 2798 l 1,1,-1
 2936 0 l 1,2,-1
 136 0 l 1,3,-1
 136 2798 l 1,0,-1
477 2455 m 1,4,-1
 477 342 l 1,5,-1
 2595 342 l 1,6,-1
 2595 2455 l 1,7,-1
 477 2455 l 1,4,-1
2112 2332 m 1,8,-1
 2179 1731 l 1,9,-1
 2123 1726 l 1,10,11
 2091 1819 2091 1819 2008 1905 c 0,12,13
 1925 1990 1925 1990 1820 2040 c 0,14,15
 1768 2064 1768 2064 1716.5 2077 c 128,-1,16
 1665 2090 1665 2090 1615 2090 c 0,17,18
 1512 2090 1512 2090 1435 2033 c 0,19,20
 1356 1976 1356 1976 1344 1883 c 1,21,22
 1349 1817 1349 1817 1408 1763 c 0,23,24
 1468 1707 1468 1707 1598 1678 c 1,25,26
 2108 1554 2108 1554 2249 1414 c 1,27,28
 2297 1365 2297 1365 2330 1283 c 0,29,30
 2364 1200 2364 1200 2364 1103 c 0,31,32
 2364 976 2364 976 2305 869 c 1,33,34
 2253 763 2253 763 2168.5 686 c 128,-1,35
 2084 609 2084 609 1969 562 c 0,36,37
 1736 467 1736 467 1394 467 c 0,38,39
 1304 467 1304 467 1242 477 c 0,40,41
 1212 482 1212 482 1169.5 490.5 c 128,-1,42
 1127 499 1127 499 1074 509 c 0,43,44
 1020 520 1020 520 982.5 525.5 c 128,-1,45
 945 531 945 531 923 531 c 0,46,47
 832 531 832 531 778 467 c 1,48,-1
 720 1212 l 1,49,-1
 778 1218 l 1,50,51
 787 1157 787 1157 806 1100.5 c 128,-1,52
 825 1044 825 1044 854 995 c 0,53,54
 911 895 911 895 999 824 c 0,55,56
 1087 752 1087 752 1187 716 c 0,57,58
 1238 698 1238 698 1290 688 c 128,-1,59
 1342 678 1342 678 1394 677 c 1,60,61
 1470 681 1470 681 1536.5 698.5 c 128,-1,62
 1603 716 1603 716 1659 747 c 0,63,64
 1772 810 1772 810 1772 946 c 0,65,66
 1772 1058 1772 1058 1646 1119 c 1,67,68
 1609 1135 1609 1135 1541 1159 c 128,-1,69
 1473 1183 1473 1183 1375 1212 c 0,70,71
 1276 1243 1276 1243 1197.5 1271.5 c 128,-1,72
 1119 1300 1119 1300 1060 1327 c 128,-1,73
 1001 1354 1001 1354 951 1393 c 128,-1,74
 901 1432 901 1432 860 1482 c 0,75,76
 778 1583 778 1583 778 1741 c 0,77,78
 778 1877 778 1877 860 2012 c 128,-1,79
 942 2147 942 2147 1112 2234 c 0,80,81
 1285 2322 1285 2322 1531 2322 c 0,82,83
 1626 2322 1626 2322 1764 2291 c 0,84,85
 1833 2276 1833 2276 1878.5 2267.5 c 128,-1,86
 1924 2259 1924 2259 1944 2258 c 1,87,88
 1998 2262 1998 2262 2040 2281 c 128,-1,89
 2082 2300 2082 2300 2112 2332 c 1,8,-1
EndSplineSet
EndChar
StartChar: cedilla
Encoding: 184 184 81
Width: 2736
GlyphClass: 2
Flags: W
Fore
2119 342 m 1,0,-1
 2119 2798 l 1,1,-1
 2460 2798 l 1,2,-1
 2460 0 l 1,3,-1
 206 0 l 1,4,-1
 206 342 l 1,5,-1
 2119 342 l 1,0,-1
EndSplineSet
EndChar
StartChar: ordmasculine
Encoding: 186 186 82
Width: 3600
GlyphClass: 2
Flags: W
Fore
2221 639 m 1,0,-1
 2688 639 l 1,1,-1
 2688 1362 l 1,2,-1
 2221 639 l 1,0,-1
3072 1758 m 1,3,-1
 3072 639 l 1,4,-1
 3281 639 l 1,5,-1
 3281 383 l 1,6,-1
 3072 383 l 1,7,-1
 3072 0 l 1,8,-1
 2688 0 l 1,9,-1
 2688 383 l 1,10,-1
 1927 383 l 1,11,-1
 1927 657 l 1,12,-1
 2642 1758 l 1,13,-1
 3072 1758 l 1,3,-1
743 -64 m 1,14,-1
 2498 2911 l 1,15,-1
 2824 2911 l 1,16,-1
 1056 -64 l 1,17,-1
 743 -64 l 1,14,-1
66 1704 m 1,18,-1
 428 1704 l 1,19,20
 428 1407 428 1407 702 1407 c 0,21,22
 963 1407 963 1407 963 1676 c 0,23,24
 963 1853 963 1853 855 1901 c 0,25,26
 746 1951 746 1951 559 1951 c 1,27,-1
 559 2175 l 1,28,-1
 621 2175 l 2,29,30
 755 2175 755 2175 841 2213 c 0,31,32
 928 2253 928 2253 928 2406 c 0,33,34
 928 2482 928 2482 881 2551 c 0,35,36
 833 2623 833 2623 703 2623 c 0,37,38
 445 2623 445 2623 445 2356 c 1,39,-1
 102 2356 l 1,40,41
 102 2482 102 2482 141 2583.5 c 128,-1,42
 180 2685 180 2685 257 2759 c 0,43,44
 335 2834 335 2834 450.5 2872.5 c 128,-1,45
 566 2911 566 2911 718 2911 c 0,46,47
 856 2911 856 2911 986 2864 c 0,48,49
 1117 2817 1117 2817 1203 2709 c 0,50,51
 1290 2600 1290 2600 1290 2430 c 0,52,53
 1290 2305 1290 2305 1227 2220 c 0,54,55
 1196 2177 1196 2177 1158.5 2146.5 c 128,-1,56
 1121 2116 1121 2116 1080 2098 c 1,57,-1
 1080 2091 l 1,58,59
 1162 2069 1162 2069 1253 1973 c 0,60,61
 1298 1925 1298 1925 1321 1851.5 c 128,-1,62
 1344 1778 1344 1778 1344 1681 c 0,63,64
 1344 1599 1344 1599 1324 1526.5 c 128,-1,65
 1304 1454 1304 1454 1265 1391 c 0,66,67
 1187 1261 1187 1261 1042 1191 c 0,68,69
 970 1155 970 1155 888.5 1137 c 128,-1,70
 807 1119 807 1119 717 1119 c 0,71,72
 583 1119 583 1119 438 1158 c 128,-1,73
 293 1197 293 1197 180 1327 c 0,74,75
 66 1457 66 1457 66 1704 c 1,18,-1
EndSplineSet
EndChar
StartChar: questiondown
Encoding: 191 191 83
Width: 2503
GlyphClass: 2
Flags: W
Fore
1287 1129 m 0,0,1
 1194 1129 1194 1129 1111.5 1093.5 c 128,-1,2
 1029 1058 1029 1058 967.5 996.5 c 128,-1,3
 906 935 906 935 870.5 852.5 c 128,-1,4
 835 770 835 770 835 677 c 128,-1,5
 835 584 835 584 870.5 501.5 c 128,-1,6
 906 419 906 419 967.5 357.5 c 128,-1,7
 1029 296 1029 296 1111.5 260.5 c 128,-1,8
 1194 225 1194 225 1287 225 c 128,-1,9
 1380 225 1380 225 1462.5 260.5 c 128,-1,10
 1545 296 1545 296 1606.5 357.5 c 128,-1,11
 1668 419 1668 419 1703.5 501.5 c 128,-1,12
 1739 584 1739 584 1739 677 c 128,-1,13
 1739 770 1739 770 1703.5 852.5 c 128,-1,14
 1668 935 1668 935 1606.5 996.5 c 128,-1,15
 1545 1058 1545 1058 1462.5 1093.5 c 128,-1,16
 1380 1129 1380 1129 1287 1129 c 0,0,1
1283 -79 m 0,17,18
 1205 -79 1205 -79 1131 -63.5 c 128,-1,19
 1057 -48 1057 -48 989 -19.5 c 128,-1,20
 921 9 921 9 860.5 50 c 128,-1,21
 800 91 800 91 748.5 142.5 c 128,-1,22
 697 194 697 194 656 254.5 c 128,-1,23
 615 315 615 315 586 383 c 128,-1,24
 557 451 557 451 541.5 525 c 128,-1,25
 526 599 526 599 526 677 c 128,-1,26
 526 755 526 755 541.5 829 c 128,-1,27
 557 903 557 903 586 971 c 128,-1,28
 615 1039 615 1039 656 1099.5 c 128,-1,29
 697 1160 697 1160 748.5 1211.5 c 128,-1,30
 800 1263 800 1263 860.5 1304.5 c 128,-1,31
 921 1346 921 1346 989 1374.5 c 128,-1,32
 1057 1403 1057 1403 1131 1418.5 c 128,-1,33
 1205 1434 1205 1434 1283 1434 c 0,34,35
 1362 1434 1362 1434 1435.5 1418.5 c 128,-1,36
 1509 1403 1509 1403 1577 1374.5 c 128,-1,37
 1645 1346 1645 1346 1706 1304.5 c 128,-1,38
 1767 1263 1767 1263 1818 1211.5 c 128,-1,39
 1869 1160 1869 1160 1910.5 1099.5 c 128,-1,40
 1952 1039 1952 1039 1980.5 971 c 128,-1,41
 2009 903 2009 903 2024.5 829 c 128,-1,42
 2040 755 2040 755 2040 677 c 128,-1,43
 2040 599 2040 599 2024.5 525 c 128,-1,44
 2009 451 2009 451 1980.5 383 c 128,-1,45
 1952 315 1952 315 1910.5 254.5 c 128,-1,46
 1869 194 1869 194 1818 142.5 c 128,-1,47
 1767 91 1767 91 1706 50 c 128,-1,48
 1645 9 1645 9 1577 -19.5 c 128,-1,49
 1509 -48 1509 -48 1435.5 -63.5 c 128,-1,50
 1362 -79 1362 -79 1283 -79 c 0,17,18
1276 1916 m 1,51,-1
 1276 1673 l 1,52,53
 1133 1673 1133 1673 1001.5 1635 c 128,-1,54
 870 1597 870 1597 757 1527 c 128,-1,55
 644 1457 644 1457 552.5 1360 c 128,-1,56
 461 1263 461 1263 397 1145 c 1,57,-1
 111 1145 l 1,58,-1
 1284 2830 l 1,59,-1
 2460 1145 l 1,60,-1
 2171 1145 l 1,61,62
 2107 1263 2107 1263 2014.5 1360 c 128,-1,63
 1922 1457 1922 1457 1808.5 1527 c 128,-1,64
 1695 1597 1695 1597 1563 1635 c 128,-1,65
 1431 1673 1431 1673 1287 1673 c 1,66,-1
 1287 1916 l 1,67,68
 1366 1911 1366 1911 1423.5 1902.5 c 128,-1,69
 1481 1894 1481 1894 1532.5 1880.5 c 128,-1,70
 1584 1867 1584 1867 1636 1846 c 128,-1,71
 1688 1825 1688 1825 1756 1794 c 1,72,-1
 1280 2455 l 1,73,-1
 811 1794 l 1,74,75
 878 1831 878 1831 928 1853.5 c 128,-1,76
 978 1876 978 1876 1028 1889 c 128,-1,77
 1078 1902 1078 1902 1136 1907.5 c 128,-1,78
 1194 1913 1194 1913 1276 1916 c 1,51,-1
EndSplineSet
EndChar
StartChar: Aacute
Encoding: 193 193 84
Width: 4096
GlyphClass: 2
Flags: W
Fore
3882 2605 m 1,0,-1
 213 2605 l 1,1,-1
 1436 1577 l 1,2,-1
 2673 1577 l 1,3,-1
 3882 2605 l 1,0,-1
0 2734 m 1,4,-1
 4095 2734 l 1,5,-1
 4095 6 l 1,6,-1
 0 6 l 1,7,-1
 0 2734 l 1,4,-1
143 206 m 1,8,-1
 1294 1434 l 1,9,-1
 1365 1370 l 1,10,-1
 213 148 l 1,11,-1
 3882 148 l 1,12,-1
 2730 1370 l 1,13,-1
 2801 1434 l 1,14,-1
 3953 206 l 1,15,-1
 3953 2505 l 1,16,-1
 2673 1434 l 1,17,-1
 1436 1434 l 1,18,-1
 143 2505 l 1,19,-1
 143 206 l 1,8,-1
EndSplineSet
EndChar
StartChar: Acircumflex
Encoding: 194 194 85
Width: 2392
GlyphClass: 2
Flags: W
Fore
2081 1800 m 1,0,-1
 2238 1439 l 1,1,2
 2177 1370 2177 1370 2115 1315 c 128,-1,3
 2053 1260 2053 1260 1991 1222 c 0,4,5
 1865 1144 1865 1144 1676 1144 c 0,6,7
 1603 1144 1603 1144 1524 1158.5 c 128,-1,8
 1445 1173 1445 1173 1361 1200 c 0,9,10
 1277 1228 1277 1228 1192 1256.5 c 128,-1,11
 1107 1285 1107 1285 1023 1312 c 0,12,13
 853 1368 853 1368 705 1368 c 0,14,15
 470 1368 470 1368 326 1120 c 1,16,-1
 162 1439 l 1,17,18
 261 1612 261 1612 401.5 1698 c 128,-1,19
 542 1784 542 1784 723 1784 c 0,20,21
 779 1784 779 1784 834.5 1776 c 128,-1,22
 890 1768 890 1768 942 1752 c 0,23,24
 995 1736 995 1736 1061.5 1712 c 128,-1,25
 1128 1688 1128 1688 1206 1655 c 0,26,27
 1286 1622 1286 1622 1351 1598 c 128,-1,28
 1416 1574 1416 1574 1465 1559 c 0,29,30
 1515 1544 1515 1544 1568.5 1536 c 128,-1,31
 1622 1528 1622 1528 1676 1528 c 0,32,33
 1737 1528 1737 1528 1790.5 1545.5 c 128,-1,34
 1844 1563 1844 1563 1886 1597 c 0,35,36
 1973 1667 1973 1667 2081 1800 c 1,0,-1
2081 981 m 1,37,-1
 2238 620 l 1,38,39
 2177 551 2177 551 2115 496 c 128,-1,40
 2053 441 2053 441 1991 403 c 0,41,42
 1865 325 1865 325 1676 325 c 0,43,44
 1603 325 1603 325 1524 339 c 128,-1,45
 1445 353 1445 353 1361 381 c 128,-1,46
 1277 409 1277 409 1192 437 c 128,-1,47
 1107 465 1107 465 1023 493 c 0,48,49
 853 549 853 549 705 549 c 0,50,51
 470 549 470 549 326 301 c 1,52,-1
 162 620 l 1,53,54
 261 793 261 793 401.5 879 c 128,-1,55
 542 965 542 965 723 965 c 0,56,57
 779 965 779 965 834.5 957 c 128,-1,58
 890 949 890 949 942 933 c 0,59,60
 995 917 995 917 1061.5 892.5 c 128,-1,61
 1128 868 1128 868 1206 836 c 0,62,63
 1286 803 1286 803 1351 779 c 128,-1,64
 1416 755 1416 755 1465 740 c 0,65,66
 1515 725 1515 725 1568.5 717 c 128,-1,67
 1622 709 1622 709 1676 709 c 0,68,69
 1737 709 1737 709 1790.5 726 c 128,-1,70
 1844 743 1844 743 1886 778 c 0,71,72
 1973 848 1973 848 2081 981 c 1,37,-1
EndSplineSet
EndChar
StartChar: Adieresis
Encoding: 196 196 86
Width: 2503
GlyphClass: 2
Flags: W
Fore
2119 434 m 1,0,-1
 2119 1252 l 1,1,-1
 157 1252 l 1,2,-1
 157 1598 l 1,3,-1
 2460 1598 l 1,4,-1
 2460 434 l 1,5,-1
 2119 434 l 1,0,-1
EndSplineSet
EndChar
StartChar: AE
Encoding: 198 198 87
Width: 2961
GlyphClass: 2
Flags: W
Fore
1532 1267 m 1,0,1
 1626 1173 1626 1173 1731 1082.5 c 128,-1,2
 1836 992 1836 992 1951 908 c 1,3,-1
 2066 1058 l 1,4,5
 2075 1071 2075 1071 2090.5 1073.5 c 128,-1,6
 2106 1076 2106 1076 2119 1067 c 2,7,-1
 2187 1015 l 2,8,9
 2200 1006 2200 1006 2202 990.5 c 128,-1,10
 2204 975 2204 975 2195 963 c 2,11,-1
 2083 812 l 1,12,13
 2116 789 2116 789 2149 767.5 c 128,-1,14
 2182 746 2182 746 2216 726 c 1,15,16
 2307 679 2307 679 2380.5 620 c 128,-1,17
 2454 561 2454 561 2504.5 498.5 c 128,-1,18
 2555 436 2555 436 2581.5 373 c 128,-1,19
 2608 310 2608 310 2605 254 c 0,20,21
 2604 208 2604 208 2587 166 c 0,22,23
 2568 123 2568 123 2536 92.5 c 128,-1,24
 2504 62 2504 62 2464 46 c 128,-1,25
 2424 30 2424 30 2380 29.5 c 128,-1,26
 2336 29 2336 29 2293 48 c 0,27,28
 2261 61 2261 61 2236 82.5 c 128,-1,29
 2211 104 2211 104 2193 131 c 128,-1,30
 2175 158 2175 158 2165 189.5 c 128,-1,31
 2155 221 2155 221 2154 254 c 1,32,33
 2166 278 2166 278 2152.5 314.5 c 128,-1,34
 2139 351 2139 351 2103.5 392.5 c 128,-1,35
 2068 434 2068 434 2014 478 c 128,-1,36
 1960 522 1960 522 1893 560 c 1,37,-1
 1779 411 l 2,38,39
 1770 399 1770 399 1754.5 396.5 c 128,-1,40
 1739 394 1739 394 1726 403 c 2,41,-1
 1658 454 l 2,42,43
 1646 464 1646 464 1644 479.5 c 128,-1,44
 1642 495 1642 495 1651 507 c 2,45,-1
 1767 660 l 1,46,47
 1734 690 1734 690 1701 721 c 128,-1,48
 1668 752 1668 752 1636 784 c 0,49,50
 1568 852 1568 852 1503 922.5 c 128,-1,51
 1438 993 1438 993 1377 1065 c 1,52,53
 1316 993 1316 993 1251.5 922.5 c 128,-1,54
 1187 852 1187 852 1118 784 c 0,55,56
 1086 752 1086 752 1053 721 c 128,-1,57
 1020 690 1020 690 987 661 c 1,58,-1
 1103 507 l 2,59,60
 1112 495 1112 495 1110 479.5 c 128,-1,61
 1108 464 1108 464 1096 455 c 2,62,-1
 1028 403 l 2,63,64
 1015 394 1015 394 999.5 396.5 c 128,-1,65
 984 399 984 399 974 411 c 1,66,-1
 861 560 l 1,67,68
 793 522 793 522 739.5 478.5 c 128,-1,69
 686 435 686 435 651 393 c 128,-1,70
 616 351 616 351 602 314.5 c 128,-1,71
 588 278 588 278 600 254 c 1,72,73
 599 221 599 221 589 190 c 128,-1,74
 579 159 579 159 561.5 131.5 c 128,-1,75
 544 104 544 104 518.5 82.5 c 128,-1,76
 493 61 493 61 461 48 c 0,77,78
 419 29 419 29 374.5 29.5 c 128,-1,79
 330 30 330 30 290 46 c 128,-1,80
 250 62 250 62 218 93 c 128,-1,81
 186 124 186 124 168 166 c 0,82,83
 159 187 159 187 154.5 209 c 128,-1,84
 150 231 150 231 149 254 c 0,85,86
 146 310 146 310 172.5 373 c 128,-1,87
 199 436 199 436 250 499 c 128,-1,88
 301 562 301 562 374 620.5 c 128,-1,89
 447 679 447 679 539 726 c 1,90,91
 573 746 573 746 605.5 767.5 c 128,-1,92
 638 789 638 789 671 812 c 1,93,-1
 559 963 l 2,94,95
 550 975 550 975 552 990.5 c 128,-1,96
 554 1006 554 1006 567 1016 c 2,97,-1
 634 1067 l 2,98,99
 647 1076 647 1076 662.5 1074 c 128,-1,100
 678 1072 678 1072 687 1059 c 1,101,-1
 802 908 l 1,102,103
 918 992 918 992 1023 1082.5 c 128,-1,104
 1128 1173 1128 1173 1222 1266 c 1,105,106
 1074 1468 1074 1468 962 1677 c 128,-1,107
 850 1886 850 1886 777.5 2097.5 c 128,-1,108
 705 2309 705 2309 673.5 2519 c 128,-1,109
 642 2729 642 2729 655 2932 c 1,110,111
 690 2736 690 2736 751.5 2540.5 c 128,-1,112
 813 2345 813 2345 902.5 2156 c 128,-1,113
 992 1967 992 1967 1110.5 1785 c 128,-1,114
 1229 1603 1229 1603 1377 1433 c 1,115,116
 1526 1604 1526 1604 1644 1786 c 128,-1,117
 1762 1968 1762 1968 1851.5 2157.5 c 128,-1,118
 1941 2347 1941 2347 2002.5 2541.5 c 128,-1,119
 2064 2736 2064 2736 2098 2933 c 1,120,121
 2111 2730 2111 2730 2079.5 2520 c 128,-1,122
 2048 2310 2048 2310 1975.5 2099 c 128,-1,123
 1903 1888 1903 1888 1791.5 1679 c 128,-1,124
 1680 1470 1680 1470 1532 1267 c 1,0,1
249 186 m 1,125,126
 258 161 258 161 276.5 141.5 c 128,-1,127
 295 122 295 122 318 111.5 c 128,-1,128
 341 101 341 101 367.5 99 c 128,-1,129
 394 97 394 97 419 107 c 0,130,131
 445 116 445 116 464.5 134 c 128,-1,132
 484 152 484 152 494.5 175.5 c 128,-1,133
 505 199 505 199 506.5 225 c 128,-1,134
 508 251 508 251 499 277 c 1,135,136
 470 249 470 249 447 231 c 128,-1,137
 424 213 424 213 397.5 203 c 128,-1,138
 371 193 371 193 336 189.5 c 128,-1,139
 301 186 301 186 249 186 c 1,125,126
2506 186 m 1,140,141
 2454 186 2454 186 2418.5 189.5 c 128,-1,142
 2383 193 2383 193 2356.5 203 c 128,-1,143
 2330 213 2330 213 2307 231 c 128,-1,144
 2284 249 2284 249 2256 277 c 1,145,146
 2246 251 2246 251 2247.5 225 c 128,-1,147
 2249 199 2249 199 2260 175.5 c 128,-1,148
 2271 152 2271 152 2290 134 c 128,-1,149
 2309 116 2309 116 2335 107 c 0,150,151
 2361 97 2361 97 2387 99 c 128,-1,152
 2413 101 2413 101 2436.5 111.5 c 128,-1,153
 2460 122 2460 122 2478 141.5 c 128,-1,154
 2496 161 2496 161 2506 186 c 1,140,141
EndSplineSet
EndChar
StartChar: Egrave
Encoding: 200 200 88
Width: 2503
GlyphClass: 2
Flags: W
Fore
1283 -79 m 0,0,1
 1205 -79 1205 -79 1131 -63.5 c 128,-1,2
 1057 -48 1057 -48 989 -19.5 c 128,-1,3
 921 9 921 9 860.5 50 c 128,-1,4
 800 91 800 91 748.5 142.5 c 128,-1,5
 697 194 697 194 656 254.5 c 128,-1,6
 615 315 615 315 586 383 c 128,-1,7
 557 451 557 451 541.5 525 c 128,-1,8
 526 599 526 599 526 677 c 128,-1,9
 526 755 526 755 541.5 829 c 128,-1,10
 557 903 557 903 586 971 c 128,-1,11
 615 1039 615 1039 656 1099.5 c 128,-1,12
 697 1160 697 1160 748.5 1211.5 c 128,-1,13
 800 1263 800 1263 860.5 1304.5 c 128,-1,14
 921 1346 921 1346 989 1374.5 c 128,-1,15
 1057 1403 1057 1403 1131 1418.5 c 128,-1,16
 1205 1434 1205 1434 1283 1434 c 0,17,18
 1362 1434 1362 1434 1435.5 1418.5 c 128,-1,19
 1509 1403 1509 1403 1577 1374.5 c 128,-1,20
 1645 1346 1645 1346 1706 1304.5 c 128,-1,21
 1767 1263 1767 1263 1818 1211.5 c 128,-1,22
 1869 1160 1869 1160 1910.5 1099.5 c 128,-1,23
 1952 1039 1952 1039 1980.5 971 c 128,-1,24
 2009 903 2009 903 2024.5 829 c 128,-1,25
 2040 755 2040 755 2040 677 c 128,-1,26
 2040 599 2040 599 2024.5 525 c 128,-1,27
 2009 451 2009 451 1980.5 383 c 128,-1,28
 1952 315 1952 315 1910.5 254.5 c 128,-1,29
 1869 194 1869 194 1818 142.5 c 128,-1,30
 1767 91 1767 91 1706 50 c 128,-1,31
 1645 9 1645 9 1577 -19.5 c 128,-1,32
 1509 -48 1509 -48 1435.5 -63.5 c 128,-1,33
 1362 -79 1362 -79 1283 -79 c 0,0,1
2171 1145 m 1,34,35
 2107 1263 2107 1263 2014 1361 c 128,-1,36
 1921 1459 1921 1459 1806.5 1529 c 128,-1,37
 1692 1599 1692 1599 1559.5 1638 c 128,-1,38
 1427 1677 1427 1677 1283 1677 c 0,39,40
 1140 1677 1140 1677 1007 1638 c 128,-1,41
 874 1599 874 1599 760 1529 c 128,-1,42
 646 1459 646 1459 553.5 1361 c 128,-1,43
 461 1263 461 1263 397 1145 c 1,44,-1
 125 1149 l 1,45,-1
 1283 2805 l 1,46,-1
 2442 1149 l 1,47,-1
 2171 1145 l 1,34,35
EndSplineSet
EndChar
StartChar: Ecircumflex
Encoding: 202 202 89
Width: 2961
GlyphClass: 2
Flags: W
Fore
2017 1947 m 1,0,1
 2076 2018 2076 2018 2160 2086 c 128,-1,2
 2244 2154 2244 2154 2341 2217 c 1,3,4
 2402 2273 2402 2273 2445 2332.5 c 128,-1,5
 2488 2392 2488 2392 2515.5 2451.5 c 128,-1,6
 2543 2511 2543 2511 2555 2569 c 128,-1,7
 2567 2627 2567 2627 2567 2679 c 128,-1,8
 2567 2731 2567 2731 2555.5 2776 c 128,-1,9
 2544 2821 2544 2821 2523.5 2854 c 128,-1,10
 2503 2887 2503 2887 2474.5 2907.5 c 128,-1,11
 2446 2928 2446 2928 2412 2932 c 0,12,13
 2365 2936 2365 2936 2324.5 2906 c 128,-1,14
 2284 2876 2284 2876 2250 2810 c 1,15,-1
 2300 2810 l 2,16,17
 2329 2811 2329 2811 2350 2797 c 128,-1,18
 2371 2783 2371 2783 2371 2764 c 128,-1,19
 2371 2745 2371 2745 2350 2731 c 128,-1,20
 2329 2717 2329 2717 2300 2717 c 2,21,-1
 2250 2716 l 1,22,23
 2240 2571 2240 2571 2194 2401.5 c 128,-1,24
 2148 2232 2148 2232 2068 2058 c 0,25,26
 2054 2029 2054 2029 2040.5 2000.5 c 128,-1,27
 2027 1972 2027 1972 2017 1947 c 1,0,1
1958 1842 m 1,28,29
 1927 1796 1927 1796 1894.5 1747.5 c 128,-1,30
 1862 1699 1862 1699 1829 1652 c 1,31,32
 1783 1590 1783 1590 1749 1532 c 128,-1,33
 1715 1474 1715 1474 1691.5 1418 c 128,-1,34
 1668 1362 1668 1362 1653 1306.5 c 128,-1,35
 1638 1251 1638 1251 1629.5 1195.5 c 128,-1,36
 1621 1140 1621 1140 1617.5 1082 c 128,-1,37
 1614 1024 1614 1024 1613.5 963 c 128,-1,38
 1613 902 1613 902 1614 835.5 c 128,-1,39
 1615 769 1615 769 1615 697 c 1,40,-1
 1496 697 l 1,41,-1
 1496 2810 l 1,42,-1
 2193 2811 l 1,43,44
 2227 2886 2227 2886 2279 2938 c 128,-1,45
 2331 2990 2331 2990 2405 3001 c 0,46,47
 2446 3006 2446 3006 2486 2991 c 128,-1,48
 2526 2976 2526 2976 2560 2944 c 128,-1,49
 2594 2912 2594 2912 2620.5 2865 c 128,-1,50
 2647 2818 2647 2818 2660 2760.5 c 128,-1,51
 2673 2703 2673 2703 2670.5 2636 c 128,-1,52
 2668 2569 2668 2569 2645 2498 c 128,-1,53
 2622 2427 2622 2427 2576.5 2352.5 c 128,-1,54
 2531 2278 2531 2278 2457 2205 c 1,55,56
 2347 2128 2347 2128 2260.5 2063 c 128,-1,57
 2174 1998 2174 1998 2120.5 1940 c 128,-1,58
 2067 1882 2067 1882 2051.5 1829 c 128,-1,59
 2036 1776 2036 1776 2069 1722 c 0,60,61
 2080 1706 2080 1706 2102 1679.5 c 128,-1,62
 2124 1653 2124 1653 2150.5 1626 c 128,-1,63
 2177 1599 2177 1599 2205.5 1577.5 c 128,-1,64
 2234 1556 2234 1556 2258 1548 c 1,65,66
 2187 1525 2187 1525 2134 1536 c 128,-1,67
 2081 1547 2081 1547 2044 1580 c 128,-1,68
 2007 1613 2007 1613 1985 1659.5 c 128,-1,69
 1963 1706 1963 1706 1953 1751 c 0,70,71
 1949 1772 1949 1772 1950.5 1794 c 128,-1,72
 1952 1816 1952 1816 1958 1842 c 1,28,29
975 1947 m 1,73,74
 965 1972 965 1972 951.5 2000.5 c 128,-1,75
 938 2029 938 2029 924 2058 c 0,76,77
 844 2232 844 2232 798 2401.5 c 128,-1,78
 752 2571 752 2571 741 2716 c 1,79,-1
 692 2717 l 2,80,81
 662 2717 662 2717 641.5 2731 c 128,-1,82
 621 2745 621 2745 621 2764 c 128,-1,83
 621 2783 621 2783 642 2797 c 128,-1,84
 663 2811 663 2811 692 2810 c 2,85,-1
 743 2810 l 1,86,87
 708 2876 708 2876 668 2906 c 128,-1,88
 628 2936 628 2936 580 2932 c 0,89,90
 546 2928 546 2928 517.5 2907.5 c 128,-1,91
 489 2887 489 2887 468.5 2854 c 128,-1,92
 448 2821 448 2821 436 2776 c 128,-1,93
 424 2731 424 2731 424 2679 c 128,-1,94
 424 2627 424 2627 436.5 2569 c 128,-1,95
 449 2511 449 2511 476 2451.5 c 128,-1,96
 503 2392 503 2392 546 2332.5 c 128,-1,97
 589 2273 589 2273 651 2217 c 1,98,99
 748 2154 748 2154 832 2086 c 128,-1,100
 916 2018 916 2018 975 1947 c 1,73,74
1034 1842 m 1,101,102
 1040 1816 1040 1816 1041.5 1794 c 128,-1,103
 1043 1772 1043 1772 1039 1751 c 0,104,105
 1029 1706 1029 1706 1007 1659.5 c 128,-1,106
 985 1613 985 1613 948 1580 c 128,-1,107
 911 1547 911 1547 858 1536 c 128,-1,108
 805 1525 805 1525 734 1548 c 1,109,110
 758 1556 758 1556 786.5 1577.5 c 128,-1,111
 815 1599 815 1599 841.5 1626 c 128,-1,112
 868 1653 868 1653 890 1679.5 c 128,-1,113
 912 1706 912 1706 922 1722 c 0,114,115
 956 1776 956 1776 940.5 1829 c 128,-1,116
 925 1882 925 1882 871.5 1940 c 128,-1,117
 818 1998 818 1998 731.5 2063 c 128,-1,118
 645 2128 645 2128 535 2205 c 1,119,120
 462 2278 462 2278 416 2352.5 c 128,-1,121
 370 2427 370 2427 347 2498 c 128,-1,122
 324 2569 324 2569 321.5 2636 c 128,-1,123
 319 2703 319 2703 332 2760.5 c 128,-1,124
 345 2818 345 2818 371 2865 c 128,-1,125
 397 2912 397 2912 431.5 2944 c 128,-1,126
 466 2976 466 2976 506 2991 c 128,-1,127
 546 3006 546 3006 587 3001 c 0,128,129
 661 2990 661 2990 713.5 2938 c 128,-1,130
 766 2886 766 2886 799 2811 c 1,131,-1
 1496 2810 l 1,132,-1
 1496 697 l 1,133,-1
 1377 697 l 1,134,135
 1377 769 1377 769 1378 835.5 c 128,-1,136
 1379 902 1379 902 1378.5 963 c 128,-1,137
 1378 1024 1378 1024 1374.5 1082 c 128,-1,138
 1371 1140 1371 1140 1362.5 1195.5 c 128,-1,139
 1354 1251 1354 1251 1339 1306.5 c 128,-1,140
 1324 1362 1324 1362 1300.5 1418 c 128,-1,141
 1277 1474 1277 1474 1243 1532 c 128,-1,142
 1209 1590 1209 1590 1163 1652 c 1,143,144
 1130 1699 1130 1699 1098 1747.5 c 128,-1,145
 1066 1796 1066 1796 1034 1842 c 1,101,102
1122 697 m 2,146,-1
 1870 697 l 2,147,148
 1889 697 1889 697 1906 689.5 c 128,-1,149
 1923 682 1923 682 1935.5 669.5 c 128,-1,150
 1948 657 1948 657 1955.5 640 c 128,-1,151
 1963 623 1963 623 1963 604 c 0,152,153
 1963 584 1963 584 1955.5 567.5 c 128,-1,154
 1948 551 1948 551 1935.5 538.5 c 128,-1,155
 1923 526 1923 526 1906 518.5 c 128,-1,156
 1889 511 1889 511 1870 511 c 2,157,-1
 1122 511 l 2,158,159
 1103 511 1103 511 1086 518.5 c 128,-1,160
 1069 526 1069 526 1056.5 538.5 c 128,-1,161
 1044 551 1044 551 1036.5 567.5 c 128,-1,162
 1029 584 1029 584 1029 604 c 0,163,164
 1029 623 1029 623 1036.5 640 c 128,-1,165
 1044 657 1044 657 1056.5 669.5 c 128,-1,166
 1069 682 1069 682 1086 689.5 c 128,-1,167
 1103 697 1103 697 1122 697 c 2,146,-1
1122 511 m 2,168,169
 1084 511 1084 511 1056.5 484 c 128,-1,170
 1029 457 1029 457 1029 418 c 0,171,172
 1029 399 1029 399 1036.5 382 c 128,-1,173
 1044 365 1044 365 1056.5 352.5 c 128,-1,174
 1069 340 1069 340 1086 332.5 c 128,-1,175
 1103 325 1103 325 1122 325 c 2,176,-1
 1870 325 l 2,177,178
 1889 325 1889 325 1906 332.5 c 128,-1,179
 1923 340 1923 340 1935.5 352.5 c 128,-1,180
 1948 365 1948 365 1955.5 382 c 128,-1,181
 1963 399 1963 399 1963 418 c 128,-1,182
 1963 437 1963 437 1955.5 454 c 128,-1,183
 1948 471 1948 471 1935.5 484 c 128,-1,184
 1923 497 1923 497 1906 504 c 128,-1,185
 1889 511 1889 511 1870 511 c 2,186,-1
 1122 511 l 2,168,169
2521 -1 m 1,187,-1
 470 -1 l 1,188,189
 470 66 470 66 496 125.5 c 128,-1,190
 522 185 522 185 566.5 229.5 c 128,-1,191
 611 274 611 274 670.5 299.5 c 128,-1,192
 730 325 730 325 797 325 c 2,193,-1
 2194 325 l 2,194,195
 2262 325 2262 325 2321.5 299.5 c 128,-1,196
 2381 274 2381 274 2425.5 229.5 c 128,-1,197
 2470 185 2470 185 2495.5 125.5 c 128,-1,198
 2521 66 2521 66 2521 -1 c 1,187,-1
EndSplineSet
EndChar
StartChar: Edieresis
Encoding: 203 203 90
Width: 4096
GlyphClass: 2
Flags: W
Fore
2864 -31 m 1,0,-1
 2863 684 l 1,1,-1
 219 684 l 1,2,-1
 219 1370 l 1,3,-1
 2863 1370 l 1,4,-1
 2862 2092 l 1,5,-1
 3925 1029 l 1,6,-1
 2864 -31 l 1,0,-1
EndSplineSet
EndChar
StartChar: Igrave
Encoding: 204 204 91
Width: 2310
GlyphClass: 2
Flags: W
Fore
1264 1309 m 1,0,-1
 1262 0 l 1,1,-1
 921 0 l 1,2,-1
 924 1310 l 1,3,4
 757 1340 757 1340 612.5 1425.5 c 128,-1,5
 468 1511 468 1511 362 1636.5 c 128,-1,6
 256 1762 256 1762 196 1920.5 c 128,-1,7
 136 2079 136 2079 136 2255 c 2,8,-1
 136 2791 l 1,9,-1
 477 2791 l 1,10,-1
 477 2255 l 2,11,12
 477 2150 477 2150 510.5 2054 c 128,-1,13
 544 1958 544 1958 604 1879.5 c 128,-1,14
 664 1801 664 1801 746 1744.5 c 128,-1,15
 828 1688 828 1688 924 1660 c 1,16,-1
 921 2662 l 1,17,-1
 1262 2662 l 1,18,-1
 1264 1660 l 1,19,20
 1361 1688 1361 1688 1443 1744.5 c 128,-1,21
 1525 1801 1525 1801 1584 1879.5 c 128,-1,22
 1643 1958 1643 1958 1675.5 2054 c 128,-1,23
 1708 2150 1708 2150 1706 2255 c 1,24,-1
 1706 2791 l 1,25,-1
 2051 2791 l 1,26,-1
 2053 2255 l 1,27,28
 2054 2079 2054 2079 1994 1920.5 c 128,-1,29
 1934 1762 1934 1762 1828 1636.5 c 128,-1,30
 1722 1511 1722 1511 1577 1425 c 128,-1,31
 1432 1339 1432 1339 1264 1309 c 1,0,-1
EndSplineSet
EndChar
StartChar: Iacute
Encoding: 205 205 92
Width: 2048
GlyphClass: 2
Flags: W
Fore
1354 2824 m 1,0,-1
 1354 2648 l 1,1,-1
 1221 2581 l 1,2,-1
 1221 1887 l 2,3,4
 1221 1821 1221 1821 1247 1765 c 128,-1,5
 1273 1709 1273 1709 1311 1668 c 1,6,7
 1334 1646 1334 1646 1381 1615 c 128,-1,8
 1428 1584 1428 1584 1498 1554 c 1,9,-1
 1592 1556 l 1,10,-1
 1592 1356 l 1,11,-1
 1084 1356 l 1,12,-1
 995 -69 l 1,13,-1
 963 -69 l 1,14,-1
 857 1356 l 1,15,-1
 353 1356 l 1,16,-1
 353 1556 l 1,17,-1
 450 1554 l 1,18,19
 516 1584 516 1584 565 1615.5 c 128,-1,20
 614 1647 614 1647 642 1673 c 0,21,22
 684 1714 684 1714 706.5 1771.5 c 128,-1,23
 729 1829 729 1829 729 1887 c 2,24,-1
 729 2581 l 1,25,-1
 600 2648 l 1,26,-1
 600 2824 l 1,27,-1
 1354 2824 l 1,0,-1
EndSplineSet
EndChar
StartChar: Icircumflex
Encoding: 206 206 93
Width: 3183
GlyphClass: 2
Flags: W
Fore
1878 287 m 1,0,-1
 1877 0 l 1,1,-1
 1536 0 l 1,2,-1
 1536 288 l 1,3,4
 1348 315 1348 315 1183 399.5 c 128,-1,5
 1018 484 1018 484 889.5 612.5 c 128,-1,6
 761 741 761 741 675.5 906.5 c 128,-1,7
 590 1072 590 1072 562 1262 c 1,8,-1
 278 1263 l 1,9,-1
 278 1605 l 1,10,-1
 555 1605 l 1,11,12
 582 1794 582 1794 667.5 1960.5 c 128,-1,13
 753 2127 753 2127 883 2255.5 c 128,-1,14
 1013 2384 1013 2384 1179.5 2468.5 c 128,-1,15
 1346 2553 1346 2553 1536 2580 c 1,16,-1
 1536 2862 l 1,17,-1
 1877 2862 l 1,18,-1
 1877 2583 l 1,19,20
 2065 2555 2065 2555 2230.5 2469 c 128,-1,21
 2396 2383 2396 2383 2524.5 2254 c 128,-1,22
 2653 2125 2653 2125 2738.5 1959.5 c 128,-1,23
 2824 1794 2824 1794 2853 1606 c 1,24,-1
 3142 1605 l 1,25,-1
 3142 1263 l 1,26,-1
 2853 1260 l 1,27,28
 2824 1072 2824 1072 2738.5 907.5 c 128,-1,29
 2653 743 2653 743 2524 615 c 128,-1,30
 2395 487 2395 487 2230.5 401.5 c 128,-1,31
 2066 316 2066 316 1878 287 c 1,0,-1
1332 1604 m 1,32,33
 1361 1670 1361 1670 1414.5 1724 c 128,-1,34
 1468 1778 1468 1778 1536 1809 c 1,35,-1
 1536 2237 l 1,36,37
 1417 2211 1417 2211 1312 2152.5 c 128,-1,38
 1207 2094 1207 2094 1124 2011 c 128,-1,39
 1041 1928 1041 1928 984 1825 c 128,-1,40
 927 1722 927 1722 903 1605 c 1,41,-1
 1332 1604 l 1,32,33
2506 1605 m 1,42,43
 2482 1723 2482 1723 2425 1826 c 128,-1,44
 2368 1929 2368 1929 2286 2011.5 c 128,-1,45
 2204 2094 2204 2094 2100 2151.5 c 128,-1,46
 1996 2209 1996 2209 1877 2234 c 1,47,-1
 1877 1809 l 1,48,49
 1946 1778 1946 1778 1999 1724 c 128,-1,50
 2052 1670 2052 1670 2082 1604 c 1,51,-1
 2506 1605 l 1,42,43
1877 635 m 1,52,53
 1995 659 1995 659 2098.5 716 c 128,-1,54
 2202 773 2202 773 2284 855.5 c 128,-1,55
 2366 938 2366 938 2424 1041.5 c 128,-1,56
 2482 1145 2482 1145 2508 1263 c 1,57,-1
 2083 1263 l 1,58,59
 2050 1195 2050 1195 1996.5 1142.5 c 128,-1,60
 1943 1090 1943 1090 1877 1060 c 1,61,-1
 1877 635 l 1,52,53
1536 635 m 1,62,-1
 1536 1058 l 1,63,64
 1470 1089 1470 1089 1417 1142 c 128,-1,65
 1364 1195 1364 1195 1333 1263 c 1,66,-1
 911 1263 l 1,67,68
 936 1144 936 1144 993.5 1040 c 128,-1,69
 1051 936 1051 936 1132.5 854 c 128,-1,70
 1214 772 1214 772 1317 715.5 c 128,-1,71
 1420 659 1420 659 1536 635 c 1,62,-1
EndSplineSet
EndChar
StartChar: Idieresis
Encoding: 207 207 94
Width: 3183
GlyphClass: 2
Flags: W
Fore
2119 117 m 1,0,-1
 2120 598 l 1,1,-1
 2375 854 l 1,2,-1
 113 855 l 1,3,-1
 113 1198 l 1,4,-1
 2365 1196 l 1,5,-1
 2119 1448 l 1,6,-1
 2120 1926 l 1,7,-1
 3025 1022 l 1,8,-1
 2119 117 l 1,0,-1
EndSplineSet
EndChar
StartChar: Ntilde
Encoding: 209 209 95
Width: 4096
GlyphClass: 2
Flags: W
Fore
819 1710 m 0,0,1
 734 1710 734 1710 659 1678 c 128,-1,2
 584 1646 584 1646 528 1590 c 128,-1,3
 472 1534 472 1534 439.5 1459 c 128,-1,4
 407 1384 407 1384 407 1298 c 0,5,6
 407 1213 407 1213 439.5 1138 c 128,-1,7
 472 1063 472 1063 528 1007 c 128,-1,8
 584 951 584 951 659 918.5 c 128,-1,9
 734 886 734 886 819 886 c 128,-1,10
 904 886 904 886 979.5 918.5 c 128,-1,11
 1055 951 1055 951 1111 1007 c 128,-1,12
 1167 1063 1167 1063 1199 1138 c 128,-1,13
 1231 1213 1231 1213 1231 1298 c 0,14,15
 1231 1384 1231 1384 1199 1459 c 128,-1,16
 1167 1534 1167 1534 1111 1590 c 128,-1,17
 1055 1646 1055 1646 979.5 1678 c 128,-1,18
 904 1710 904 1710 819 1710 c 0,0,1
819 2052 m 0,19,20
 897 2052 897 2052 970.5 2036.5 c 128,-1,21
 1044 2021 1044 2021 1112 1992.5 c 128,-1,22
 1180 1964 1180 1964 1240 1923 c 128,-1,23
 1300 1882 1300 1882 1351 1830.5 c 128,-1,24
 1402 1779 1402 1779 1443 1719 c 128,-1,25
 1484 1659 1484 1659 1513 1591.5 c 128,-1,26
 1542 1524 1542 1524 1557 1450 c 128,-1,27
 1572 1376 1572 1376 1572 1298 c 0,28,29
 1572 1221 1572 1221 1557 1147 c 128,-1,30
 1542 1073 1542 1073 1513 1005.5 c 128,-1,31
 1484 938 1484 938 1443 878 c 128,-1,32
 1402 818 1402 818 1351 766.5 c 128,-1,33
 1300 715 1300 715 1240 674 c 128,-1,34
 1180 633 1180 633 1112 604.5 c 128,-1,35
 1044 576 1044 576 970.5 560.5 c 128,-1,36
 897 545 897 545 819 545 c 128,-1,37
 741 545 741 545 667.5 560.5 c 128,-1,38
 594 576 594 576 526.5 604.5 c 128,-1,39
 459 633 459 633 398.5 674 c 128,-1,40
 338 715 338 715 287 766.5 c 128,-1,41
 236 818 236 818 195 878 c 128,-1,42
 154 938 154 938 125.5 1005.5 c 128,-1,43
 97 1073 97 1073 81.5 1147 c 128,-1,44
 66 1221 66 1221 66 1298 c 0,45,46
 66 1376 66 1376 81.5 1450 c 128,-1,47
 97 1524 97 1524 125.5 1591.5 c 128,-1,48
 154 1659 154 1659 195 1719 c 128,-1,49
 236 1779 236 1779 287 1830.5 c 128,-1,50
 338 1882 338 1882 398.5 1923 c 128,-1,51
 459 1964 459 1964 526.5 1992.5 c 128,-1,52
 594 2021 594 2021 667.5 2036.5 c 128,-1,53
 741 2052 741 2052 819 2052 c 0,19,20
3318 1710 m 0,54,55
 3233 1710 3233 1710 3157.5 1678 c 128,-1,56
 3082 1646 3082 1646 3026 1590 c 128,-1,57
 2970 1534 2970 1534 2938 1459 c 128,-1,58
 2906 1384 2906 1384 2906 1298 c 0,59,60
 2906 1213 2906 1213 2938 1138 c 128,-1,61
 2970 1063 2970 1063 3026 1007 c 128,-1,62
 3082 951 3082 951 3157.5 918.5 c 128,-1,63
 3233 886 3233 886 3318 886 c 128,-1,64
 3403 886 3403 886 3478 918.5 c 128,-1,65
 3553 951 3553 951 3609 1007 c 128,-1,66
 3665 1063 3665 1063 3697.5 1138 c 128,-1,67
 3730 1213 3730 1213 3730 1298 c 0,68,69
 3730 1384 3730 1384 3697.5 1459 c 128,-1,70
 3665 1534 3665 1534 3609 1590 c 128,-1,71
 3553 1646 3553 1646 3478 1678 c 128,-1,72
 3403 1710 3403 1710 3318 1710 c 0,54,55
3318 2052 m 0,73,74
 3396 2052 3396 2052 3469.5 2036.5 c 128,-1,75
 3543 2021 3543 2021 3610.5 1992.5 c 128,-1,76
 3678 1964 3678 1964 3738.5 1923 c 128,-1,77
 3799 1882 3799 1882 3850 1830.5 c 128,-1,78
 3901 1779 3901 1779 3942 1719 c 128,-1,79
 3983 1659 3983 1659 4011.5 1591.5 c 128,-1,80
 4040 1524 4040 1524 4055.5 1450 c 128,-1,81
 4071 1376 4071 1376 4071 1298 c 0,82,83
 4071 1221 4071 1221 4055.5 1147 c 128,-1,84
 4040 1073 4040 1073 4011.5 1005.5 c 128,-1,85
 3983 938 3983 938 3942 878 c 128,-1,86
 3901 818 3901 818 3850 766.5 c 128,-1,87
 3799 715 3799 715 3738.5 674 c 128,-1,88
 3678 633 3678 633 3610.5 604.5 c 128,-1,89
 3543 576 3543 576 3469.5 560.5 c 128,-1,90
 3396 545 3396 545 3318 545 c 128,-1,91
 3240 545 3240 545 3166 560.5 c 128,-1,92
 3092 576 3092 576 3024.5 604.5 c 128,-1,93
 2957 633 2957 633 2897 674 c 128,-1,94
 2837 715 2837 715 2785.5 766.5 c 128,-1,95
 2734 818 2734 818 2693.5 878 c 128,-1,96
 2653 938 2653 938 2624 1005.5 c 128,-1,97
 2595 1073 2595 1073 2580 1147 c 128,-1,98
 2565 1221 2565 1221 2565 1298 c 0,99,100
 2565 1376 2565 1376 2580 1450 c 128,-1,101
 2595 1524 2595 1524 2624 1591.5 c 128,-1,102
 2653 1659 2653 1659 2693.5 1719 c 128,-1,103
 2734 1779 2734 1779 2785.5 1830.5 c 128,-1,104
 2837 1882 2837 1882 2897 1923 c 128,-1,105
 2957 1964 2957 1964 3024.5 1992.5 c 128,-1,106
 3092 2021 3092 2021 3166 2036.5 c 128,-1,107
 3240 2052 3240 2052 3318 2052 c 0,73,74
1671 884 m 1,108,-1
 1945 884 l 1,109,-1
 1945 613 l 1,110,-1
 1671 613 l 1,111,-1
 1671 884 l 1,108,-1
2218 884 m 1,112,-1
 2492 884 l 1,113,-1
 2492 613 l 1,114,-1
 2218 613 l 1,115,-1
 2218 884 l 1,112,-1
EndSplineSet
EndChar
StartChar: Ograve
Encoding: 210 210 96
Width: 2048
GlyphClass: 2
Flags: W
Fore
1102 2791 m 1,0,1
 1221 2780 1221 2780 1331 2741.5 c 128,-1,2
 1441 2703 1441 2703 1537 2641.5 c 128,-1,3
 1633 2580 1633 2580 1714 2498.5 c 128,-1,4
 1795 2417 1795 2417 1856 2320 c 1,5,-1
 1856 1977 l 1,6,-1
 1323 1977 l 1,7,-1
 1323 0 l 1,8,-1
 683 0 l 1,9,-1
 683 1977 l 1,10,-1
 143 1977 l 1,11,-1
 143 2320 l 1,12,13
 204 2415 204 2415 285.5 2496.5 c 128,-1,14
 367 2578 367 2578 463.5 2639.5 c 128,-1,15
 560 2701 560 2701 670.5 2740.5 c 128,-1,16
 781 2780 781 2780 899 2791 c 1,17,-1
 899 2320 l 1,18,-1
 1102 2320 l 1,19,-1
 1102 2791 l 1,0,1
EndSplineSet
EndChar
